M48
; DRILL file {KiCad 7.0.9} date Tue Jan  9 19:40:32 2024
; FORMAT={-:-/ absolute / metric / decimal}
; #@! TF.CreationDate,2024-01-09T19:40:32+08:00
; #@! TF.GenerationSoftware,Kicad,Pcbnew,7.0.9
; #@! TF.FileFunction,MixedPlating,1,2
FMAT,2
METRIC
; #@! TA.AperFunction,Plated,PTH,ViaDrill
T1C0.300
; #@! TA.AperFunction,Plated,PTH,ViaDrill
T2C0.400
; #@! TA.AperFunction,Plated,PTH,ComponentDrill
T3C1.000
; #@! TA.AperFunction,Plated,PTH,ComponentDrill
T4C1.200
%
G90
G05
T1
X17.17Y-12.75
X17.17Y-15.17
X29.665Y-20.14
X29.665Y-20.995
X29.665Y-21.85
X37.61Y-12.84
X37.62Y-15.17
X39.86Y-12.94
X39.86Y-15.17
X41.02Y-12.94
X41.02Y-15.17
T2
X7.46Y-7.57
X7.47Y-20.48
T3
X0.505Y-1.35
X0.505Y-26.75
X3.045Y-1.35
X3.045Y-26.75
X10.57Y-1.35
X10.57Y-26.75
X13.11Y-1.35
X13.11Y-26.75
X15.65Y-1.35
X15.65Y-26.75
X18.19Y-1.35
X18.19Y-26.75
X20.73Y-1.35
X20.73Y-26.75
X23.27Y-1.35
X23.27Y-26.75
X25.81Y-1.35
X25.81Y-26.75
X28.35Y-1.35
X28.35Y-26.75
X29.665Y-11.525
X29.665Y-14.065
X29.665Y-16.605
X31.01Y-1.35
X31.01Y-26.75
X33.55Y-1.35
X33.55Y-26.75
X36.09Y-1.35
X36.09Y-26.75
X38.63Y-1.35
X38.63Y-26.75
X41.17Y-1.35
X41.17Y-26.75
X43.71Y-1.35
X43.71Y-26.75
X46.25Y-1.35
X46.25Y-26.75
X48.79Y-1.35
X48.79Y-26.75
T4
X-1.09Y-6.93
X-1.08Y-21.23
X50.47Y-6.93
X50.47Y-21.23
T0
M30
