%TF.GenerationSoftware,KiCad,Pcbnew,7.0.9*%
%TF.CreationDate,2024-01-09T19:40:25+08:00*%
%TF.ProjectId,UINIO-Signal-Translator,55494e49-4f2d-4536-9967-6e616c2d5472,Version 1.0.0*%
%TF.SameCoordinates,PX78a63b0PY57fedb0*%
%TF.FileFunction,Soldermask,Bot*%
%TF.FilePolarity,Negative*%
%FSLAX46Y46*%
G04 Gerber Fmt 4.6, Leading zero omitted, Abs format (unit mm)*
G04 Created by KiCad (PCBNEW 7.0.9) date 2024-01-09 19:40:25*
%MOMM*%
%LPD*%
G01*
G04 APERTURE LIST*
%ADD10R,1.700000X1.700000*%
%ADD11O,1.700000X1.700000*%
%ADD12C,1.200000*%
G04 APERTURE END LIST*
D10*
%TO.C,J1*%
X505000Y-26750000D03*
D11*
X3045000Y-26750000D03*
%TD*%
D12*
%TO.C,HOLE\u002A\u002A*%
X-1090000Y-6930000D03*
%TD*%
D10*
%TO.C,J4*%
X10570000Y-1350000D03*
D11*
X13110000Y-1350000D03*
X15650000Y-1350000D03*
X18190000Y-1350000D03*
X20730000Y-1350000D03*
X23270000Y-1350000D03*
X25810000Y-1350000D03*
X28350000Y-1350000D03*
%TD*%
D12*
%TO.C,HOLE\u002A\u002A*%
X-1080000Y-21230000D03*
%TD*%
D10*
%TO.C,J6*%
X29665000Y-11525000D03*
D11*
X29665000Y-14065000D03*
X29665000Y-16605000D03*
%TD*%
D10*
%TO.C,J7*%
X31010000Y-1350000D03*
D11*
X33550000Y-1350000D03*
X36090000Y-1350000D03*
X38630000Y-1350000D03*
X41170000Y-1350000D03*
X43710000Y-1350000D03*
X46250000Y-1350000D03*
X48790000Y-1350000D03*
%TD*%
D10*
%TO.C,J2*%
X10570000Y-26750000D03*
D11*
X13110000Y-26750000D03*
X15650000Y-26750000D03*
X18190000Y-26750000D03*
X20730000Y-26750000D03*
X23270000Y-26750000D03*
X25810000Y-26750000D03*
X28350000Y-26750000D03*
%TD*%
D12*
%TO.C,HOLE\u002A\u002A*%
X50470000Y-21230000D03*
%TD*%
D10*
%TO.C,J3*%
X505000Y-1350000D03*
D11*
X3045000Y-1350000D03*
%TD*%
D12*
%TO.C,HOLE\u002A\u002A*%
X50470000Y-6930000D03*
%TD*%
D10*
%TO.C,J5*%
X31010000Y-26750000D03*
D11*
X33550000Y-26750000D03*
X36090000Y-26750000D03*
X38630000Y-26750000D03*
X41170000Y-26750000D03*
X43710000Y-26750000D03*
X46250000Y-26750000D03*
X48790000Y-26750000D03*
%TD*%
M02*
