%TF.GenerationSoftware,KiCad,Pcbnew,7.0.9*%
%TF.CreationDate,2024-01-09T19:40:25+08:00*%
%TF.ProjectId,UINIO-Signal-Translator,55494e49-4f2d-4536-9967-6e616c2d5472,Version 1.0.0*%
%TF.SameCoordinates,PX78a63b0PY57fedb0*%
%TF.FileFunction,Paste,Top*%
%TF.FilePolarity,Positive*%
%FSLAX46Y46*%
G04 Gerber Fmt 4.6, Leading zero omitted, Abs format (unit mm)*
G04 Created by KiCad (PCBNEW 7.0.9) date 2024-01-09 19:40:25*
%MOMM*%
%LPD*%
G01*
G04 APERTURE LIST*
G04 Aperture macros list*
%AMRoundRect*
0 Rectangle with rounded corners*
0 $1 Rounding radius*
0 $2 $3 $4 $5 $6 $7 $8 $9 X,Y pos of 4 corners*
0 Add a 4 corners polygon primitive as box body*
4,1,4,$2,$3,$4,$5,$6,$7,$8,$9,$2,$3,0*
0 Add four circle primitives for the rounded corners*
1,1,$1+$1,$2,$3*
1,1,$1+$1,$4,$5*
1,1,$1+$1,$6,$7*
1,1,$1+$1,$8,$9*
0 Add four rect primitives between the rounded corners*
20,1,$1+$1,$2,$3,$4,$5,0*
20,1,$1+$1,$4,$5,$6,$7,0*
20,1,$1+$1,$6,$7,$8,$9,0*
20,1,$1+$1,$8,$9,$2,$3,0*%
G04 Aperture macros list end*
%ADD10RoundRect,0.218750X-0.256250X0.218750X-0.256250X-0.218750X0.256250X-0.218750X0.256250X0.218750X0*%
%ADD11RoundRect,0.200000X-0.275000X0.200000X-0.275000X-0.200000X0.275000X-0.200000X0.275000X0.200000X0*%
%ADD12RoundRect,0.218750X0.256250X-0.218750X0.256250X0.218750X-0.256250X0.218750X-0.256250X-0.218750X0*%
%ADD13RoundRect,0.200000X0.275000X-0.200000X0.275000X0.200000X-0.275000X0.200000X-0.275000X-0.200000X0*%
%ADD14RoundRect,0.100000X0.100000X-0.637500X0.100000X0.637500X-0.100000X0.637500X-0.100000X-0.637500X0*%
%ADD15RoundRect,0.225000X0.250000X-0.225000X0.250000X0.225000X-0.250000X0.225000X-0.250000X-0.225000X0*%
%ADD16RoundRect,0.225000X-0.250000X0.225000X-0.250000X-0.225000X0.250000X-0.225000X0.250000X0.225000X0*%
%ADD17RoundRect,0.200000X-0.200000X-0.275000X0.200000X-0.275000X0.200000X0.275000X-0.200000X0.275000X0*%
G04 APERTURE END LIST*
D10*
%TO.C,D2*%
X10420000Y-9135833D03*
X10420000Y-10710833D03*
%TD*%
D11*
%TO.C,R2*%
X7470000Y-9118333D03*
X7470000Y-10768333D03*
%TD*%
D12*
%TO.C,D1*%
X10420000Y-18964166D03*
X10420000Y-17389166D03*
%TD*%
D13*
%TO.C,R1*%
X7470000Y-19001666D03*
X7470000Y-17351666D03*
%TD*%
D14*
%TO.C,U1*%
X16520000Y-16912500D03*
X17170000Y-16912500D03*
X17820000Y-16912500D03*
X18470000Y-16912500D03*
X19120000Y-16912500D03*
X19770000Y-16912500D03*
X20420000Y-16912500D03*
X21070000Y-16912500D03*
X21720000Y-16912500D03*
X22370000Y-16912500D03*
X22370000Y-11187500D03*
X21720000Y-11187500D03*
X21070000Y-11187500D03*
X20420000Y-11187500D03*
X19770000Y-11187500D03*
X19120000Y-11187500D03*
X18470000Y-11187500D03*
X17820000Y-11187500D03*
X17170000Y-11187500D03*
X16520000Y-11187500D03*
%TD*%
D15*
%TO.C,C2*%
X4560000Y-9148333D03*
X4560000Y-10698333D03*
%TD*%
D16*
%TO.C,C1*%
X4560000Y-18951666D03*
X4560000Y-17401666D03*
%TD*%
D14*
%TO.C,U2*%
X36960000Y-16912500D03*
X37610000Y-16912500D03*
X38260000Y-16912500D03*
X38910000Y-16912500D03*
X39560000Y-16912500D03*
X40210000Y-16912500D03*
X40860000Y-16912500D03*
X41510000Y-16912500D03*
X42160000Y-16912500D03*
X42810000Y-16912500D03*
X42810000Y-11187500D03*
X42160000Y-11187500D03*
X41510000Y-11187500D03*
X40860000Y-11187500D03*
X40210000Y-11187500D03*
X39560000Y-11187500D03*
X38910000Y-11187500D03*
X38260000Y-11187500D03*
X37610000Y-11187500D03*
X36960000Y-11187500D03*
%TD*%
D17*
%TO.C,R3*%
X28840000Y-8260000D03*
X30490000Y-8260000D03*
%TD*%
M02*
