%TF.GenerationSoftware,KiCad,Pcbnew,7.0.11*%
%TF.CreationDate,2024-03-13T01:45:22+08:00*%
%TF.ProjectId,UINIO-Signal-Translator,55494e49-4f2d-4536-9967-6e616c2d5472,Version 2.0.0*%
%TF.SameCoordinates,PX78a63b0PY57fedb0*%
%TF.FileFunction,Copper,L2,Bot*%
%TF.FilePolarity,Positive*%
%FSLAX46Y46*%
G04 Gerber Fmt 4.6, Leading zero omitted, Abs format (unit mm)*
G04 Created by KiCad (PCBNEW 7.0.11) date 2024-03-13 01:45:22*
%MOMM*%
%LPD*%
G01*
G04 APERTURE LIST*
%TA.AperFunction,ComponentPad*%
%ADD10R,1.700000X1.700000*%
%TD*%
%TA.AperFunction,ComponentPad*%
%ADD11O,1.700000X1.700000*%
%TD*%
%TA.AperFunction,ComponentPad*%
%ADD12C,1.200000*%
%TD*%
%TA.AperFunction,ViaPad*%
%ADD13C,0.700000*%
%TD*%
%TA.AperFunction,ViaPad*%
%ADD14C,0.900000*%
%TD*%
%TA.AperFunction,Conductor*%
%ADD15C,0.500000*%
%TD*%
G04 APERTURE END LIST*
D10*
%TO.P,J1,1,Pin_1*%
%TO.N,GND*%
X505000Y-26750000D03*
D11*
%TO.P,J1,2,Pin_2*%
%TO.N,/VCCA*%
X3045000Y-26750000D03*
%TD*%
D12*
%TO.P,HOLE\u002A\u002A,*%
%TO.N,*%
X-1090000Y-6930000D03*
%TD*%
D10*
%TO.P,J4,1,Pin_1*%
%TO.N,Net-(J4-Pin_1)*%
X10570000Y-1350000D03*
D11*
%TO.P,J4,2,Pin_2*%
%TO.N,Net-(J4-Pin_2)*%
X13110000Y-1350000D03*
%TO.P,J4,3,Pin_3*%
%TO.N,Net-(J4-Pin_3)*%
X15650000Y-1350000D03*
%TO.P,J4,4,Pin_4*%
%TO.N,Net-(J4-Pin_4)*%
X18190000Y-1350000D03*
%TO.P,J4,5,Pin_5*%
%TO.N,Net-(J4-Pin_5)*%
X20730000Y-1350000D03*
%TO.P,J4,6,Pin_6*%
%TO.N,Net-(J4-Pin_6)*%
X23270000Y-1350000D03*
%TO.P,J4,7,Pin_7*%
%TO.N,Net-(J4-Pin_7)*%
X25810000Y-1350000D03*
%TO.P,J4,8,Pin_8*%
%TO.N,Net-(J4-Pin_8)*%
X28350000Y-1350000D03*
%TD*%
D12*
%TO.P,HOLE\u002A\u002A,*%
%TO.N,*%
X-1080000Y-21230000D03*
%TD*%
D10*
%TO.P,J6,1,Pin_1*%
%TO.N,Net-(J6-Pin_1)*%
X29665000Y-11525000D03*
D11*
%TO.P,J6,2,Pin_2*%
%TO.N,/OE*%
X29665000Y-14065000D03*
%TO.P,J6,3,Pin_3*%
%TO.N,/VCCA*%
X29665000Y-16605000D03*
%TD*%
D10*
%TO.P,J7,1,Pin_1*%
%TO.N,Net-(J7-Pin_1)*%
X31010000Y-1350000D03*
D11*
%TO.P,J7,2,Pin_2*%
%TO.N,Net-(J7-Pin_2)*%
X33550000Y-1350000D03*
%TO.P,J7,3,Pin_3*%
%TO.N,Net-(J7-Pin_3)*%
X36090000Y-1350000D03*
%TO.P,J7,4,Pin_4*%
%TO.N,Net-(J7-Pin_4)*%
X38630000Y-1350000D03*
%TO.P,J7,5,Pin_5*%
%TO.N,Net-(J7-Pin_5)*%
X41170000Y-1350000D03*
%TO.P,J7,6,Pin_6*%
%TO.N,Net-(J7-Pin_6)*%
X43710000Y-1350000D03*
%TO.P,J7,7,Pin_7*%
%TO.N,Net-(J7-Pin_7)*%
X46250000Y-1350000D03*
%TO.P,J7,8,Pin_8*%
%TO.N,Net-(J7-Pin_8)*%
X48790000Y-1350000D03*
%TD*%
D10*
%TO.P,J2,1,Pin_1*%
%TO.N,Net-(J2-Pin_1)*%
X10570000Y-26750000D03*
D11*
%TO.P,J2,2,Pin_2*%
%TO.N,Net-(J2-Pin_2)*%
X13110000Y-26750000D03*
%TO.P,J2,3,Pin_3*%
%TO.N,Net-(J2-Pin_3)*%
X15650000Y-26750000D03*
%TO.P,J2,4,Pin_4*%
%TO.N,Net-(J2-Pin_4)*%
X18190000Y-26750000D03*
%TO.P,J2,5,Pin_5*%
%TO.N,Net-(J2-Pin_5)*%
X20730000Y-26750000D03*
%TO.P,J2,6,Pin_6*%
%TO.N,Net-(J2-Pin_6)*%
X23270000Y-26750000D03*
%TO.P,J2,7,Pin_7*%
%TO.N,Net-(J2-Pin_7)*%
X25810000Y-26750000D03*
%TO.P,J2,8,Pin_8*%
%TO.N,Net-(J2-Pin_8)*%
X28350000Y-26750000D03*
%TD*%
D12*
%TO.P,HOLE\u002A\u002A,*%
%TO.N,*%
X50470000Y-21230000D03*
%TD*%
D10*
%TO.P,J3,1,Pin_1*%
%TO.N,GND*%
X505000Y-1350000D03*
D11*
%TO.P,J3,2,Pin_2*%
%TO.N,/VCCB*%
X3045000Y-1350000D03*
%TD*%
D12*
%TO.P,HOLE\u002A\u002A,*%
%TO.N,*%
X50470000Y-6930000D03*
%TD*%
D10*
%TO.P,J5,1,Pin_1*%
%TO.N,Net-(J5-Pin_1)*%
X31010000Y-26750000D03*
D11*
%TO.P,J5,2,Pin_2*%
%TO.N,Net-(J5-Pin_2)*%
X33550000Y-26750000D03*
%TO.P,J5,3,Pin_3*%
%TO.N,Net-(J5-Pin_3)*%
X36090000Y-26750000D03*
%TO.P,J5,4,Pin_4*%
%TO.N,Net-(J5-Pin_4)*%
X38630000Y-26750000D03*
%TO.P,J5,5,Pin_5*%
%TO.N,Net-(J5-Pin_5)*%
X41170000Y-26750000D03*
%TO.P,J5,6,Pin_6*%
%TO.N,Net-(J5-Pin_6)*%
X43710000Y-26750000D03*
%TO.P,J5,7,Pin_7*%
%TO.N,Net-(J5-Pin_7)*%
X46250000Y-26750000D03*
%TO.P,J5,8,Pin_8*%
%TO.N,Net-(J5-Pin_8)*%
X48790000Y-26750000D03*
%TD*%
D13*
%TO.N,GND*%
X41020000Y-12940000D03*
X39860000Y-12940000D03*
X39860000Y-15170000D03*
X41020000Y-15170000D03*
X29665000Y-20995000D03*
X29665000Y-20140000D03*
X29665000Y-21850000D03*
%TO.N,/VCCA*%
X37620000Y-15170000D03*
D14*
X7470000Y-20480000D03*
D13*
X17170000Y-15170000D03*
%TO.N,/VCCB*%
X17170000Y-12750000D03*
D14*
X7460000Y-7570000D03*
D13*
X37610000Y-12840000D03*
%TD*%
D15*
%TO.N,GND*%
X34890000Y-20140000D02*
X39860000Y-15170000D01*
X41020000Y-12940000D02*
X41020000Y-15170000D01*
X39860000Y-15170000D02*
X39860000Y-12940000D01*
X29665000Y-20140000D02*
X34890000Y-20140000D01*
X29665000Y-20140000D02*
X29665000Y-21850000D01*
%TO.N,/VCCA*%
X29665000Y-16605000D02*
X31100000Y-15170000D01*
X7470000Y-20480000D02*
X11830000Y-20480000D01*
X28230000Y-15170000D02*
X29665000Y-16605000D01*
X31100000Y-15170000D02*
X37620000Y-15170000D01*
X17140000Y-15170000D02*
X28230000Y-15170000D01*
X11830000Y-20480000D02*
X17140000Y-15170000D01*
%TO.N,/VCCB*%
X11990000Y-7570000D02*
X7460000Y-7570000D01*
X24020000Y-12750000D02*
X27230000Y-9540000D01*
X34310000Y-9540000D02*
X37610000Y-12840000D01*
X27230000Y-9540000D02*
X34310000Y-9540000D01*
X17170000Y-12750000D02*
X11990000Y-7570000D01*
X17170000Y-12750000D02*
X24020000Y-12750000D01*
%TD*%
%TA.AperFunction,Conductor*%
%TO.N,GND*%
G36*
X9169096Y-280185D02*
G01*
X9214851Y-332989D01*
X9225346Y-397756D01*
X9219500Y-452119D01*
X9219500Y-2247870D01*
X9219501Y-2247876D01*
X9225908Y-2307483D01*
X9276202Y-2442328D01*
X9276206Y-2442335D01*
X9362452Y-2557544D01*
X9362455Y-2557547D01*
X9477664Y-2643793D01*
X9477671Y-2643797D01*
X9612517Y-2694091D01*
X9612516Y-2694091D01*
X9619444Y-2694835D01*
X9672127Y-2700500D01*
X11467872Y-2700499D01*
X11527483Y-2694091D01*
X11662331Y-2643796D01*
X11777546Y-2557546D01*
X11863796Y-2442331D01*
X11912810Y-2310916D01*
X11954681Y-2254984D01*
X12020145Y-2230566D01*
X12088418Y-2245417D01*
X12116673Y-2266569D01*
X12238599Y-2388495D01*
X12335384Y-2456265D01*
X12432165Y-2524032D01*
X12432167Y-2524033D01*
X12432170Y-2524035D01*
X12646337Y-2623903D01*
X12874592Y-2685063D01*
X13051034Y-2700500D01*
X13109999Y-2705659D01*
X13110000Y-2705659D01*
X13110001Y-2705659D01*
X13168966Y-2700500D01*
X13345408Y-2685063D01*
X13573663Y-2623903D01*
X13787830Y-2524035D01*
X13981401Y-2388495D01*
X14148495Y-2221401D01*
X14278425Y-2035842D01*
X14333002Y-1992217D01*
X14402500Y-1985023D01*
X14464855Y-2016546D01*
X14481575Y-2035842D01*
X14611500Y-2221395D01*
X14611505Y-2221401D01*
X14778599Y-2388495D01*
X14875384Y-2456265D01*
X14972165Y-2524032D01*
X14972167Y-2524033D01*
X14972170Y-2524035D01*
X15186337Y-2623903D01*
X15414592Y-2685063D01*
X15591034Y-2700500D01*
X15649999Y-2705659D01*
X15650000Y-2705659D01*
X15650001Y-2705659D01*
X15708966Y-2700500D01*
X15885408Y-2685063D01*
X16113663Y-2623903D01*
X16327830Y-2524035D01*
X16521401Y-2388495D01*
X16688495Y-2221401D01*
X16818425Y-2035842D01*
X16873002Y-1992217D01*
X16942500Y-1985023D01*
X17004855Y-2016546D01*
X17021575Y-2035842D01*
X17151500Y-2221395D01*
X17151505Y-2221401D01*
X17318599Y-2388495D01*
X17415384Y-2456265D01*
X17512165Y-2524032D01*
X17512167Y-2524033D01*
X17512170Y-2524035D01*
X17726337Y-2623903D01*
X17954592Y-2685063D01*
X18131034Y-2700500D01*
X18189999Y-2705659D01*
X18190000Y-2705659D01*
X18190001Y-2705659D01*
X18248966Y-2700500D01*
X18425408Y-2685063D01*
X18653663Y-2623903D01*
X18867830Y-2524035D01*
X19061401Y-2388495D01*
X19228495Y-2221401D01*
X19358425Y-2035842D01*
X19413002Y-1992217D01*
X19482500Y-1985023D01*
X19544855Y-2016546D01*
X19561575Y-2035842D01*
X19691500Y-2221395D01*
X19691505Y-2221401D01*
X19858599Y-2388495D01*
X19955384Y-2456265D01*
X20052165Y-2524032D01*
X20052167Y-2524033D01*
X20052170Y-2524035D01*
X20266337Y-2623903D01*
X20494592Y-2685063D01*
X20671034Y-2700500D01*
X20729999Y-2705659D01*
X20730000Y-2705659D01*
X20730001Y-2705659D01*
X20788966Y-2700500D01*
X20965408Y-2685063D01*
X21193663Y-2623903D01*
X21407830Y-2524035D01*
X21601401Y-2388495D01*
X21768495Y-2221401D01*
X21898425Y-2035842D01*
X21953002Y-1992217D01*
X22022500Y-1985023D01*
X22084855Y-2016546D01*
X22101575Y-2035842D01*
X22231500Y-2221395D01*
X22231505Y-2221401D01*
X22398599Y-2388495D01*
X22495384Y-2456265D01*
X22592165Y-2524032D01*
X22592167Y-2524033D01*
X22592170Y-2524035D01*
X22806337Y-2623903D01*
X23034592Y-2685063D01*
X23211034Y-2700500D01*
X23269999Y-2705659D01*
X23270000Y-2705659D01*
X23270001Y-2705659D01*
X23328966Y-2700500D01*
X23505408Y-2685063D01*
X23733663Y-2623903D01*
X23947830Y-2524035D01*
X24141401Y-2388495D01*
X24308495Y-2221401D01*
X24438425Y-2035842D01*
X24493002Y-1992217D01*
X24562500Y-1985023D01*
X24624855Y-2016546D01*
X24641575Y-2035842D01*
X24771500Y-2221395D01*
X24771505Y-2221401D01*
X24938599Y-2388495D01*
X25035384Y-2456265D01*
X25132165Y-2524032D01*
X25132167Y-2524033D01*
X25132170Y-2524035D01*
X25346337Y-2623903D01*
X25574592Y-2685063D01*
X25751034Y-2700500D01*
X25809999Y-2705659D01*
X25810000Y-2705659D01*
X25810001Y-2705659D01*
X25868966Y-2700500D01*
X26045408Y-2685063D01*
X26273663Y-2623903D01*
X26487830Y-2524035D01*
X26681401Y-2388495D01*
X26848495Y-2221401D01*
X26978425Y-2035842D01*
X27033002Y-1992217D01*
X27102500Y-1985023D01*
X27164855Y-2016546D01*
X27181575Y-2035842D01*
X27311500Y-2221395D01*
X27311505Y-2221401D01*
X27478599Y-2388495D01*
X27575384Y-2456265D01*
X27672165Y-2524032D01*
X27672167Y-2524033D01*
X27672170Y-2524035D01*
X27886337Y-2623903D01*
X28114592Y-2685063D01*
X28291034Y-2700500D01*
X28349999Y-2705659D01*
X28350000Y-2705659D01*
X28350001Y-2705659D01*
X28408966Y-2700500D01*
X28585408Y-2685063D01*
X28813663Y-2623903D01*
X29027830Y-2524035D01*
X29221401Y-2388495D01*
X29388495Y-2221401D01*
X29433926Y-2156517D01*
X29488501Y-2112894D01*
X29557999Y-2105700D01*
X29620354Y-2137222D01*
X29655769Y-2197451D01*
X29659500Y-2227637D01*
X29659500Y-2247867D01*
X29659501Y-2247876D01*
X29665908Y-2307483D01*
X29716202Y-2442328D01*
X29716206Y-2442335D01*
X29802452Y-2557544D01*
X29802455Y-2557547D01*
X29917664Y-2643793D01*
X29917671Y-2643797D01*
X30052517Y-2694091D01*
X30052516Y-2694091D01*
X30059444Y-2694835D01*
X30112127Y-2700500D01*
X31907872Y-2700499D01*
X31967483Y-2694091D01*
X32102331Y-2643796D01*
X32217546Y-2557546D01*
X32303796Y-2442331D01*
X32352810Y-2310916D01*
X32394681Y-2254984D01*
X32460145Y-2230566D01*
X32528418Y-2245417D01*
X32556673Y-2266569D01*
X32678599Y-2388495D01*
X32775384Y-2456265D01*
X32872165Y-2524032D01*
X32872167Y-2524033D01*
X32872170Y-2524035D01*
X33086337Y-2623903D01*
X33314592Y-2685063D01*
X33491034Y-2700500D01*
X33549999Y-2705659D01*
X33550000Y-2705659D01*
X33550001Y-2705659D01*
X33608966Y-2700500D01*
X33785408Y-2685063D01*
X34013663Y-2623903D01*
X34227830Y-2524035D01*
X34421401Y-2388495D01*
X34588495Y-2221401D01*
X34718425Y-2035842D01*
X34773002Y-1992217D01*
X34842500Y-1985023D01*
X34904855Y-2016546D01*
X34921575Y-2035842D01*
X35051500Y-2221395D01*
X35051505Y-2221401D01*
X35218599Y-2388495D01*
X35315384Y-2456265D01*
X35412165Y-2524032D01*
X35412167Y-2524033D01*
X35412170Y-2524035D01*
X35626337Y-2623903D01*
X35854592Y-2685063D01*
X36031034Y-2700500D01*
X36089999Y-2705659D01*
X36090000Y-2705659D01*
X36090001Y-2705659D01*
X36148966Y-2700500D01*
X36325408Y-2685063D01*
X36553663Y-2623903D01*
X36767830Y-2524035D01*
X36961401Y-2388495D01*
X37128495Y-2221401D01*
X37258425Y-2035842D01*
X37313002Y-1992217D01*
X37382500Y-1985023D01*
X37444855Y-2016546D01*
X37461575Y-2035842D01*
X37591500Y-2221395D01*
X37591505Y-2221401D01*
X37758599Y-2388495D01*
X37855384Y-2456265D01*
X37952165Y-2524032D01*
X37952167Y-2524033D01*
X37952170Y-2524035D01*
X38166337Y-2623903D01*
X38394592Y-2685063D01*
X38571034Y-2700500D01*
X38629999Y-2705659D01*
X38630000Y-2705659D01*
X38630001Y-2705659D01*
X38688966Y-2700500D01*
X38865408Y-2685063D01*
X39093663Y-2623903D01*
X39307830Y-2524035D01*
X39501401Y-2388495D01*
X39668495Y-2221401D01*
X39798425Y-2035842D01*
X39853002Y-1992217D01*
X39922500Y-1985023D01*
X39984855Y-2016546D01*
X40001575Y-2035842D01*
X40131500Y-2221395D01*
X40131505Y-2221401D01*
X40298599Y-2388495D01*
X40395384Y-2456265D01*
X40492165Y-2524032D01*
X40492167Y-2524033D01*
X40492170Y-2524035D01*
X40706337Y-2623903D01*
X40934592Y-2685063D01*
X41111034Y-2700500D01*
X41169999Y-2705659D01*
X41170000Y-2705659D01*
X41170001Y-2705659D01*
X41228966Y-2700500D01*
X41405408Y-2685063D01*
X41633663Y-2623903D01*
X41847830Y-2524035D01*
X42041401Y-2388495D01*
X42208495Y-2221401D01*
X42338425Y-2035842D01*
X42393002Y-1992217D01*
X42462500Y-1985023D01*
X42524855Y-2016546D01*
X42541575Y-2035842D01*
X42671500Y-2221395D01*
X42671505Y-2221401D01*
X42838599Y-2388495D01*
X42935384Y-2456265D01*
X43032165Y-2524032D01*
X43032167Y-2524033D01*
X43032170Y-2524035D01*
X43246337Y-2623903D01*
X43474592Y-2685063D01*
X43651034Y-2700500D01*
X43709999Y-2705659D01*
X43710000Y-2705659D01*
X43710001Y-2705659D01*
X43768966Y-2700500D01*
X43945408Y-2685063D01*
X44173663Y-2623903D01*
X44387830Y-2524035D01*
X44581401Y-2388495D01*
X44748495Y-2221401D01*
X44878425Y-2035842D01*
X44933002Y-1992217D01*
X45002500Y-1985023D01*
X45064855Y-2016546D01*
X45081575Y-2035842D01*
X45211500Y-2221395D01*
X45211505Y-2221401D01*
X45378599Y-2388495D01*
X45475384Y-2456265D01*
X45572165Y-2524032D01*
X45572167Y-2524033D01*
X45572170Y-2524035D01*
X45786337Y-2623903D01*
X46014592Y-2685063D01*
X46191034Y-2700500D01*
X46249999Y-2705659D01*
X46250000Y-2705659D01*
X46250001Y-2705659D01*
X46308966Y-2700500D01*
X46485408Y-2685063D01*
X46713663Y-2623903D01*
X46927830Y-2524035D01*
X47121401Y-2388495D01*
X47288495Y-2221401D01*
X47418425Y-2035842D01*
X47473002Y-1992217D01*
X47542500Y-1985023D01*
X47604855Y-2016546D01*
X47621575Y-2035842D01*
X47751500Y-2221395D01*
X47751505Y-2221401D01*
X47918599Y-2388495D01*
X48015384Y-2456265D01*
X48112165Y-2524032D01*
X48112167Y-2524033D01*
X48112170Y-2524035D01*
X48326337Y-2623903D01*
X48554592Y-2685063D01*
X48731034Y-2700500D01*
X48789999Y-2705659D01*
X48790000Y-2705659D01*
X48790001Y-2705659D01*
X48848966Y-2700500D01*
X49025408Y-2685063D01*
X49253663Y-2623903D01*
X49467830Y-2524035D01*
X49661401Y-2388495D01*
X49828495Y-2221401D01*
X49964035Y-2027830D01*
X50063903Y-1813663D01*
X50125063Y-1585408D01*
X50145659Y-1350000D01*
X50125063Y-1114592D01*
X50063903Y-886337D01*
X49964035Y-672171D01*
X49958424Y-664158D01*
X49866473Y-532837D01*
X49844146Y-466631D01*
X49861156Y-398864D01*
X49912104Y-351051D01*
X49980814Y-338373D01*
X50002374Y-342559D01*
X50174118Y-392038D01*
X50246413Y-412866D01*
X50259537Y-417459D01*
X50531527Y-530120D01*
X50544049Y-536149D01*
X50742673Y-645925D01*
X50801726Y-678563D01*
X50813500Y-685961D01*
X50973876Y-799753D01*
X51044692Y-850000D01*
X51053604Y-856323D01*
X51064476Y-864993D01*
X51283997Y-1061169D01*
X51293830Y-1071002D01*
X51490006Y-1290523D01*
X51498676Y-1301395D01*
X51669038Y-1541499D01*
X51676436Y-1553273D01*
X51818846Y-1810943D01*
X51824879Y-1823472D01*
X51937540Y-2095462D01*
X51942133Y-2108586D01*
X52023636Y-2391489D01*
X52026730Y-2405046D01*
X52076045Y-2695288D01*
X52077602Y-2709107D01*
X52091435Y-2955449D01*
X52089767Y-2979234D01*
X52090097Y-2979267D01*
X52089500Y-2985328D01*
X52089500Y-25086519D01*
X52089305Y-25093472D01*
X52072602Y-25390893D01*
X52071045Y-25404711D01*
X52021730Y-25694953D01*
X52018636Y-25708510D01*
X51937133Y-25991413D01*
X51932540Y-26004537D01*
X51819879Y-26276527D01*
X51813846Y-26289056D01*
X51671436Y-26546726D01*
X51664038Y-26558500D01*
X51493676Y-26798604D01*
X51485006Y-26809476D01*
X51288830Y-27028997D01*
X51278997Y-27038830D01*
X51059476Y-27235006D01*
X51048604Y-27243676D01*
X50808500Y-27414038D01*
X50796726Y-27421436D01*
X50539056Y-27563846D01*
X50526527Y-27569879D01*
X50254537Y-27682540D01*
X50241413Y-27687133D01*
X50003639Y-27755635D01*
X49933770Y-27755278D01*
X49875185Y-27717205D01*
X49846485Y-27653502D01*
X49856781Y-27584395D01*
X49867737Y-27565357D01*
X49868795Y-27563846D01*
X49964035Y-27427830D01*
X50063903Y-27213663D01*
X50125063Y-26985408D01*
X50145659Y-26750000D01*
X50125063Y-26514592D01*
X50063903Y-26286337D01*
X49964035Y-26072171D01*
X49958425Y-26064158D01*
X49828494Y-25878597D01*
X49661402Y-25711506D01*
X49661395Y-25711501D01*
X49657123Y-25708510D01*
X49584518Y-25657671D01*
X49467834Y-25575967D01*
X49467830Y-25575965D01*
X49396727Y-25542809D01*
X49253663Y-25476097D01*
X49253659Y-25476096D01*
X49253655Y-25476094D01*
X49025413Y-25414938D01*
X49025403Y-25414936D01*
X48790001Y-25394341D01*
X48789999Y-25394341D01*
X48554596Y-25414936D01*
X48554586Y-25414938D01*
X48326344Y-25476094D01*
X48326335Y-25476098D01*
X48112171Y-25575964D01*
X48112169Y-25575965D01*
X47918597Y-25711505D01*
X47751505Y-25878597D01*
X47621575Y-26064158D01*
X47566998Y-26107783D01*
X47497500Y-26114977D01*
X47435145Y-26083454D01*
X47418425Y-26064158D01*
X47288494Y-25878597D01*
X47121402Y-25711506D01*
X47121395Y-25711501D01*
X47117123Y-25708510D01*
X47044518Y-25657671D01*
X46927834Y-25575967D01*
X46927830Y-25575965D01*
X46856727Y-25542809D01*
X46713663Y-25476097D01*
X46713659Y-25476096D01*
X46713655Y-25476094D01*
X46485413Y-25414938D01*
X46485403Y-25414936D01*
X46250001Y-25394341D01*
X46249999Y-25394341D01*
X46014596Y-25414936D01*
X46014586Y-25414938D01*
X45786344Y-25476094D01*
X45786335Y-25476098D01*
X45572171Y-25575964D01*
X45572169Y-25575965D01*
X45378597Y-25711505D01*
X45211505Y-25878597D01*
X45081575Y-26064158D01*
X45026998Y-26107783D01*
X44957500Y-26114977D01*
X44895145Y-26083454D01*
X44878425Y-26064158D01*
X44748494Y-25878597D01*
X44581402Y-25711506D01*
X44581395Y-25711501D01*
X44577123Y-25708510D01*
X44504518Y-25657671D01*
X44387834Y-25575967D01*
X44387830Y-25575965D01*
X44316727Y-25542809D01*
X44173663Y-25476097D01*
X44173659Y-25476096D01*
X44173655Y-25476094D01*
X43945413Y-25414938D01*
X43945403Y-25414936D01*
X43710001Y-25394341D01*
X43709999Y-25394341D01*
X43474596Y-25414936D01*
X43474586Y-25414938D01*
X43246344Y-25476094D01*
X43246335Y-25476098D01*
X43032171Y-25575964D01*
X43032169Y-25575965D01*
X42838597Y-25711505D01*
X42671505Y-25878597D01*
X42541575Y-26064158D01*
X42486998Y-26107783D01*
X42417500Y-26114977D01*
X42355145Y-26083454D01*
X42338425Y-26064158D01*
X42208494Y-25878597D01*
X42041402Y-25711506D01*
X42041395Y-25711501D01*
X42037123Y-25708510D01*
X41964518Y-25657671D01*
X41847834Y-25575967D01*
X41847830Y-25575965D01*
X41776727Y-25542809D01*
X41633663Y-25476097D01*
X41633659Y-25476096D01*
X41633655Y-25476094D01*
X41405413Y-25414938D01*
X41405403Y-25414936D01*
X41170001Y-25394341D01*
X41169999Y-25394341D01*
X40934596Y-25414936D01*
X40934586Y-25414938D01*
X40706344Y-25476094D01*
X40706335Y-25476098D01*
X40492171Y-25575964D01*
X40492169Y-25575965D01*
X40298597Y-25711505D01*
X40131505Y-25878597D01*
X40001575Y-26064158D01*
X39946998Y-26107783D01*
X39877500Y-26114977D01*
X39815145Y-26083454D01*
X39798425Y-26064158D01*
X39668494Y-25878597D01*
X39501402Y-25711506D01*
X39501395Y-25711501D01*
X39497123Y-25708510D01*
X39424518Y-25657671D01*
X39307834Y-25575967D01*
X39307830Y-25575965D01*
X39236727Y-25542809D01*
X39093663Y-25476097D01*
X39093659Y-25476096D01*
X39093655Y-25476094D01*
X38865413Y-25414938D01*
X38865403Y-25414936D01*
X38630001Y-25394341D01*
X38629999Y-25394341D01*
X38394596Y-25414936D01*
X38394586Y-25414938D01*
X38166344Y-25476094D01*
X38166335Y-25476098D01*
X37952171Y-25575964D01*
X37952169Y-25575965D01*
X37758597Y-25711505D01*
X37591505Y-25878597D01*
X37461575Y-26064158D01*
X37406998Y-26107783D01*
X37337500Y-26114977D01*
X37275145Y-26083454D01*
X37258425Y-26064158D01*
X37128494Y-25878597D01*
X36961402Y-25711506D01*
X36961395Y-25711501D01*
X36957123Y-25708510D01*
X36884518Y-25657671D01*
X36767834Y-25575967D01*
X36767830Y-25575965D01*
X36696727Y-25542809D01*
X36553663Y-25476097D01*
X36553659Y-25476096D01*
X36553655Y-25476094D01*
X36325413Y-25414938D01*
X36325403Y-25414936D01*
X36090001Y-25394341D01*
X36089999Y-25394341D01*
X35854596Y-25414936D01*
X35854586Y-25414938D01*
X35626344Y-25476094D01*
X35626335Y-25476098D01*
X35412171Y-25575964D01*
X35412169Y-25575965D01*
X35218597Y-25711505D01*
X35051505Y-25878597D01*
X34921575Y-26064158D01*
X34866998Y-26107783D01*
X34797500Y-26114977D01*
X34735145Y-26083454D01*
X34718425Y-26064158D01*
X34588494Y-25878597D01*
X34421402Y-25711506D01*
X34421395Y-25711501D01*
X34417123Y-25708510D01*
X34344518Y-25657671D01*
X34227834Y-25575967D01*
X34227830Y-25575965D01*
X34156727Y-25542809D01*
X34013663Y-25476097D01*
X34013659Y-25476096D01*
X34013655Y-25476094D01*
X33785413Y-25414938D01*
X33785403Y-25414936D01*
X33550001Y-25394341D01*
X33549999Y-25394341D01*
X33314596Y-25414936D01*
X33314586Y-25414938D01*
X33086344Y-25476094D01*
X33086335Y-25476098D01*
X32872171Y-25575964D01*
X32872169Y-25575965D01*
X32678600Y-25711503D01*
X32556673Y-25833430D01*
X32495350Y-25866914D01*
X32425658Y-25861930D01*
X32369725Y-25820058D01*
X32352810Y-25789081D01*
X32303797Y-25657671D01*
X32303793Y-25657664D01*
X32217547Y-25542455D01*
X32217544Y-25542452D01*
X32102335Y-25456206D01*
X32102328Y-25456202D01*
X31967482Y-25405908D01*
X31967483Y-25405908D01*
X31907883Y-25399501D01*
X31907881Y-25399500D01*
X31907873Y-25399500D01*
X31907864Y-25399500D01*
X30112129Y-25399500D01*
X30112123Y-25399501D01*
X30052516Y-25405908D01*
X29917671Y-25456202D01*
X29917664Y-25456206D01*
X29802455Y-25542452D01*
X29802452Y-25542455D01*
X29716206Y-25657664D01*
X29716202Y-25657671D01*
X29665908Y-25792517D01*
X29659501Y-25852116D01*
X29659500Y-25852135D01*
X29659500Y-25872356D01*
X29639815Y-25939395D01*
X29587011Y-25985150D01*
X29517853Y-25995094D01*
X29454297Y-25966069D01*
X29433925Y-25943480D01*
X29388491Y-25878594D01*
X29221402Y-25711506D01*
X29221395Y-25711501D01*
X29217123Y-25708510D01*
X29144518Y-25657671D01*
X29027834Y-25575967D01*
X29027830Y-25575965D01*
X28956727Y-25542809D01*
X28813663Y-25476097D01*
X28813659Y-25476096D01*
X28813655Y-25476094D01*
X28585413Y-25414938D01*
X28585403Y-25414936D01*
X28350001Y-25394341D01*
X28349999Y-25394341D01*
X28114596Y-25414936D01*
X28114586Y-25414938D01*
X27886344Y-25476094D01*
X27886335Y-25476098D01*
X27672171Y-25575964D01*
X27672169Y-25575965D01*
X27478597Y-25711505D01*
X27311505Y-25878597D01*
X27181575Y-26064158D01*
X27126998Y-26107783D01*
X27057500Y-26114977D01*
X26995145Y-26083454D01*
X26978425Y-26064158D01*
X26848494Y-25878597D01*
X26681402Y-25711506D01*
X26681395Y-25711501D01*
X26677123Y-25708510D01*
X26604518Y-25657671D01*
X26487834Y-25575967D01*
X26487830Y-25575965D01*
X26416727Y-25542809D01*
X26273663Y-25476097D01*
X26273659Y-25476096D01*
X26273655Y-25476094D01*
X26045413Y-25414938D01*
X26045403Y-25414936D01*
X25810001Y-25394341D01*
X25809999Y-25394341D01*
X25574596Y-25414936D01*
X25574586Y-25414938D01*
X25346344Y-25476094D01*
X25346335Y-25476098D01*
X25132171Y-25575964D01*
X25132169Y-25575965D01*
X24938597Y-25711505D01*
X24771505Y-25878597D01*
X24641575Y-26064158D01*
X24586998Y-26107783D01*
X24517500Y-26114977D01*
X24455145Y-26083454D01*
X24438425Y-26064158D01*
X24308494Y-25878597D01*
X24141402Y-25711506D01*
X24141395Y-25711501D01*
X24137123Y-25708510D01*
X24064518Y-25657671D01*
X23947834Y-25575967D01*
X23947830Y-25575965D01*
X23876727Y-25542809D01*
X23733663Y-25476097D01*
X23733659Y-25476096D01*
X23733655Y-25476094D01*
X23505413Y-25414938D01*
X23505403Y-25414936D01*
X23270001Y-25394341D01*
X23269999Y-25394341D01*
X23034596Y-25414936D01*
X23034586Y-25414938D01*
X22806344Y-25476094D01*
X22806335Y-25476098D01*
X22592171Y-25575964D01*
X22592169Y-25575965D01*
X22398597Y-25711505D01*
X22231505Y-25878597D01*
X22101575Y-26064158D01*
X22046998Y-26107783D01*
X21977500Y-26114977D01*
X21915145Y-26083454D01*
X21898425Y-26064158D01*
X21768494Y-25878597D01*
X21601402Y-25711506D01*
X21601395Y-25711501D01*
X21597123Y-25708510D01*
X21524518Y-25657671D01*
X21407834Y-25575967D01*
X21407830Y-25575965D01*
X21336727Y-25542809D01*
X21193663Y-25476097D01*
X21193659Y-25476096D01*
X21193655Y-25476094D01*
X20965413Y-25414938D01*
X20965403Y-25414936D01*
X20730001Y-25394341D01*
X20729999Y-25394341D01*
X20494596Y-25414936D01*
X20494586Y-25414938D01*
X20266344Y-25476094D01*
X20266335Y-25476098D01*
X20052171Y-25575964D01*
X20052169Y-25575965D01*
X19858597Y-25711505D01*
X19691505Y-25878597D01*
X19561575Y-26064158D01*
X19506998Y-26107783D01*
X19437500Y-26114977D01*
X19375145Y-26083454D01*
X19358425Y-26064158D01*
X19228494Y-25878597D01*
X19061402Y-25711506D01*
X19061395Y-25711501D01*
X19057123Y-25708510D01*
X18984518Y-25657671D01*
X18867834Y-25575967D01*
X18867830Y-25575965D01*
X18796727Y-25542809D01*
X18653663Y-25476097D01*
X18653659Y-25476096D01*
X18653655Y-25476094D01*
X18425413Y-25414938D01*
X18425403Y-25414936D01*
X18190001Y-25394341D01*
X18189999Y-25394341D01*
X17954596Y-25414936D01*
X17954586Y-25414938D01*
X17726344Y-25476094D01*
X17726335Y-25476098D01*
X17512171Y-25575964D01*
X17512169Y-25575965D01*
X17318597Y-25711505D01*
X17151505Y-25878597D01*
X17021575Y-26064158D01*
X16966998Y-26107783D01*
X16897500Y-26114977D01*
X16835145Y-26083454D01*
X16818425Y-26064158D01*
X16688494Y-25878597D01*
X16521402Y-25711506D01*
X16521395Y-25711501D01*
X16517123Y-25708510D01*
X16444518Y-25657671D01*
X16327834Y-25575967D01*
X16327830Y-25575965D01*
X16256727Y-25542809D01*
X16113663Y-25476097D01*
X16113659Y-25476096D01*
X16113655Y-25476094D01*
X15885413Y-25414938D01*
X15885403Y-25414936D01*
X15650001Y-25394341D01*
X15649999Y-25394341D01*
X15414596Y-25414936D01*
X15414586Y-25414938D01*
X15186344Y-25476094D01*
X15186335Y-25476098D01*
X14972171Y-25575964D01*
X14972169Y-25575965D01*
X14778597Y-25711505D01*
X14611505Y-25878597D01*
X14481575Y-26064158D01*
X14426998Y-26107783D01*
X14357500Y-26114977D01*
X14295145Y-26083454D01*
X14278425Y-26064158D01*
X14148494Y-25878597D01*
X13981402Y-25711506D01*
X13981395Y-25711501D01*
X13977123Y-25708510D01*
X13904518Y-25657671D01*
X13787834Y-25575967D01*
X13787830Y-25575965D01*
X13716727Y-25542809D01*
X13573663Y-25476097D01*
X13573659Y-25476096D01*
X13573655Y-25476094D01*
X13345413Y-25414938D01*
X13345403Y-25414936D01*
X13110001Y-25394341D01*
X13109999Y-25394341D01*
X12874596Y-25414936D01*
X12874586Y-25414938D01*
X12646344Y-25476094D01*
X12646335Y-25476098D01*
X12432171Y-25575964D01*
X12432169Y-25575965D01*
X12238600Y-25711503D01*
X12116673Y-25833430D01*
X12055350Y-25866914D01*
X11985658Y-25861930D01*
X11929725Y-25820058D01*
X11912810Y-25789081D01*
X11863797Y-25657671D01*
X11863793Y-25657664D01*
X11777547Y-25542455D01*
X11777544Y-25542452D01*
X11662335Y-25456206D01*
X11662328Y-25456202D01*
X11527482Y-25405908D01*
X11527483Y-25405908D01*
X11467883Y-25399501D01*
X11467881Y-25399500D01*
X11467873Y-25399500D01*
X11467864Y-25399500D01*
X9672129Y-25399500D01*
X9672123Y-25399501D01*
X9612516Y-25405908D01*
X9477671Y-25456202D01*
X9477664Y-25456206D01*
X9362455Y-25542452D01*
X9362452Y-25542455D01*
X9276206Y-25657664D01*
X9276202Y-25657671D01*
X9225908Y-25792517D01*
X9219501Y-25852116D01*
X9219500Y-25852135D01*
X9219500Y-27647870D01*
X9219501Y-27647876D01*
X9225346Y-27702247D01*
X9212939Y-27771006D01*
X9165328Y-27822143D01*
X9102056Y-27839500D01*
X4164758Y-27839500D01*
X4097719Y-27819815D01*
X4051964Y-27767011D01*
X4042020Y-27697853D01*
X4071045Y-27634297D01*
X4077077Y-27627819D01*
X4083495Y-27621401D01*
X4219035Y-27427830D01*
X4318903Y-27213663D01*
X4380063Y-26985408D01*
X4400659Y-26750000D01*
X4380063Y-26514592D01*
X4318903Y-26286337D01*
X4219035Y-26072171D01*
X4213425Y-26064158D01*
X4083494Y-25878597D01*
X3916402Y-25711506D01*
X3916395Y-25711501D01*
X3912123Y-25708510D01*
X3839518Y-25657671D01*
X3722834Y-25575967D01*
X3722830Y-25575965D01*
X3651727Y-25542809D01*
X3508663Y-25476097D01*
X3508659Y-25476096D01*
X3508655Y-25476094D01*
X3280413Y-25414938D01*
X3280403Y-25414936D01*
X3045001Y-25394341D01*
X3044999Y-25394341D01*
X2809596Y-25414936D01*
X2809586Y-25414938D01*
X2581344Y-25476094D01*
X2581335Y-25476098D01*
X2367171Y-25575964D01*
X2367169Y-25575965D01*
X2173600Y-25711503D01*
X2051284Y-25833819D01*
X1989961Y-25867303D01*
X1920269Y-25862319D01*
X1864336Y-25820447D01*
X1847421Y-25789470D01*
X1798354Y-25657913D01*
X1798350Y-25657906D01*
X1712190Y-25542812D01*
X1712187Y-25542809D01*
X1597093Y-25456649D01*
X1597086Y-25456645D01*
X1462379Y-25406403D01*
X1462372Y-25406401D01*
X1402844Y-25400000D01*
X755000Y-25400000D01*
X755000Y-26314498D01*
X647315Y-26265320D01*
X540763Y-26250000D01*
X469237Y-26250000D01*
X362685Y-26265320D01*
X255000Y-26314498D01*
X255000Y-25400000D01*
X-392845Y-25400000D01*
X-452373Y-25406401D01*
X-452380Y-25406403D01*
X-587087Y-25456645D01*
X-587094Y-25456649D01*
X-702188Y-25542809D01*
X-702191Y-25542812D01*
X-788351Y-25657906D01*
X-788355Y-25657913D01*
X-838597Y-25792620D01*
X-838599Y-25792627D01*
X-845000Y-25852155D01*
X-845000Y-26500000D01*
X71314Y-26500000D01*
X45507Y-26540156D01*
X5000Y-26678111D01*
X5000Y-26821889D01*
X45507Y-26959844D01*
X71314Y-27000000D01*
X-845000Y-27000000D01*
X-845000Y-27527836D01*
X-864685Y-27594875D01*
X-917489Y-27640630D01*
X-986647Y-27650574D01*
X-1016452Y-27642397D01*
X-1191528Y-27569879D01*
X-1204057Y-27563846D01*
X-1461727Y-27421436D01*
X-1473501Y-27414038D01*
X-1713605Y-27243676D01*
X-1724477Y-27235006D01*
X-1943998Y-27038830D01*
X-1953831Y-27028997D01*
X-1989759Y-26988794D01*
X-2150007Y-26809476D01*
X-2158677Y-26798604D01*
X-2329039Y-26558500D01*
X-2336437Y-26546726D01*
X-2406917Y-26419202D01*
X-2478851Y-26289049D01*
X-2484880Y-26276527D01*
X-2597541Y-26004537D01*
X-2602134Y-25991413D01*
X-2683637Y-25708510D01*
X-2686731Y-25694953D01*
X-2693026Y-25657906D01*
X-2736047Y-25404703D01*
X-2737603Y-25390900D01*
X-2754305Y-25093471D01*
X-2754500Y-25086519D01*
X-2754500Y-21230003D01*
X-2185215Y-21230003D01*
X-2178339Y-21304214D01*
X-2177951Y-21309752D01*
X-2174255Y-21387328D01*
X-2174254Y-21387330D01*
X-2170532Y-21402675D01*
X-2167567Y-21420458D01*
X-2166397Y-21433083D01*
X-2150024Y-21490630D01*
X-2145055Y-21508094D01*
X-2143818Y-21512792D01*
X-2124708Y-21591566D01*
X-2124703Y-21591579D01*
X-2119579Y-21602799D01*
X-2113109Y-21620369D01*
X-2110582Y-21629250D01*
X-2074273Y-21702170D01*
X-2072504Y-21705877D01*
X-2037395Y-21782756D01*
X-2032247Y-21789984D01*
X-2022252Y-21806643D01*
X-2019673Y-21811821D01*
X-1968506Y-21879577D01*
X-1966525Y-21882277D01*
X-1915486Y-21953952D01*
X-1911557Y-21957698D01*
X-1898178Y-21972707D01*
X-1896764Y-21974579D01*
X-1831459Y-22034111D01*
X-1829496Y-22035943D01*
X-1796422Y-22067478D01*
X-1763377Y-22098987D01*
X-1761715Y-22100055D01*
X-1750648Y-22108559D01*
X-1750620Y-22108523D01*
X-1746049Y-22111974D01*
X-1746041Y-22111981D01*
X-1683505Y-22150701D01*
X-1668054Y-22160268D01*
X-1666291Y-22161380D01*
X-1586571Y-22212614D01*
X-1581316Y-22215323D01*
X-1581353Y-22215394D01*
X-1577936Y-22217120D01*
X-1577771Y-22216791D01*
X-1572646Y-22219342D01*
X-1572637Y-22219348D01*
X-1572629Y-22219351D01*
X-1483909Y-22253722D01*
X-1482648Y-22254217D01*
X-1391457Y-22290725D01*
X-1391455Y-22290725D01*
X-1391453Y-22290726D01*
X-1389468Y-22291309D01*
X-1383415Y-22292750D01*
X-1382474Y-22293017D01*
X-1382456Y-22293024D01*
X-1285405Y-22311165D01*
X-1284990Y-22311244D01*
X-1185085Y-22330500D01*
X-978024Y-22330500D01*
X-931742Y-22321847D01*
X-920764Y-22320300D01*
X-870782Y-22315528D01*
X-829209Y-22303320D01*
X-817092Y-22300415D01*
X-777544Y-22293024D01*
X-730412Y-22274764D01*
X-720595Y-22271428D01*
X-669125Y-22256316D01*
X-633671Y-22238037D01*
X-621668Y-22232637D01*
X-587363Y-22219348D01*
X-541491Y-22190943D01*
X-533045Y-22186160D01*
X-482318Y-22160011D01*
X-453663Y-22137474D01*
X-442305Y-22129531D01*
X-413959Y-22111981D01*
X-371534Y-22073304D01*
X-364674Y-22067492D01*
X-317114Y-22030092D01*
X-295504Y-22005150D01*
X-285343Y-21994730D01*
X-263236Y-21974579D01*
X-226571Y-21926024D01*
X-221350Y-21919572D01*
X-179481Y-21871256D01*
X-164701Y-21845653D01*
X-156276Y-21832938D01*
X-140327Y-21811821D01*
X-111667Y-21754260D01*
X-108089Y-21747598D01*
X-74396Y-21689244D01*
X-65854Y-21664563D01*
X-59677Y-21649851D01*
X-49418Y-21629250D01*
X-30890Y-21564127D01*
X-28814Y-21557542D01*
X-5656Y-21490633D01*
X-2430Y-21468186D01*
X1039Y-21451911D01*
X6397Y-21433083D01*
X12958Y-21362259D01*
X13685Y-21356100D01*
X24254Y-21282602D01*
X23339Y-21263399D01*
X23727Y-21246052D01*
X25215Y-21230000D01*
X18336Y-21155773D01*
X17948Y-21150240D01*
X14254Y-21072669D01*
X10534Y-21057338D01*
X7565Y-21039531D01*
X6397Y-21026917D01*
X-14946Y-20951905D01*
X-16177Y-20947233D01*
X-28645Y-20895840D01*
X-35296Y-20868424D01*
X-40421Y-20857202D01*
X-46893Y-20839627D01*
X-49418Y-20830750D01*
X-79292Y-20770756D01*
X-85702Y-20757882D01*
X-87496Y-20754122D01*
X-109614Y-20705691D01*
X-122604Y-20677247D01*
X-127757Y-20670011D01*
X-137751Y-20653353D01*
X-140327Y-20648179D01*
X-140329Y-20648177D01*
X-140330Y-20648174D01*
X-191458Y-20580471D01*
X-193512Y-20577671D01*
X-244514Y-20506048D01*
X-248448Y-20502297D01*
X-261825Y-20487289D01*
X-263235Y-20485422D01*
X-263236Y-20485421D01*
X-328539Y-20425890D01*
X-330510Y-20424052D01*
X-396622Y-20361014D01*
X-398292Y-20359940D01*
X-409353Y-20351441D01*
X-409379Y-20351477D01*
X-413952Y-20348024D01*
X-413958Y-20348020D01*
X-413959Y-20348019D01*
X-491956Y-20299725D01*
X-493710Y-20298619D01*
X-511561Y-20287147D01*
X-573428Y-20247387D01*
X-573431Y-20247386D01*
X-573432Y-20247385D01*
X-578679Y-20244680D01*
X-578644Y-20244610D01*
X-582080Y-20242874D01*
X-582242Y-20243202D01*
X-587359Y-20240653D01*
X-635625Y-20221955D01*
X-676162Y-20206250D01*
X-677338Y-20205787D01*
X-768546Y-20169273D01*
X-770514Y-20168695D01*
X-776560Y-20167256D01*
X-777546Y-20166975D01*
X-874587Y-20148834D01*
X-875266Y-20148705D01*
X-974914Y-20129500D01*
X-974915Y-20129500D01*
X-978024Y-20129500D01*
X-1181976Y-20129500D01*
X-1181983Y-20129500D01*
X-1228266Y-20138151D01*
X-1239258Y-20139700D01*
X-1289215Y-20144471D01*
X-1330777Y-20156674D01*
X-1342919Y-20159584D01*
X-1376476Y-20165857D01*
X-1382456Y-20166976D01*
X-1382459Y-20166976D01*
X-1382466Y-20166979D01*
X-1429563Y-20185224D01*
X-1439418Y-20188573D01*
X-1490864Y-20203679D01*
X-1490885Y-20203688D01*
X-1526320Y-20221955D01*
X-1538338Y-20227363D01*
X-1572639Y-20240652D01*
X-1618508Y-20269053D01*
X-1626962Y-20273839D01*
X-1677678Y-20299986D01*
X-1706326Y-20322514D01*
X-1717694Y-20330466D01*
X-1746041Y-20348018D01*
X-1746044Y-20348020D01*
X-1788463Y-20386690D01*
X-1795348Y-20392522D01*
X-1842884Y-20429904D01*
X-1842886Y-20429906D01*
X-1864493Y-20454842D01*
X-1874663Y-20465271D01*
X-1896761Y-20485416D01*
X-1933423Y-20533964D01*
X-1938662Y-20540436D01*
X-1980517Y-20588740D01*
X-1995298Y-20614341D01*
X-2003726Y-20627060D01*
X-2019674Y-20648180D01*
X-2048312Y-20705691D01*
X-2051923Y-20712415D01*
X-2085603Y-20770752D01*
X-2085605Y-20770757D01*
X-2094146Y-20795435D01*
X-2100322Y-20810143D01*
X-2110584Y-20830754D01*
X-2110584Y-20830755D01*
X-2129104Y-20895840D01*
X-2131188Y-20902456D01*
X-2154344Y-20969365D01*
X-2154345Y-20969369D01*
X-2157573Y-20991816D01*
X-2161042Y-21008094D01*
X-2166397Y-21026916D01*
X-2166397Y-21026917D01*
X-2172959Y-21097726D01*
X-2173692Y-21103929D01*
X-2184254Y-21177396D01*
X-2184255Y-21177401D01*
X-2183340Y-21196616D01*
X-2183728Y-21213944D01*
X-2185215Y-21230002D01*
X-2185215Y-21230003D01*
X-2754500Y-21230003D01*
X-2754500Y-6930003D01*
X-2195215Y-6930003D01*
X-2188339Y-7004214D01*
X-2187951Y-7009752D01*
X-2184255Y-7087328D01*
X-2184254Y-7087330D01*
X-2180532Y-7102675D01*
X-2177567Y-7120458D01*
X-2176397Y-7133083D01*
X-2160024Y-7190630D01*
X-2155055Y-7208094D01*
X-2153818Y-7212792D01*
X-2134708Y-7291566D01*
X-2134703Y-7291579D01*
X-2129579Y-7302799D01*
X-2123109Y-7320369D01*
X-2120582Y-7329250D01*
X-2084273Y-7402170D01*
X-2082504Y-7405877D01*
X-2047395Y-7482756D01*
X-2042247Y-7489984D01*
X-2032252Y-7506643D01*
X-2029673Y-7511821D01*
X-1978506Y-7579577D01*
X-1976525Y-7582277D01*
X-1925486Y-7653952D01*
X-1921557Y-7657698D01*
X-1908178Y-7672707D01*
X-1906764Y-7674579D01*
X-1841459Y-7734111D01*
X-1839496Y-7735943D01*
X-1806422Y-7767478D01*
X-1773377Y-7798987D01*
X-1771715Y-7800055D01*
X-1760648Y-7808559D01*
X-1760620Y-7808523D01*
X-1756049Y-7811974D01*
X-1756041Y-7811981D01*
X-1693505Y-7850701D01*
X-1678054Y-7860268D01*
X-1676291Y-7861380D01*
X-1596571Y-7912614D01*
X-1591316Y-7915323D01*
X-1591353Y-7915394D01*
X-1587936Y-7917120D01*
X-1587771Y-7916791D01*
X-1582646Y-7919342D01*
X-1582637Y-7919348D01*
X-1582629Y-7919351D01*
X-1493909Y-7953722D01*
X-1492648Y-7954217D01*
X-1401457Y-7990725D01*
X-1401455Y-7990725D01*
X-1401453Y-7990726D01*
X-1399468Y-7991309D01*
X-1393415Y-7992750D01*
X-1392474Y-7993017D01*
X-1392456Y-7993024D01*
X-1295405Y-8011165D01*
X-1294990Y-8011244D01*
X-1195085Y-8030500D01*
X-988024Y-8030500D01*
X-941742Y-8021847D01*
X-930764Y-8020300D01*
X-880782Y-8015528D01*
X-839209Y-8003320D01*
X-827092Y-8000415D01*
X-787544Y-7993024D01*
X-740412Y-7974764D01*
X-730595Y-7971428D01*
X-679125Y-7956316D01*
X-643671Y-7938037D01*
X-631668Y-7932637D01*
X-597363Y-7919348D01*
X-551491Y-7890943D01*
X-543045Y-7886160D01*
X-492318Y-7860011D01*
X-463663Y-7837474D01*
X-452305Y-7829531D01*
X-423959Y-7811981D01*
X-381534Y-7773304D01*
X-374674Y-7767492D01*
X-327114Y-7730092D01*
X-305504Y-7705150D01*
X-295343Y-7694730D01*
X-273236Y-7674579D01*
X-236571Y-7626024D01*
X-231350Y-7619572D01*
X-189481Y-7571256D01*
X-188756Y-7570000D01*
X6504901Y-7570000D01*
X6523252Y-7756331D01*
X6523253Y-7756333D01*
X6577604Y-7935502D01*
X6665862Y-8100623D01*
X6665864Y-8100626D01*
X6784642Y-8245357D01*
X6929373Y-8364135D01*
X6929376Y-8364137D01*
X7094497Y-8452395D01*
X7094499Y-8452396D01*
X7273666Y-8506746D01*
X7273668Y-8506747D01*
X7290374Y-8508392D01*
X7460000Y-8525099D01*
X7646331Y-8506747D01*
X7730673Y-8481160D01*
X7749738Y-8477540D01*
X7749673Y-8477112D01*
X7754050Y-8476438D01*
X7754064Y-8476437D01*
X8425190Y-8323595D01*
X8452725Y-8320500D01*
X11627770Y-8320500D01*
X11694809Y-8340185D01*
X11715451Y-8356819D01*
X16087954Y-12729321D01*
X16099473Y-12742602D01*
X16460699Y-13224236D01*
X16468885Y-13236635D01*
X16478136Y-13252657D01*
X16478142Y-13252666D01*
X16497652Y-13274335D01*
X16504700Y-13282904D01*
X16510042Y-13290026D01*
X16532113Y-13317414D01*
X16533176Y-13318643D01*
X16564339Y-13348827D01*
X16570192Y-13354898D01*
X16597770Y-13385526D01*
X16742407Y-13490612D01*
X16905733Y-13563329D01*
X17080609Y-13600500D01*
X17080610Y-13600500D01*
X17259388Y-13600500D01*
X17259391Y-13600500D01*
X17293167Y-13593320D01*
X17301367Y-13591864D01*
X17931443Y-13501855D01*
X17931473Y-13501850D01*
X17932202Y-13501746D01*
X17949738Y-13500500D01*
X23956295Y-13500500D01*
X23974265Y-13501809D01*
X23998023Y-13505289D01*
X24047369Y-13500971D01*
X24058176Y-13500500D01*
X24063704Y-13500500D01*
X24063709Y-13500500D01*
X24094556Y-13496893D01*
X24098030Y-13496539D01*
X24172797Y-13489999D01*
X24172805Y-13489996D01*
X24179866Y-13488539D01*
X24179878Y-13488598D01*
X24187243Y-13486965D01*
X24187229Y-13486906D01*
X24194249Y-13485241D01*
X24194255Y-13485241D01*
X24264779Y-13459572D01*
X24268117Y-13458412D01*
X24339334Y-13434814D01*
X24339342Y-13434808D01*
X24345882Y-13431760D01*
X24345908Y-13431816D01*
X24352690Y-13428532D01*
X24352663Y-13428478D01*
X24359113Y-13425238D01*
X24359117Y-13425237D01*
X24421837Y-13383984D01*
X24424732Y-13382140D01*
X24488656Y-13342712D01*
X24488662Y-13342705D01*
X24494325Y-13338229D01*
X24494362Y-13338277D01*
X24500204Y-13333518D01*
X24500164Y-13333471D01*
X24505686Y-13328835D01*
X24505696Y-13328830D01*
X24557185Y-13274253D01*
X24559632Y-13271734D01*
X27504548Y-10326819D01*
X27565871Y-10293334D01*
X27592229Y-10290500D01*
X28245636Y-10290500D01*
X28312675Y-10310185D01*
X28358430Y-10362989D01*
X28368374Y-10432147D01*
X28361818Y-10457833D01*
X28320908Y-10567517D01*
X28314501Y-10627116D01*
X28314501Y-10627123D01*
X28314500Y-10627135D01*
X28314500Y-12422870D01*
X28314501Y-12422876D01*
X28320908Y-12482483D01*
X28371202Y-12617328D01*
X28371206Y-12617335D01*
X28457452Y-12732544D01*
X28457455Y-12732547D01*
X28572664Y-12818793D01*
X28572671Y-12818797D01*
X28704081Y-12867810D01*
X28760015Y-12909681D01*
X28784432Y-12975145D01*
X28769580Y-13043418D01*
X28748430Y-13071673D01*
X28626503Y-13193600D01*
X28490965Y-13387169D01*
X28490964Y-13387171D01*
X28391098Y-13601335D01*
X28391094Y-13601344D01*
X28329938Y-13829586D01*
X28329936Y-13829596D01*
X28309341Y-14064999D01*
X28309341Y-14065000D01*
X28328562Y-14284692D01*
X28314795Y-14353192D01*
X28266180Y-14403375D01*
X28205034Y-14419500D01*
X17949731Y-14419500D01*
X17932194Y-14418254D01*
X17931449Y-14418147D01*
X17931444Y-14418146D01*
X17589759Y-14369333D01*
X17301386Y-14328136D01*
X17293145Y-14326673D01*
X17259394Y-14319500D01*
X17259391Y-14319500D01*
X17243008Y-14319500D01*
X17229756Y-14318790D01*
X17228765Y-14318683D01*
X17219780Y-14317717D01*
X17218184Y-14317602D01*
X17218168Y-14317601D01*
X17123035Y-14319126D01*
X17117360Y-14319500D01*
X17080609Y-14319500D01*
X17049954Y-14326015D01*
X16905733Y-14356670D01*
X16905728Y-14356672D01*
X16742408Y-14429388D01*
X16742403Y-14429390D01*
X16597776Y-14534468D01*
X16597768Y-14534475D01*
X16547253Y-14590576D01*
X16540117Y-14597874D01*
X16518981Y-14617778D01*
X16518979Y-14617780D01*
X16492314Y-14651254D01*
X16487485Y-14656956D01*
X16478140Y-14667336D01*
X16475149Y-14671453D01*
X16468778Y-14680801D01*
X16097354Y-15147083D01*
X16089524Y-15157440D01*
X16078297Y-15170333D01*
X11555451Y-19693181D01*
X11494128Y-19726666D01*
X11467770Y-19729500D01*
X8462729Y-19729500D01*
X8435194Y-19726404D01*
X7764064Y-19573562D01*
X7753374Y-19571249D01*
X7753373Y-19571248D01*
X7748720Y-19570242D01*
X7748740Y-19570148D01*
X7735298Y-19567206D01*
X7656331Y-19543253D01*
X7656321Y-19543252D01*
X7470000Y-19524901D01*
X7469999Y-19524901D01*
X7283668Y-19543252D01*
X7283666Y-19543253D01*
X7104497Y-19597604D01*
X6939376Y-19685862D01*
X6939373Y-19685864D01*
X6794642Y-19804642D01*
X6675864Y-19949373D01*
X6675862Y-19949376D01*
X6587604Y-20114497D01*
X6533253Y-20293666D01*
X6533252Y-20293668D01*
X6514901Y-20480000D01*
X6533252Y-20666331D01*
X6533253Y-20666333D01*
X6587604Y-20845502D01*
X6675862Y-21010623D01*
X6675864Y-21010626D01*
X6794642Y-21155357D01*
X6939373Y-21274135D01*
X6939376Y-21274137D01*
X7098441Y-21359158D01*
X7104499Y-21362396D01*
X7266227Y-21411456D01*
X7283666Y-21416746D01*
X7283668Y-21416747D01*
X7300374Y-21418392D01*
X7470000Y-21435099D01*
X7656331Y-21416747D01*
X7740673Y-21391160D01*
X7759738Y-21387540D01*
X7759673Y-21387112D01*
X7764050Y-21386438D01*
X7764064Y-21386437D01*
X8435190Y-21233595D01*
X8462725Y-21230500D01*
X11766295Y-21230500D01*
X11784265Y-21231809D01*
X11808023Y-21235289D01*
X11857369Y-21230971D01*
X11868176Y-21230500D01*
X11873704Y-21230500D01*
X11873709Y-21230500D01*
X11877959Y-21230003D01*
X49364785Y-21230003D01*
X49371661Y-21304214D01*
X49372049Y-21309752D01*
X49375745Y-21387328D01*
X49375746Y-21387330D01*
X49379468Y-21402675D01*
X49382433Y-21420458D01*
X49383603Y-21433083D01*
X49399976Y-21490630D01*
X49404945Y-21508094D01*
X49406182Y-21512792D01*
X49425292Y-21591566D01*
X49425297Y-21591579D01*
X49430421Y-21602799D01*
X49436891Y-21620369D01*
X49439418Y-21629250D01*
X49475727Y-21702170D01*
X49477496Y-21705877D01*
X49512605Y-21782756D01*
X49517753Y-21789984D01*
X49527748Y-21806643D01*
X49530327Y-21811821D01*
X49581494Y-21879577D01*
X49583475Y-21882277D01*
X49634514Y-21953952D01*
X49638443Y-21957698D01*
X49651822Y-21972707D01*
X49653236Y-21974579D01*
X49718541Y-22034111D01*
X49720504Y-22035943D01*
X49753578Y-22067478D01*
X49786623Y-22098987D01*
X49788285Y-22100055D01*
X49799352Y-22108559D01*
X49799380Y-22108523D01*
X49803951Y-22111974D01*
X49803959Y-22111981D01*
X49866495Y-22150701D01*
X49881946Y-22160268D01*
X49883709Y-22161380D01*
X49963429Y-22212614D01*
X49968684Y-22215323D01*
X49968647Y-22215394D01*
X49972064Y-22217120D01*
X49972229Y-22216791D01*
X49977354Y-22219342D01*
X49977363Y-22219348D01*
X49977371Y-22219351D01*
X50066091Y-22253722D01*
X50067352Y-22254217D01*
X50158543Y-22290725D01*
X50158545Y-22290725D01*
X50158547Y-22290726D01*
X50160532Y-22291309D01*
X50166585Y-22292750D01*
X50167526Y-22293017D01*
X50167544Y-22293024D01*
X50264595Y-22311165D01*
X50265010Y-22311244D01*
X50364915Y-22330500D01*
X50571976Y-22330500D01*
X50618258Y-22321847D01*
X50629236Y-22320300D01*
X50679218Y-22315528D01*
X50720791Y-22303320D01*
X50732908Y-22300415D01*
X50772456Y-22293024D01*
X50819588Y-22274764D01*
X50829405Y-22271428D01*
X50880875Y-22256316D01*
X50916329Y-22238037D01*
X50928332Y-22232637D01*
X50962637Y-22219348D01*
X51008509Y-22190943D01*
X51016955Y-22186160D01*
X51067682Y-22160011D01*
X51096337Y-22137474D01*
X51107695Y-22129531D01*
X51136041Y-22111981D01*
X51178466Y-22073304D01*
X51185326Y-22067492D01*
X51232886Y-22030092D01*
X51254496Y-22005150D01*
X51264657Y-21994730D01*
X51286764Y-21974579D01*
X51323429Y-21926024D01*
X51328650Y-21919572D01*
X51370519Y-21871256D01*
X51385299Y-21845653D01*
X51393724Y-21832938D01*
X51409673Y-21811821D01*
X51438333Y-21754260D01*
X51441911Y-21747598D01*
X51475604Y-21689244D01*
X51484146Y-21664563D01*
X51490323Y-21649851D01*
X51500582Y-21629250D01*
X51519110Y-21564127D01*
X51521186Y-21557542D01*
X51544344Y-21490633D01*
X51547570Y-21468186D01*
X51551039Y-21451911D01*
X51556397Y-21433083D01*
X51562958Y-21362259D01*
X51563685Y-21356100D01*
X51574254Y-21282602D01*
X51573339Y-21263399D01*
X51573727Y-21246052D01*
X51575215Y-21230000D01*
X51568336Y-21155773D01*
X51567948Y-21150240D01*
X51564254Y-21072669D01*
X51560534Y-21057338D01*
X51557565Y-21039531D01*
X51556397Y-21026917D01*
X51535054Y-20951905D01*
X51533823Y-20947233D01*
X51521355Y-20895840D01*
X51514704Y-20868424D01*
X51509579Y-20857202D01*
X51503107Y-20839627D01*
X51500582Y-20830750D01*
X51470708Y-20770756D01*
X51464298Y-20757882D01*
X51462504Y-20754122D01*
X51440386Y-20705691D01*
X51427396Y-20677247D01*
X51422243Y-20670011D01*
X51412249Y-20653353D01*
X51409673Y-20648179D01*
X51409671Y-20648177D01*
X51409670Y-20648174D01*
X51358542Y-20580471D01*
X51356488Y-20577671D01*
X51305486Y-20506048D01*
X51301552Y-20502297D01*
X51288175Y-20487289D01*
X51286765Y-20485422D01*
X51286764Y-20485421D01*
X51221461Y-20425890D01*
X51219490Y-20424052D01*
X51153378Y-20361014D01*
X51151708Y-20359940D01*
X51140647Y-20351441D01*
X51140621Y-20351477D01*
X51136048Y-20348024D01*
X51136042Y-20348020D01*
X51136041Y-20348019D01*
X51058044Y-20299725D01*
X51056290Y-20298619D01*
X51038439Y-20287147D01*
X50976572Y-20247387D01*
X50976569Y-20247386D01*
X50976568Y-20247385D01*
X50971321Y-20244680D01*
X50971356Y-20244610D01*
X50967920Y-20242874D01*
X50967758Y-20243202D01*
X50962641Y-20240653D01*
X50914375Y-20221955D01*
X50873838Y-20206250D01*
X50872662Y-20205787D01*
X50781454Y-20169273D01*
X50779486Y-20168695D01*
X50773440Y-20167256D01*
X50772454Y-20166975D01*
X50675413Y-20148834D01*
X50674734Y-20148705D01*
X50575086Y-20129500D01*
X50575085Y-20129500D01*
X50571976Y-20129500D01*
X50368024Y-20129500D01*
X50368017Y-20129500D01*
X50321734Y-20138151D01*
X50310742Y-20139700D01*
X50260785Y-20144471D01*
X50219223Y-20156674D01*
X50207081Y-20159584D01*
X50173524Y-20165857D01*
X50167544Y-20166976D01*
X50167541Y-20166976D01*
X50167534Y-20166979D01*
X50120437Y-20185224D01*
X50110582Y-20188573D01*
X50059136Y-20203679D01*
X50059115Y-20203688D01*
X50023680Y-20221955D01*
X50011662Y-20227363D01*
X49977361Y-20240652D01*
X49931492Y-20269053D01*
X49923038Y-20273839D01*
X49872322Y-20299986D01*
X49843674Y-20322514D01*
X49832306Y-20330466D01*
X49803959Y-20348018D01*
X49803956Y-20348020D01*
X49761537Y-20386690D01*
X49754652Y-20392522D01*
X49707116Y-20429904D01*
X49707114Y-20429906D01*
X49685507Y-20454842D01*
X49675337Y-20465271D01*
X49653239Y-20485416D01*
X49616577Y-20533964D01*
X49611338Y-20540436D01*
X49569483Y-20588740D01*
X49554702Y-20614341D01*
X49546274Y-20627060D01*
X49530326Y-20648180D01*
X49501688Y-20705691D01*
X49498077Y-20712415D01*
X49464397Y-20770752D01*
X49464395Y-20770757D01*
X49455854Y-20795435D01*
X49449678Y-20810143D01*
X49439416Y-20830754D01*
X49439416Y-20830755D01*
X49420896Y-20895840D01*
X49418812Y-20902456D01*
X49395656Y-20969365D01*
X49395655Y-20969369D01*
X49392427Y-20991816D01*
X49388958Y-21008094D01*
X49383603Y-21026916D01*
X49383603Y-21026917D01*
X49377041Y-21097726D01*
X49376308Y-21103929D01*
X49365746Y-21177396D01*
X49365745Y-21177401D01*
X49366660Y-21196616D01*
X49366272Y-21213944D01*
X49364785Y-21230002D01*
X49364785Y-21230003D01*
X11877959Y-21230003D01*
X11904556Y-21226893D01*
X11908030Y-21226539D01*
X11982797Y-21219999D01*
X11982805Y-21219996D01*
X11989866Y-21218539D01*
X11989878Y-21218598D01*
X11997243Y-21216965D01*
X11997229Y-21216906D01*
X12004249Y-21215241D01*
X12004255Y-21215241D01*
X12074779Y-21189572D01*
X12078117Y-21188412D01*
X12149334Y-21164814D01*
X12149342Y-21164808D01*
X12155882Y-21161760D01*
X12155908Y-21161816D01*
X12162690Y-21158532D01*
X12162663Y-21158478D01*
X12169113Y-21155238D01*
X12169117Y-21155237D01*
X12231837Y-21113984D01*
X12234732Y-21112140D01*
X12298656Y-21072712D01*
X12298662Y-21072705D01*
X12304325Y-21068229D01*
X12304363Y-21068277D01*
X12310200Y-21063522D01*
X12310161Y-21063475D01*
X12315691Y-21058833D01*
X12315696Y-21058830D01*
X12367184Y-21004254D01*
X12369631Y-21001735D01*
X17134921Y-16236445D01*
X17151258Y-16222708D01*
X17464884Y-16002143D01*
X17518673Y-15980821D01*
X17931443Y-15921855D01*
X17931473Y-15921849D01*
X17932202Y-15921746D01*
X17949738Y-15920500D01*
X27802805Y-15920500D01*
X27869844Y-15940185D01*
X27915599Y-15992989D01*
X27916311Y-15994575D01*
X28412319Y-17123190D01*
X28412319Y-17123191D01*
X28433893Y-17166520D01*
X28437021Y-17171538D01*
X28436819Y-17171663D01*
X28446853Y-17188233D01*
X28490964Y-17282829D01*
X28490965Y-17282831D01*
X28596242Y-17433182D01*
X28626505Y-17476401D01*
X28793599Y-17643495D01*
X28890384Y-17711265D01*
X28987165Y-17779032D01*
X28987167Y-17779033D01*
X28987170Y-17779035D01*
X29201337Y-17878903D01*
X29429592Y-17940063D01*
X29617918Y-17956539D01*
X29664999Y-17960659D01*
X29665000Y-17960659D01*
X29665001Y-17960659D01*
X29704234Y-17957226D01*
X29900408Y-17940063D01*
X30128663Y-17878903D01*
X30342830Y-17779035D01*
X30536401Y-17643495D01*
X30703495Y-17476401D01*
X30839035Y-17282830D01*
X30897777Y-17156854D01*
X30904886Y-17143739D01*
X30917680Y-17123191D01*
X31413673Y-15994610D01*
X31458667Y-15941156D01*
X31525418Y-15920513D01*
X31527194Y-15920500D01*
X36840262Y-15920500D01*
X36857798Y-15921746D01*
X36858553Y-15921853D01*
X36858557Y-15921855D01*
X37488628Y-16011863D01*
X37496837Y-16013321D01*
X37530609Y-16020500D01*
X37546960Y-16020500D01*
X37560233Y-16021212D01*
X37570005Y-16022265D01*
X37571627Y-16022383D01*
X37571640Y-16022382D01*
X37571644Y-16022383D01*
X37666929Y-16020875D01*
X37672632Y-16020500D01*
X37709389Y-16020500D01*
X37709391Y-16020500D01*
X37884267Y-15983329D01*
X38047593Y-15910612D01*
X38192230Y-15805526D01*
X38311859Y-15672665D01*
X38401250Y-15517835D01*
X38456497Y-15347803D01*
X38475185Y-15170000D01*
X38456497Y-14992197D01*
X38401250Y-14822165D01*
X38311859Y-14667335D01*
X38242745Y-14590576D01*
X38192235Y-14534478D01*
X38192232Y-14534476D01*
X38192231Y-14534475D01*
X38192230Y-14534474D01*
X38047593Y-14429388D01*
X37884267Y-14356671D01*
X37884265Y-14356670D01*
X37743137Y-14326673D01*
X37709391Y-14319500D01*
X37530609Y-14319500D01*
X37530605Y-14319500D01*
X37496847Y-14326674D01*
X37488608Y-14328137D01*
X36857800Y-14418254D01*
X36840263Y-14419500D01*
X31163705Y-14419500D01*
X31145735Y-14418191D01*
X31139420Y-14417266D01*
X31121977Y-14414711D01*
X31121976Y-14414711D01*
X31121969Y-14414710D01*
X31121757Y-14414704D01*
X31121618Y-14414658D01*
X31114833Y-14413665D01*
X31115002Y-14412504D01*
X31055321Y-14393069D01*
X31011129Y-14338951D01*
X31001852Y-14279952D01*
X31020659Y-14065000D01*
X31000063Y-13829592D01*
X30938903Y-13601337D01*
X30839035Y-13387171D01*
X30837883Y-13385526D01*
X30703496Y-13193600D01*
X30697725Y-13187829D01*
X30581567Y-13071671D01*
X30548084Y-13010351D01*
X30553068Y-12940659D01*
X30594939Y-12884725D01*
X30625915Y-12867810D01*
X30757331Y-12818796D01*
X30872546Y-12732546D01*
X30958796Y-12617331D01*
X31009091Y-12482483D01*
X31015500Y-12422873D01*
X31015499Y-10627128D01*
X31009091Y-10567517D01*
X30968182Y-10457833D01*
X30963198Y-10388141D01*
X30996683Y-10326818D01*
X31058007Y-10293334D01*
X31084364Y-10290500D01*
X33947770Y-10290500D01*
X34014809Y-10310185D01*
X34035451Y-10326819D01*
X36527961Y-12819329D01*
X36539480Y-12832610D01*
X36539935Y-12833217D01*
X36539937Y-12833220D01*
X36684901Y-13026505D01*
X36900699Y-13314236D01*
X36908885Y-13326635D01*
X36918136Y-13342657D01*
X36918142Y-13342666D01*
X36937652Y-13364335D01*
X36944700Y-13372904D01*
X36950042Y-13380026D01*
X36972113Y-13407414D01*
X36973176Y-13408643D01*
X37004339Y-13438827D01*
X37010192Y-13444898D01*
X37037770Y-13475526D01*
X37182407Y-13580612D01*
X37345733Y-13653329D01*
X37520609Y-13690500D01*
X37520610Y-13690500D01*
X37699389Y-13690500D01*
X37699391Y-13690500D01*
X37874267Y-13653329D01*
X38037593Y-13580612D01*
X38182230Y-13475526D01*
X38301859Y-13342665D01*
X38391250Y-13187835D01*
X38446497Y-13017803D01*
X38465185Y-12840000D01*
X38446497Y-12662197D01*
X38391250Y-12492165D01*
X38301859Y-12337335D01*
X38182230Y-12204474D01*
X38161671Y-12189536D01*
X38153274Y-12182862D01*
X38150021Y-12180038D01*
X37602603Y-11769474D01*
X37589322Y-11757955D01*
X34885729Y-9054361D01*
X34873949Y-9040730D01*
X34859610Y-9021470D01*
X34821651Y-8989619D01*
X34813686Y-8982318D01*
X34809780Y-8978411D01*
X34785443Y-8959168D01*
X34782647Y-8956890D01*
X34725214Y-8908698D01*
X34719180Y-8904729D01*
X34719212Y-8904680D01*
X34712853Y-8900628D01*
X34712822Y-8900679D01*
X34706680Y-8896891D01*
X34706678Y-8896890D01*
X34706677Y-8896889D01*
X34638688Y-8865184D01*
X34635447Y-8863615D01*
X34571706Y-8831604D01*
X34568433Y-8829960D01*
X34568431Y-8829959D01*
X34568430Y-8829959D01*
X34561645Y-8827489D01*
X34561665Y-8827433D01*
X34554549Y-8824959D01*
X34554531Y-8825015D01*
X34547674Y-8822743D01*
X34474210Y-8807573D01*
X34470693Y-8806793D01*
X34397718Y-8789499D01*
X34390547Y-8788661D01*
X34390553Y-8788601D01*
X34383055Y-8787835D01*
X34383050Y-8787895D01*
X34375860Y-8787265D01*
X34300870Y-8789448D01*
X34297263Y-8789500D01*
X27293708Y-8789500D01*
X27275737Y-8788191D01*
X27251979Y-8784711D01*
X27251973Y-8784710D01*
X27206826Y-8788661D01*
X27202630Y-8789028D01*
X27191824Y-8789500D01*
X27186284Y-8789500D01*
X27155501Y-8793098D01*
X27151916Y-8793464D01*
X27077199Y-8800001D01*
X27070132Y-8801460D01*
X27070120Y-8801404D01*
X27062763Y-8803035D01*
X27062777Y-8803092D01*
X27055740Y-8804760D01*
X26985231Y-8830421D01*
X26981854Y-8831595D01*
X26942848Y-8844521D01*
X26910668Y-8855185D01*
X26904126Y-8858236D01*
X26904101Y-8858183D01*
X26897308Y-8861471D01*
X26897334Y-8861523D01*
X26890880Y-8864764D01*
X26828221Y-8905975D01*
X26825181Y-8907912D01*
X26761348Y-8947285D01*
X26755683Y-8951765D01*
X26755647Y-8951719D01*
X26749798Y-8956484D01*
X26749835Y-8956528D01*
X26744310Y-8961164D01*
X26744304Y-8961169D01*
X26744304Y-8961170D01*
X26720733Y-8986153D01*
X26692831Y-9015727D01*
X26690319Y-9018312D01*
X23745451Y-11963181D01*
X23684128Y-11996666D01*
X23657770Y-11999500D01*
X17949731Y-11999500D01*
X17932194Y-11998254D01*
X17931449Y-11998147D01*
X17931444Y-11998146D01*
X17702601Y-11965453D01*
X17538017Y-11941941D01*
X17481154Y-11918387D01*
X17162608Y-11679478D01*
X17149327Y-11667959D01*
X12565729Y-7084361D01*
X12553949Y-7070730D01*
X12539610Y-7051470D01*
X12501651Y-7019619D01*
X12493686Y-7012318D01*
X12489780Y-7008411D01*
X12465443Y-6989168D01*
X12462647Y-6986890D01*
X12405214Y-6938698D01*
X12399180Y-6934729D01*
X12399212Y-6934680D01*
X12392853Y-6930628D01*
X12392822Y-6930679D01*
X12391726Y-6930003D01*
X49364785Y-6930003D01*
X49371661Y-7004214D01*
X49372049Y-7009752D01*
X49375745Y-7087328D01*
X49375746Y-7087330D01*
X49379468Y-7102675D01*
X49382433Y-7120458D01*
X49383603Y-7133083D01*
X49399976Y-7190630D01*
X49404945Y-7208094D01*
X49406182Y-7212792D01*
X49425292Y-7291566D01*
X49425297Y-7291579D01*
X49430421Y-7302799D01*
X49436891Y-7320369D01*
X49439418Y-7329250D01*
X49475727Y-7402170D01*
X49477496Y-7405877D01*
X49512605Y-7482756D01*
X49517753Y-7489984D01*
X49527748Y-7506643D01*
X49530327Y-7511821D01*
X49581494Y-7579577D01*
X49583475Y-7582277D01*
X49634514Y-7653952D01*
X49638443Y-7657698D01*
X49651822Y-7672707D01*
X49653236Y-7674579D01*
X49718541Y-7734111D01*
X49720504Y-7735943D01*
X49753578Y-7767478D01*
X49786623Y-7798987D01*
X49788285Y-7800055D01*
X49799352Y-7808559D01*
X49799380Y-7808523D01*
X49803951Y-7811974D01*
X49803959Y-7811981D01*
X49866495Y-7850701D01*
X49881946Y-7860268D01*
X49883709Y-7861380D01*
X49963429Y-7912614D01*
X49968684Y-7915323D01*
X49968647Y-7915394D01*
X49972064Y-7917120D01*
X49972229Y-7916791D01*
X49977354Y-7919342D01*
X49977363Y-7919348D01*
X49977371Y-7919351D01*
X50066091Y-7953722D01*
X50067352Y-7954217D01*
X50158543Y-7990725D01*
X50158545Y-7990725D01*
X50158547Y-7990726D01*
X50160532Y-7991309D01*
X50166585Y-7992750D01*
X50167526Y-7993017D01*
X50167544Y-7993024D01*
X50264595Y-8011165D01*
X50265010Y-8011244D01*
X50364915Y-8030500D01*
X50571976Y-8030500D01*
X50618258Y-8021847D01*
X50629236Y-8020300D01*
X50679218Y-8015528D01*
X50720791Y-8003320D01*
X50732908Y-8000415D01*
X50772456Y-7993024D01*
X50819588Y-7974764D01*
X50829405Y-7971428D01*
X50880875Y-7956316D01*
X50916329Y-7938037D01*
X50928332Y-7932637D01*
X50962637Y-7919348D01*
X51008509Y-7890943D01*
X51016955Y-7886160D01*
X51067682Y-7860011D01*
X51096337Y-7837474D01*
X51107695Y-7829531D01*
X51136041Y-7811981D01*
X51178466Y-7773304D01*
X51185326Y-7767492D01*
X51232886Y-7730092D01*
X51254496Y-7705150D01*
X51264657Y-7694730D01*
X51286764Y-7674579D01*
X51323429Y-7626024D01*
X51328650Y-7619572D01*
X51370519Y-7571256D01*
X51385299Y-7545653D01*
X51393724Y-7532938D01*
X51409673Y-7511821D01*
X51438333Y-7454260D01*
X51441911Y-7447598D01*
X51475604Y-7389244D01*
X51484146Y-7364563D01*
X51490323Y-7349851D01*
X51500582Y-7329250D01*
X51519110Y-7264127D01*
X51521186Y-7257542D01*
X51544344Y-7190633D01*
X51547570Y-7168186D01*
X51551039Y-7151911D01*
X51556397Y-7133083D01*
X51562958Y-7062259D01*
X51563685Y-7056100D01*
X51574254Y-6982602D01*
X51573339Y-6963399D01*
X51573727Y-6946052D01*
X51575215Y-6930000D01*
X51568336Y-6855773D01*
X51567948Y-6850240D01*
X51564254Y-6772669D01*
X51560534Y-6757338D01*
X51557565Y-6739531D01*
X51556397Y-6726917D01*
X51535054Y-6651905D01*
X51533823Y-6647233D01*
X51514704Y-6568424D01*
X51509579Y-6557202D01*
X51503107Y-6539627D01*
X51500582Y-6530750D01*
X51470708Y-6470756D01*
X51464298Y-6457882D01*
X51462504Y-6454122D01*
X51440386Y-6405691D01*
X51427396Y-6377247D01*
X51422243Y-6370011D01*
X51412249Y-6353353D01*
X51409673Y-6348179D01*
X51409671Y-6348177D01*
X51409670Y-6348174D01*
X51358542Y-6280471D01*
X51356488Y-6277671D01*
X51305486Y-6206048D01*
X51301552Y-6202297D01*
X51288175Y-6187289D01*
X51286765Y-6185422D01*
X51286764Y-6185421D01*
X51221461Y-6125890D01*
X51219490Y-6124052D01*
X51153378Y-6061014D01*
X51151708Y-6059940D01*
X51140647Y-6051441D01*
X51140621Y-6051477D01*
X51136048Y-6048024D01*
X51136042Y-6048020D01*
X51136041Y-6048019D01*
X51058044Y-5999725D01*
X51056290Y-5998619D01*
X51038439Y-5987147D01*
X50976572Y-5947387D01*
X50976569Y-5947386D01*
X50976568Y-5947385D01*
X50971321Y-5944680D01*
X50971356Y-5944610D01*
X50967920Y-5942874D01*
X50967758Y-5943202D01*
X50962641Y-5940653D01*
X50914375Y-5921955D01*
X50873838Y-5906250D01*
X50872662Y-5905787D01*
X50781454Y-5869273D01*
X50779486Y-5868695D01*
X50773440Y-5867256D01*
X50772454Y-5866975D01*
X50675413Y-5848834D01*
X50674734Y-5848705D01*
X50575086Y-5829500D01*
X50575085Y-5829500D01*
X50571976Y-5829500D01*
X50368024Y-5829500D01*
X50368017Y-5829500D01*
X50321734Y-5838151D01*
X50310742Y-5839700D01*
X50260785Y-5844471D01*
X50219223Y-5856674D01*
X50207081Y-5859584D01*
X50173524Y-5865857D01*
X50167544Y-5866976D01*
X50167541Y-5866976D01*
X50167534Y-5866979D01*
X50120437Y-5885224D01*
X50110582Y-5888573D01*
X50059136Y-5903679D01*
X50059115Y-5903688D01*
X50023680Y-5921955D01*
X50011662Y-5927363D01*
X49977361Y-5940652D01*
X49931492Y-5969053D01*
X49923038Y-5973839D01*
X49872322Y-5999986D01*
X49843674Y-6022514D01*
X49832306Y-6030466D01*
X49803959Y-6048018D01*
X49803956Y-6048020D01*
X49761537Y-6086690D01*
X49754652Y-6092522D01*
X49707116Y-6129904D01*
X49707114Y-6129906D01*
X49685507Y-6154842D01*
X49675337Y-6165271D01*
X49653239Y-6185416D01*
X49616577Y-6233964D01*
X49611338Y-6240436D01*
X49569483Y-6288740D01*
X49554702Y-6314341D01*
X49546274Y-6327060D01*
X49530326Y-6348180D01*
X49501688Y-6405691D01*
X49498077Y-6412415D01*
X49464397Y-6470752D01*
X49464395Y-6470757D01*
X49455854Y-6495435D01*
X49449678Y-6510143D01*
X49439416Y-6530754D01*
X49439416Y-6530755D01*
X49420896Y-6595840D01*
X49418812Y-6602456D01*
X49395656Y-6669365D01*
X49395655Y-6669369D01*
X49392427Y-6691816D01*
X49388958Y-6708094D01*
X49383603Y-6726916D01*
X49383603Y-6726917D01*
X49377041Y-6797726D01*
X49376308Y-6803929D01*
X49365746Y-6877396D01*
X49365745Y-6877401D01*
X49366660Y-6896616D01*
X49366272Y-6913944D01*
X49364785Y-6930002D01*
X49364785Y-6930003D01*
X12391726Y-6930003D01*
X12386680Y-6926891D01*
X12386678Y-6926890D01*
X12386677Y-6926889D01*
X12318688Y-6895184D01*
X12315447Y-6893615D01*
X12283151Y-6877396D01*
X12248433Y-6859960D01*
X12248431Y-6859959D01*
X12248430Y-6859959D01*
X12241645Y-6857489D01*
X12241665Y-6857433D01*
X12234549Y-6854959D01*
X12234531Y-6855015D01*
X12227674Y-6852743D01*
X12154210Y-6837573D01*
X12150693Y-6836793D01*
X12077718Y-6819499D01*
X12070547Y-6818661D01*
X12070553Y-6818601D01*
X12063055Y-6817835D01*
X12063050Y-6817895D01*
X12055860Y-6817265D01*
X11980870Y-6819448D01*
X11977263Y-6819500D01*
X8452729Y-6819500D01*
X8425194Y-6816404D01*
X7754064Y-6663562D01*
X7743374Y-6661249D01*
X7743373Y-6661248D01*
X7738720Y-6660242D01*
X7738740Y-6660148D01*
X7725298Y-6657206D01*
X7646331Y-6633253D01*
X7646321Y-6633252D01*
X7460000Y-6614901D01*
X7459999Y-6614901D01*
X7273668Y-6633252D01*
X7273666Y-6633253D01*
X7094497Y-6687604D01*
X6929376Y-6775862D01*
X6929373Y-6775864D01*
X6784642Y-6894642D01*
X6665864Y-7039373D01*
X6665862Y-7039376D01*
X6577604Y-7204497D01*
X6523253Y-7383666D01*
X6523252Y-7383668D01*
X6504901Y-7570000D01*
X-188756Y-7570000D01*
X-174701Y-7545653D01*
X-166276Y-7532938D01*
X-150327Y-7511821D01*
X-121667Y-7454260D01*
X-118089Y-7447598D01*
X-84396Y-7389244D01*
X-75854Y-7364563D01*
X-69677Y-7349851D01*
X-59418Y-7329250D01*
X-40890Y-7264127D01*
X-38814Y-7257542D01*
X-15656Y-7190633D01*
X-12430Y-7168186D01*
X-8961Y-7151911D01*
X-3603Y-7133083D01*
X2958Y-7062259D01*
X3685Y-7056100D01*
X14254Y-6982602D01*
X13339Y-6963399D01*
X13727Y-6946052D01*
X15215Y-6930000D01*
X8336Y-6855773D01*
X7948Y-6850240D01*
X4254Y-6772669D01*
X534Y-6757338D01*
X-2435Y-6739531D01*
X-3603Y-6726917D01*
X-24946Y-6651905D01*
X-26177Y-6647233D01*
X-45296Y-6568424D01*
X-50421Y-6557202D01*
X-56893Y-6539627D01*
X-59418Y-6530750D01*
X-89292Y-6470756D01*
X-95702Y-6457882D01*
X-97496Y-6454122D01*
X-119614Y-6405691D01*
X-132604Y-6377247D01*
X-137757Y-6370011D01*
X-147751Y-6353353D01*
X-150327Y-6348179D01*
X-150329Y-6348177D01*
X-150330Y-6348174D01*
X-201458Y-6280471D01*
X-203512Y-6277671D01*
X-254514Y-6206048D01*
X-258448Y-6202297D01*
X-271825Y-6187289D01*
X-273235Y-6185422D01*
X-273236Y-6185421D01*
X-338539Y-6125890D01*
X-340510Y-6124052D01*
X-406622Y-6061014D01*
X-408292Y-6059940D01*
X-419353Y-6051441D01*
X-419379Y-6051477D01*
X-423952Y-6048024D01*
X-423958Y-6048020D01*
X-423959Y-6048019D01*
X-501956Y-5999725D01*
X-503710Y-5998619D01*
X-521561Y-5987147D01*
X-583428Y-5947387D01*
X-583431Y-5947386D01*
X-583432Y-5947385D01*
X-588679Y-5944680D01*
X-588644Y-5944610D01*
X-592080Y-5942874D01*
X-592242Y-5943202D01*
X-597359Y-5940653D01*
X-645625Y-5921955D01*
X-686162Y-5906250D01*
X-687338Y-5905787D01*
X-778546Y-5869273D01*
X-780514Y-5868695D01*
X-786560Y-5867256D01*
X-787546Y-5866975D01*
X-884587Y-5848834D01*
X-885266Y-5848705D01*
X-984914Y-5829500D01*
X-984915Y-5829500D01*
X-988024Y-5829500D01*
X-1191976Y-5829500D01*
X-1191983Y-5829500D01*
X-1238266Y-5838151D01*
X-1249258Y-5839700D01*
X-1299215Y-5844471D01*
X-1340777Y-5856674D01*
X-1352919Y-5859584D01*
X-1386476Y-5865857D01*
X-1392456Y-5866976D01*
X-1392459Y-5866976D01*
X-1392466Y-5866979D01*
X-1439563Y-5885224D01*
X-1449418Y-5888573D01*
X-1500864Y-5903679D01*
X-1500885Y-5903688D01*
X-1536320Y-5921955D01*
X-1548338Y-5927363D01*
X-1582639Y-5940652D01*
X-1628508Y-5969053D01*
X-1636962Y-5973839D01*
X-1687678Y-5999986D01*
X-1716326Y-6022514D01*
X-1727694Y-6030466D01*
X-1756041Y-6048018D01*
X-1756044Y-6048020D01*
X-1798463Y-6086690D01*
X-1805348Y-6092522D01*
X-1852884Y-6129904D01*
X-1852886Y-6129906D01*
X-1874493Y-6154842D01*
X-1884663Y-6165271D01*
X-1906761Y-6185416D01*
X-1943423Y-6233964D01*
X-1948662Y-6240436D01*
X-1990517Y-6288740D01*
X-2005298Y-6314341D01*
X-2013726Y-6327060D01*
X-2029674Y-6348180D01*
X-2058312Y-6405691D01*
X-2061923Y-6412415D01*
X-2095603Y-6470752D01*
X-2095605Y-6470757D01*
X-2104146Y-6495435D01*
X-2110322Y-6510143D01*
X-2120584Y-6530754D01*
X-2120584Y-6530755D01*
X-2139104Y-6595840D01*
X-2141188Y-6602456D01*
X-2164344Y-6669365D01*
X-2164345Y-6669369D01*
X-2167573Y-6691816D01*
X-2171042Y-6708094D01*
X-2176397Y-6726916D01*
X-2176397Y-6726917D01*
X-2182959Y-6797726D01*
X-2183692Y-6803929D01*
X-2194254Y-6877396D01*
X-2194255Y-6877401D01*
X-2193340Y-6896616D01*
X-2193728Y-6913944D01*
X-2195215Y-6930002D01*
X-2195215Y-6930003D01*
X-2754500Y-6930003D01*
X-2754500Y-3013480D01*
X-2754305Y-3006528D01*
X-2751437Y-2955449D01*
X-2737602Y-2709097D01*
X-2736048Y-2695298D01*
X-2686731Y-2405041D01*
X-2683637Y-2391489D01*
X-2660424Y-2310917D01*
X-2602133Y-2108582D01*
X-2597541Y-2095462D01*
X-2495868Y-1850000D01*
X-2484877Y-1823463D01*
X-2478855Y-1810957D01*
X-2336434Y-1553267D01*
X-2329039Y-1541499D01*
X-2322497Y-1532279D01*
X-2158670Y-1301385D01*
X-2150015Y-1290531D01*
X-1953821Y-1070991D01*
X-1944009Y-1061179D01*
X-1724469Y-864985D01*
X-1713615Y-856330D01*
X-1473496Y-685957D01*
X-1461733Y-678566D01*
X-1204043Y-536145D01*
X-1191537Y-530123D01*
X-1016452Y-457602D01*
X-946983Y-450133D01*
X-884504Y-481408D01*
X-848852Y-541497D01*
X-845000Y-572163D01*
X-845000Y-1100000D01*
X71314Y-1100000D01*
X45507Y-1140156D01*
X5000Y-1278111D01*
X5000Y-1421889D01*
X45507Y-1559844D01*
X71314Y-1600000D01*
X-845000Y-1600000D01*
X-845000Y-2247844D01*
X-838599Y-2307372D01*
X-838597Y-2307379D01*
X-788355Y-2442086D01*
X-788351Y-2442093D01*
X-702191Y-2557187D01*
X-702188Y-2557190D01*
X-587094Y-2643350D01*
X-587087Y-2643354D01*
X-452380Y-2693596D01*
X-452373Y-2693598D01*
X-392845Y-2699999D01*
X-392828Y-2700000D01*
X255000Y-2700000D01*
X255000Y-1785501D01*
X362685Y-1834680D01*
X469237Y-1850000D01*
X540763Y-1850000D01*
X647315Y-1834680D01*
X755000Y-1785501D01*
X755000Y-2700000D01*
X1402828Y-2700000D01*
X1402844Y-2699999D01*
X1462372Y-2693598D01*
X1462379Y-2693596D01*
X1597086Y-2643354D01*
X1597093Y-2643350D01*
X1712187Y-2557190D01*
X1712190Y-2557187D01*
X1798350Y-2442093D01*
X1798354Y-2442086D01*
X1847422Y-2310529D01*
X1889293Y-2254595D01*
X1954757Y-2230178D01*
X2023030Y-2245030D01*
X2051285Y-2266181D01*
X2173599Y-2388495D01*
X2270384Y-2456265D01*
X2367165Y-2524032D01*
X2367167Y-2524033D01*
X2367170Y-2524035D01*
X2581337Y-2623903D01*
X2809592Y-2685063D01*
X2986034Y-2700500D01*
X3044999Y-2705659D01*
X3045000Y-2705659D01*
X3045001Y-2705659D01*
X3103966Y-2700500D01*
X3280408Y-2685063D01*
X3508663Y-2623903D01*
X3722830Y-2524035D01*
X3916401Y-2388495D01*
X4083495Y-2221401D01*
X4219035Y-2027830D01*
X4318903Y-1813663D01*
X4380063Y-1585408D01*
X4400659Y-1350000D01*
X4380063Y-1114592D01*
X4318903Y-886337D01*
X4219035Y-672171D01*
X4213425Y-664158D01*
X4083494Y-478597D01*
X4077078Y-472181D01*
X4043593Y-410858D01*
X4048577Y-341166D01*
X4090449Y-285233D01*
X4155913Y-260816D01*
X4164759Y-260500D01*
X9102057Y-260500D01*
X9169096Y-280185D01*
G37*
%TD.AperFunction*%
%TD*%
%TA.AperFunction,Conductor*%
%TO.N,/VCCA*%
G36*
X17183311Y-14821901D02*
G01*
X17859955Y-14918565D01*
X17867660Y-14923127D01*
X17870000Y-14930147D01*
X17870000Y-15409853D01*
X17866573Y-15418126D01*
X17859955Y-15421435D01*
X17183316Y-15518097D01*
X17174641Y-15515875D01*
X17170079Y-15508170D01*
X17169961Y-15506556D01*
X17169000Y-15170000D01*
X17169961Y-14833449D01*
X17173412Y-14825187D01*
X17181694Y-14821784D01*
X17183311Y-14821901D01*
G37*
%TD.AperFunction*%
%TD*%
%TA.AperFunction,Conductor*%
%TO.N,/VCCA*%
G36*
X16930816Y-14930868D02*
G01*
X16931775Y-14931722D01*
X17170707Y-15169293D01*
X17170755Y-15169341D01*
X17407704Y-15407648D01*
X17411107Y-15415930D01*
X17407656Y-15424194D01*
X17406138Y-15425467D01*
X16847834Y-15818107D01*
X16839095Y-15820063D01*
X16832830Y-15816810D01*
X16493622Y-15477602D01*
X16490195Y-15469329D01*
X16492744Y-15462039D01*
X16914375Y-14932729D01*
X16922210Y-14928393D01*
X16930816Y-14930868D01*
G37*
%TD.AperFunction*%
%TD*%
%TA.AperFunction,Conductor*%
%TO.N,/VCCB*%
G36*
X8350898Y-7317927D02*
G01*
X8358204Y-7323105D01*
X8360000Y-7329335D01*
X8360000Y-7810664D01*
X8356573Y-7818937D01*
X8350898Y-7822072D01*
X7641816Y-7983557D01*
X7632988Y-7982053D01*
X7628418Y-7976649D01*
X7559265Y-7810664D01*
X7460873Y-7574498D01*
X7460855Y-7565547D01*
X7628418Y-7163349D01*
X7634763Y-7157031D01*
X7641816Y-7156442D01*
X8350898Y-7317927D01*
G37*
%TD.AperFunction*%
%TD*%
%TA.AperFunction,Conductor*%
%TO.N,/VCCA*%
G36*
X8360898Y-20227927D02*
G01*
X8368204Y-20233105D01*
X8370000Y-20239335D01*
X8370000Y-20720664D01*
X8366573Y-20728937D01*
X8360898Y-20732072D01*
X7651816Y-20893557D01*
X7642988Y-20892053D01*
X7638418Y-20886649D01*
X7569265Y-20720664D01*
X7470873Y-20484498D01*
X7470855Y-20475547D01*
X7638418Y-20073349D01*
X7644763Y-20067031D01*
X7651816Y-20066442D01*
X8360898Y-20227927D01*
G37*
%TD.AperFunction*%
%TD*%
%TA.AperFunction,Conductor*%
%TO.N,/VCCA*%
G36*
X30695961Y-15231798D02*
G01*
X31038201Y-15574038D01*
X31041628Y-15582311D01*
X31040639Y-15587018D01*
X30454900Y-16919807D01*
X30448434Y-16926003D01*
X30439723Y-16925914D01*
X29668785Y-16607562D01*
X29662447Y-16601238D01*
X29344085Y-15830274D01*
X29344094Y-15821321D01*
X29350191Y-15815099D01*
X30682982Y-15229359D01*
X30691933Y-15229168D01*
X30695961Y-15231798D01*
G37*
%TD.AperFunction*%
%TD*%
%TA.AperFunction,Conductor*%
%TO.N,/VCCB*%
G36*
X16859920Y-12084337D02*
G01*
X17406726Y-12494442D01*
X17411288Y-12502147D01*
X17409066Y-12510822D01*
X17408003Y-12512051D01*
X17170755Y-12750659D01*
X17170707Y-12750707D01*
X16932051Y-12988003D01*
X16923769Y-12991406D01*
X16915505Y-12987955D01*
X16914442Y-12986726D01*
X16504337Y-12439920D01*
X16502115Y-12431245D01*
X16505423Y-12424629D01*
X16844628Y-12085423D01*
X16852900Y-12081997D01*
X16859920Y-12084337D01*
G37*
%TD.AperFunction*%
%TD*%
%TA.AperFunction,Conductor*%
%TO.N,/VCCB*%
G36*
X37299920Y-12174337D02*
G01*
X37846726Y-12584442D01*
X37851288Y-12592147D01*
X37849066Y-12600822D01*
X37848003Y-12602051D01*
X37610755Y-12840659D01*
X37610707Y-12840707D01*
X37372051Y-13078003D01*
X37363769Y-13081406D01*
X37355505Y-13077955D01*
X37354442Y-13076726D01*
X36944337Y-12529920D01*
X36942115Y-12521245D01*
X36945423Y-12514629D01*
X37284628Y-12175423D01*
X37292900Y-12171997D01*
X37299920Y-12174337D01*
G37*
%TD.AperFunction*%
%TD*%
%TA.AperFunction,Conductor*%
%TO.N,/VCCA*%
G36*
X28647016Y-15229359D02*
G01*
X28652565Y-15231798D01*
X29979807Y-15815099D01*
X29986003Y-15821565D01*
X29985914Y-15830276D01*
X29667562Y-16601214D01*
X29661237Y-16607553D01*
X29661214Y-16607562D01*
X28890276Y-16925914D01*
X28881321Y-16925905D01*
X28875099Y-16919807D01*
X28289360Y-15587018D01*
X28289168Y-15578066D01*
X28291796Y-15574040D01*
X28634039Y-15231797D01*
X28642311Y-15228371D01*
X28647016Y-15229359D01*
G37*
%TD.AperFunction*%
%TD*%
%TA.AperFunction,Conductor*%
%TO.N,/VCCB*%
G36*
X17183311Y-12401901D02*
G01*
X17859955Y-12498565D01*
X17867660Y-12503127D01*
X17870000Y-12510147D01*
X17870000Y-12989853D01*
X17866573Y-12998126D01*
X17859955Y-13001435D01*
X17183316Y-13098097D01*
X17174641Y-13095875D01*
X17170079Y-13088170D01*
X17169961Y-13086556D01*
X17169000Y-12750000D01*
X17169961Y-12413449D01*
X17173412Y-12405187D01*
X17181694Y-12401784D01*
X17183311Y-12401901D01*
G37*
%TD.AperFunction*%
%TD*%
%TA.AperFunction,Conductor*%
%TO.N,/VCCA*%
G36*
X37615358Y-14824124D02*
G01*
X37619920Y-14831829D01*
X37620038Y-14833451D01*
X37621000Y-15170000D01*
X37621000Y-15170066D01*
X37620038Y-15506548D01*
X37616587Y-15514812D01*
X37608305Y-15518215D01*
X37606683Y-15518097D01*
X36930045Y-15421435D01*
X36922340Y-15416873D01*
X36920000Y-15409853D01*
X36920000Y-14930147D01*
X36923427Y-14921874D01*
X36930045Y-14918565D01*
X37606684Y-14821902D01*
X37615358Y-14824124D01*
G37*
%TD.AperFunction*%
%TD*%
M02*
