%TF.GenerationSoftware,KiCad,Pcbnew,7.0.9*%
%TF.CreationDate,2024-01-09T19:40:25+08:00*%
%TF.ProjectId,UINIO-Signal-Translator,55494e49-4f2d-4536-9967-6e616c2d5472,Version 1.0.0*%
%TF.SameCoordinates,PX78a63b0PY57fedb0*%
%TF.FileFunction,Copper,L2,Bot*%
%TF.FilePolarity,Positive*%
%FSLAX46Y46*%
G04 Gerber Fmt 4.6, Leading zero omitted, Abs format (unit mm)*
G04 Created by KiCad (PCBNEW 7.0.9) date 2024-01-09 19:40:25*
%MOMM*%
%LPD*%
G01*
G04 APERTURE LIST*
%TA.AperFunction,ComponentPad*%
%ADD10R,1.700000X1.700000*%
%TD*%
%TA.AperFunction,ComponentPad*%
%ADD11O,1.700000X1.700000*%
%TD*%
%TA.AperFunction,ComponentPad*%
%ADD12C,1.200000*%
%TD*%
%TA.AperFunction,ViaPad*%
%ADD13C,0.700000*%
%TD*%
%TA.AperFunction,ViaPad*%
%ADD14C,0.900000*%
%TD*%
%TA.AperFunction,Conductor*%
%ADD15C,0.500000*%
%TD*%
G04 APERTURE END LIST*
D10*
%TO.P,J1,1,Pin_1*%
%TO.N,GND*%
X505000Y-26750000D03*
D11*
%TO.P,J1,2,Pin_2*%
%TO.N,/VCCA*%
X3045000Y-26750000D03*
%TD*%
D12*
%TO.P,HOLE\u002A\u002A,*%
%TO.N,*%
X-1090000Y-6930000D03*
%TD*%
D10*
%TO.P,J4,1,Pin_1*%
%TO.N,Net-(J4-Pin_1)*%
X10570000Y-1350000D03*
D11*
%TO.P,J4,2,Pin_2*%
%TO.N,Net-(J4-Pin_2)*%
X13110000Y-1350000D03*
%TO.P,J4,3,Pin_3*%
%TO.N,Net-(J4-Pin_3)*%
X15650000Y-1350000D03*
%TO.P,J4,4,Pin_4*%
%TO.N,Net-(J4-Pin_4)*%
X18190000Y-1350000D03*
%TO.P,J4,5,Pin_5*%
%TO.N,Net-(J4-Pin_5)*%
X20730000Y-1350000D03*
%TO.P,J4,6,Pin_6*%
%TO.N,Net-(J4-Pin_6)*%
X23270000Y-1350000D03*
%TO.P,J4,7,Pin_7*%
%TO.N,Net-(J4-Pin_7)*%
X25810000Y-1350000D03*
%TO.P,J4,8,Pin_8*%
%TO.N,Net-(J4-Pin_8)*%
X28350000Y-1350000D03*
%TD*%
D12*
%TO.P,HOLE\u002A\u002A,*%
%TO.N,*%
X-1080000Y-21230000D03*
%TD*%
D10*
%TO.P,J6,1,Pin_1*%
%TO.N,Net-(J6-Pin_1)*%
X29665000Y-11525000D03*
D11*
%TO.P,J6,2,Pin_2*%
%TO.N,/OE*%
X29665000Y-14065000D03*
%TO.P,J6,3,Pin_3*%
%TO.N,/VCCA*%
X29665000Y-16605000D03*
%TD*%
D10*
%TO.P,J7,1,Pin_1*%
%TO.N,Net-(J7-Pin_1)*%
X31010000Y-1350000D03*
D11*
%TO.P,J7,2,Pin_2*%
%TO.N,Net-(J7-Pin_2)*%
X33550000Y-1350000D03*
%TO.P,J7,3,Pin_3*%
%TO.N,Net-(J7-Pin_3)*%
X36090000Y-1350000D03*
%TO.P,J7,4,Pin_4*%
%TO.N,Net-(J7-Pin_4)*%
X38630000Y-1350000D03*
%TO.P,J7,5,Pin_5*%
%TO.N,Net-(J7-Pin_5)*%
X41170000Y-1350000D03*
%TO.P,J7,6,Pin_6*%
%TO.N,Net-(J7-Pin_6)*%
X43710000Y-1350000D03*
%TO.P,J7,7,Pin_7*%
%TO.N,Net-(J7-Pin_7)*%
X46250000Y-1350000D03*
%TO.P,J7,8,Pin_8*%
%TO.N,Net-(J7-Pin_8)*%
X48790000Y-1350000D03*
%TD*%
D10*
%TO.P,J2,1,Pin_1*%
%TO.N,Net-(J2-Pin_1)*%
X10570000Y-26750000D03*
D11*
%TO.P,J2,2,Pin_2*%
%TO.N,Net-(J2-Pin_2)*%
X13110000Y-26750000D03*
%TO.P,J2,3,Pin_3*%
%TO.N,Net-(J2-Pin_3)*%
X15650000Y-26750000D03*
%TO.P,J2,4,Pin_4*%
%TO.N,Net-(J2-Pin_4)*%
X18190000Y-26750000D03*
%TO.P,J2,5,Pin_5*%
%TO.N,Net-(J2-Pin_5)*%
X20730000Y-26750000D03*
%TO.P,J2,6,Pin_6*%
%TO.N,Net-(J2-Pin_6)*%
X23270000Y-26750000D03*
%TO.P,J2,7,Pin_7*%
%TO.N,Net-(J2-Pin_7)*%
X25810000Y-26750000D03*
%TO.P,J2,8,Pin_8*%
%TO.N,Net-(J2-Pin_8)*%
X28350000Y-26750000D03*
%TD*%
D12*
%TO.P,HOLE\u002A\u002A,*%
%TO.N,*%
X50470000Y-21230000D03*
%TD*%
D10*
%TO.P,J3,1,Pin_1*%
%TO.N,GND*%
X505000Y-1350000D03*
D11*
%TO.P,J3,2,Pin_2*%
%TO.N,/VCCB*%
X3045000Y-1350000D03*
%TD*%
D12*
%TO.P,HOLE\u002A\u002A,*%
%TO.N,*%
X50470000Y-6930000D03*
%TD*%
D10*
%TO.P,J5,1,Pin_1*%
%TO.N,Net-(J5-Pin_1)*%
X31010000Y-26750000D03*
D11*
%TO.P,J5,2,Pin_2*%
%TO.N,Net-(J5-Pin_2)*%
X33550000Y-26750000D03*
%TO.P,J5,3,Pin_3*%
%TO.N,Net-(J5-Pin_3)*%
X36090000Y-26750000D03*
%TO.P,J5,4,Pin_4*%
%TO.N,Net-(J5-Pin_4)*%
X38630000Y-26750000D03*
%TO.P,J5,5,Pin_5*%
%TO.N,Net-(J5-Pin_5)*%
X41170000Y-26750000D03*
%TO.P,J5,6,Pin_6*%
%TO.N,Net-(J5-Pin_6)*%
X43710000Y-26750000D03*
%TO.P,J5,7,Pin_7*%
%TO.N,Net-(J5-Pin_7)*%
X46250000Y-26750000D03*
%TO.P,J5,8,Pin_8*%
%TO.N,Net-(J5-Pin_8)*%
X48790000Y-26750000D03*
%TD*%
D13*
%TO.N,GND*%
X29665000Y-21850000D03*
X41020000Y-12940000D03*
X39860000Y-12940000D03*
X39860000Y-15170000D03*
X41020000Y-15170000D03*
X29665000Y-20995000D03*
X29665000Y-20140000D03*
%TO.N,/VCCA*%
X37620000Y-15170000D03*
D14*
X7470000Y-20480000D03*
D13*
X17170000Y-15170000D03*
%TO.N,/VCCB*%
X17170000Y-12750000D03*
D14*
X7460000Y-7570000D03*
D13*
X37610000Y-12840000D03*
%TD*%
D15*
%TO.N,GND*%
X29665000Y-20140000D02*
X29665000Y-21850000D01*
X34890000Y-20140000D02*
X39860000Y-15170000D01*
X41020000Y-12940000D02*
X41020000Y-15170000D01*
X39860000Y-15170000D02*
X39860000Y-12940000D01*
X29665000Y-20140000D02*
X34890000Y-20140000D01*
%TO.N,/VCCA*%
X29665000Y-16605000D02*
X31100000Y-15170000D01*
X7470000Y-20480000D02*
X11830000Y-20480000D01*
X28230000Y-15170000D02*
X29665000Y-16605000D01*
X31100000Y-15170000D02*
X37620000Y-15170000D01*
X17140000Y-15170000D02*
X28230000Y-15170000D01*
X11830000Y-20480000D02*
X17140000Y-15170000D01*
%TO.N,/VCCB*%
X11990000Y-7570000D02*
X7460000Y-7570000D01*
X24020000Y-12750000D02*
X27230000Y-9540000D01*
X34310000Y-9540000D02*
X37610000Y-12840000D01*
X27230000Y-9540000D02*
X34310000Y-9540000D01*
X17170000Y-12750000D02*
X11990000Y-7570000D01*
X17170000Y-12750000D02*
X24020000Y-12750000D01*
%TD*%
%TA.AperFunction,Conductor*%
%TO.N,GND*%
G36*
X9169096Y-280185D02*
G01*
X9214851Y-332989D01*
X9225346Y-397756D01*
X9219500Y-452119D01*
X9219500Y-2247870D01*
X9219501Y-2247876D01*
X9225908Y-2307483D01*
X9276202Y-2442328D01*
X9276206Y-2442335D01*
X9362452Y-2557544D01*
X9362455Y-2557547D01*
X9477664Y-2643793D01*
X9477671Y-2643797D01*
X9612517Y-2694091D01*
X9612516Y-2694091D01*
X9619444Y-2694835D01*
X9672127Y-2700500D01*
X11467872Y-2700499D01*
X11527483Y-2694091D01*
X11662331Y-2643796D01*
X11777546Y-2557546D01*
X11863796Y-2442331D01*
X11912810Y-2310916D01*
X11954681Y-2254984D01*
X12020145Y-2230566D01*
X12088418Y-2245417D01*
X12116673Y-2266569D01*
X12238599Y-2388495D01*
X12335384Y-2456265D01*
X12432165Y-2524032D01*
X12432167Y-2524033D01*
X12432170Y-2524035D01*
X12646337Y-2623903D01*
X12874592Y-2685063D01*
X13051034Y-2700500D01*
X13109999Y-2705659D01*
X13110000Y-2705659D01*
X13110001Y-2705659D01*
X13168966Y-2700500D01*
X13345408Y-2685063D01*
X13573663Y-2623903D01*
X13787830Y-2524035D01*
X13981401Y-2388495D01*
X14148495Y-2221401D01*
X14278425Y-2035842D01*
X14333002Y-1992217D01*
X14402500Y-1985023D01*
X14464855Y-2016546D01*
X14481575Y-2035842D01*
X14611500Y-2221395D01*
X14611505Y-2221401D01*
X14778599Y-2388495D01*
X14875384Y-2456265D01*
X14972165Y-2524032D01*
X14972167Y-2524033D01*
X14972170Y-2524035D01*
X15186337Y-2623903D01*
X15414592Y-2685063D01*
X15591034Y-2700500D01*
X15649999Y-2705659D01*
X15650000Y-2705659D01*
X15650001Y-2705659D01*
X15708966Y-2700500D01*
X15885408Y-2685063D01*
X16113663Y-2623903D01*
X16327830Y-2524035D01*
X16521401Y-2388495D01*
X16688495Y-2221401D01*
X16818425Y-2035842D01*
X16873002Y-1992217D01*
X16942500Y-1985023D01*
X17004855Y-2016546D01*
X17021575Y-2035842D01*
X17151500Y-2221395D01*
X17151505Y-2221401D01*
X17318599Y-2388495D01*
X17415384Y-2456265D01*
X17512165Y-2524032D01*
X17512167Y-2524033D01*
X17512170Y-2524035D01*
X17726337Y-2623903D01*
X17954592Y-2685063D01*
X18131034Y-2700500D01*
X18189999Y-2705659D01*
X18190000Y-2705659D01*
X18190001Y-2705659D01*
X18248966Y-2700500D01*
X18425408Y-2685063D01*
X18653663Y-2623903D01*
X18867830Y-2524035D01*
X19061401Y-2388495D01*
X19228495Y-2221401D01*
X19358425Y-2035842D01*
X19413002Y-1992217D01*
X19482500Y-1985023D01*
X19544855Y-2016546D01*
X19561575Y-2035842D01*
X19691500Y-2221395D01*
X19691505Y-2221401D01*
X19858599Y-2388495D01*
X19955384Y-2456265D01*
X20052165Y-2524032D01*
X20052167Y-2524033D01*
X20052170Y-2524035D01*
X20266337Y-2623903D01*
X20494592Y-2685063D01*
X20671034Y-2700500D01*
X20729999Y-2705659D01*
X20730000Y-2705659D01*
X20730001Y-2705659D01*
X20788966Y-2700500D01*
X20965408Y-2685063D01*
X21193663Y-2623903D01*
X21407830Y-2524035D01*
X21601401Y-2388495D01*
X21768495Y-2221401D01*
X21898425Y-2035842D01*
X21953002Y-1992217D01*
X22022500Y-1985023D01*
X22084855Y-2016546D01*
X22101575Y-2035842D01*
X22231500Y-2221395D01*
X22231505Y-2221401D01*
X22398599Y-2388495D01*
X22495384Y-2456265D01*
X22592165Y-2524032D01*
X22592167Y-2524033D01*
X22592170Y-2524035D01*
X22806337Y-2623903D01*
X23034592Y-2685063D01*
X23211034Y-2700500D01*
X23269999Y-2705659D01*
X23270000Y-2705659D01*
X23270001Y-2705659D01*
X23328966Y-2700500D01*
X23505408Y-2685063D01*
X23733663Y-2623903D01*
X23947830Y-2524035D01*
X24141401Y-2388495D01*
X24308495Y-2221401D01*
X24438425Y-2035842D01*
X24493002Y-1992217D01*
X24562500Y-1985023D01*
X24624855Y-2016546D01*
X24641575Y-2035842D01*
X24771500Y-2221395D01*
X24771505Y-2221401D01*
X24938599Y-2388495D01*
X25035384Y-2456265D01*
X25132165Y-2524032D01*
X25132167Y-2524033D01*
X25132170Y-2524035D01*
X25346337Y-2623903D01*
X25574592Y-2685063D01*
X25751034Y-2700500D01*
X25809999Y-2705659D01*
X25810000Y-2705659D01*
X25810001Y-2705659D01*
X25868966Y-2700500D01*
X26045408Y-2685063D01*
X26273663Y-2623903D01*
X26487830Y-2524035D01*
X26681401Y-2388495D01*
X26848495Y-2221401D01*
X26978425Y-2035842D01*
X27033002Y-1992217D01*
X27102500Y-1985023D01*
X27164855Y-2016546D01*
X27181575Y-2035842D01*
X27311500Y-2221395D01*
X27311505Y-2221401D01*
X27478599Y-2388495D01*
X27575384Y-2456265D01*
X27672165Y-2524032D01*
X27672167Y-2524033D01*
X27672170Y-2524035D01*
X27886337Y-2623903D01*
X28114592Y-2685063D01*
X28291034Y-2700500D01*
X28349999Y-2705659D01*
X28350000Y-2705659D01*
X28350001Y-2705659D01*
X28408966Y-2700500D01*
X28585408Y-2685063D01*
X28813663Y-2623903D01*
X29027830Y-2524035D01*
X29221401Y-2388495D01*
X29388495Y-2221401D01*
X29433926Y-2156517D01*
X29488501Y-2112894D01*
X29557999Y-2105700D01*
X29620354Y-2137222D01*
X29655769Y-2197451D01*
X29659500Y-2227637D01*
X29659500Y-2247867D01*
X29659501Y-2247876D01*
X29665908Y-2307483D01*
X29716202Y-2442328D01*
X29716206Y-2442335D01*
X29802452Y-2557544D01*
X29802455Y-2557547D01*
X29917664Y-2643793D01*
X29917671Y-2643797D01*
X30052517Y-2694091D01*
X30052516Y-2694091D01*
X30059444Y-2694835D01*
X30112127Y-2700500D01*
X31907872Y-2700499D01*
X31967483Y-2694091D01*
X32102331Y-2643796D01*
X32217546Y-2557546D01*
X32303796Y-2442331D01*
X32352810Y-2310916D01*
X32394681Y-2254984D01*
X32460145Y-2230566D01*
X32528418Y-2245417D01*
X32556673Y-2266569D01*
X32678599Y-2388495D01*
X32775384Y-2456265D01*
X32872165Y-2524032D01*
X32872167Y-2524033D01*
X32872170Y-2524035D01*
X33086337Y-2623903D01*
X33314592Y-2685063D01*
X33491034Y-2700500D01*
X33549999Y-2705659D01*
X33550000Y-2705659D01*
X33550001Y-2705659D01*
X33608966Y-2700500D01*
X33785408Y-2685063D01*
X34013663Y-2623903D01*
X34227830Y-2524035D01*
X34421401Y-2388495D01*
X34588495Y-2221401D01*
X34718425Y-2035842D01*
X34773002Y-1992217D01*
X34842500Y-1985023D01*
X34904855Y-2016546D01*
X34921575Y-2035842D01*
X35051500Y-2221395D01*
X35051505Y-2221401D01*
X35218599Y-2388495D01*
X35315384Y-2456265D01*
X35412165Y-2524032D01*
X35412167Y-2524033D01*
X35412170Y-2524035D01*
X35626337Y-2623903D01*
X35854592Y-2685063D01*
X36031034Y-2700500D01*
X36089999Y-2705659D01*
X36090000Y-2705659D01*
X36090001Y-2705659D01*
X36148966Y-2700500D01*
X36325408Y-2685063D01*
X36553663Y-2623903D01*
X36767830Y-2524035D01*
X36961401Y-2388495D01*
X37128495Y-2221401D01*
X37258425Y-2035842D01*
X37313002Y-1992217D01*
X37382500Y-1985023D01*
X37444855Y-2016546D01*
X37461575Y-2035842D01*
X37591500Y-2221395D01*
X37591505Y-2221401D01*
X37758599Y-2388495D01*
X37855384Y-2456265D01*
X37952165Y-2524032D01*
X37952167Y-2524033D01*
X37952170Y-2524035D01*
X38166337Y-2623903D01*
X38394592Y-2685063D01*
X38571034Y-2700500D01*
X38629999Y-2705659D01*
X38630000Y-2705659D01*
X38630001Y-2705659D01*
X38688966Y-2700500D01*
X38865408Y-2685063D01*
X39093663Y-2623903D01*
X39307830Y-2524035D01*
X39501401Y-2388495D01*
X39668495Y-2221401D01*
X39798425Y-2035842D01*
X39853002Y-1992217D01*
X39922500Y-1985023D01*
X39984855Y-2016546D01*
X40001575Y-2035842D01*
X40131500Y-2221395D01*
X40131505Y-2221401D01*
X40298599Y-2388495D01*
X40395384Y-2456265D01*
X40492165Y-2524032D01*
X40492167Y-2524033D01*
X40492170Y-2524035D01*
X40706337Y-2623903D01*
X40934592Y-2685063D01*
X41111034Y-2700500D01*
X41169999Y-2705659D01*
X41170000Y-2705659D01*
X41170001Y-2705659D01*
X41228966Y-2700500D01*
X41405408Y-2685063D01*
X41633663Y-2623903D01*
X41847830Y-2524035D01*
X42041401Y-2388495D01*
X42208495Y-2221401D01*
X42338425Y-2035842D01*
X42393002Y-1992217D01*
X42462500Y-1985023D01*
X42524855Y-2016546D01*
X42541575Y-2035842D01*
X42671500Y-2221395D01*
X42671505Y-2221401D01*
X42838599Y-2388495D01*
X42935384Y-2456265D01*
X43032165Y-2524032D01*
X43032167Y-2524033D01*
X43032170Y-2524035D01*
X43246337Y-2623903D01*
X43474592Y-2685063D01*
X43651034Y-2700500D01*
X43709999Y-2705659D01*
X43710000Y-2705659D01*
X43710001Y-2705659D01*
X43768966Y-2700500D01*
X43945408Y-2685063D01*
X44173663Y-2623903D01*
X44387830Y-2524035D01*
X44581401Y-2388495D01*
X44748495Y-2221401D01*
X44878425Y-2035842D01*
X44933002Y-1992217D01*
X45002500Y-1985023D01*
X45064855Y-2016546D01*
X45081575Y-2035842D01*
X45211500Y-2221395D01*
X45211505Y-2221401D01*
X45378599Y-2388495D01*
X45475384Y-2456265D01*
X45572165Y-2524032D01*
X45572167Y-2524033D01*
X45572170Y-2524035D01*
X45786337Y-2623903D01*
X46014592Y-2685063D01*
X46191034Y-2700500D01*
X46249999Y-2705659D01*
X46250000Y-2705659D01*
X46250001Y-2705659D01*
X46308966Y-2700500D01*
X46485408Y-2685063D01*
X46713663Y-2623903D01*
X46927830Y-2524035D01*
X47121401Y-2388495D01*
X47288495Y-2221401D01*
X47418425Y-2035842D01*
X47473002Y-1992217D01*
X47542500Y-1985023D01*
X47604855Y-2016546D01*
X47621575Y-2035842D01*
X47751500Y-2221395D01*
X47751505Y-2221401D01*
X47918599Y-2388495D01*
X48015384Y-2456265D01*
X48112165Y-2524032D01*
X48112167Y-2524033D01*
X48112170Y-2524035D01*
X48326337Y-2623903D01*
X48554592Y-2685063D01*
X48731034Y-2700500D01*
X48789999Y-2705659D01*
X48790000Y-2705659D01*
X48790001Y-2705659D01*
X48848966Y-2700500D01*
X49025408Y-2685063D01*
X49253663Y-2623903D01*
X49467830Y-2524035D01*
X49661401Y-2388495D01*
X49828495Y-2221401D01*
X49964035Y-2027830D01*
X50063903Y-1813663D01*
X50125063Y-1585408D01*
X50145659Y-1350000D01*
X50125063Y-1114592D01*
X50063903Y-886337D01*
X49964035Y-672171D01*
X49958424Y-664158D01*
X49866473Y-532837D01*
X49844146Y-466631D01*
X49861156Y-398864D01*
X49912104Y-351051D01*
X49980814Y-338373D01*
X50002374Y-342559D01*
X50175780Y-392517D01*
X50249756Y-413829D01*
X50256320Y-416126D01*
X50534754Y-531456D01*
X50541002Y-534466D01*
X50729070Y-638407D01*
X50804771Y-680246D01*
X50810663Y-683948D01*
X51056441Y-858337D01*
X51061882Y-862675D01*
X51286591Y-1063488D01*
X51291511Y-1068408D01*
X51492324Y-1293117D01*
X51496662Y-1298558D01*
X51671051Y-1544336D01*
X51674753Y-1550228D01*
X51820529Y-1813988D01*
X51823548Y-1820257D01*
X51938872Y-2098676D01*
X51941170Y-2105243D01*
X52024599Y-2394832D01*
X52026147Y-2401616D01*
X52076628Y-2698718D01*
X52077407Y-2705633D01*
X52091435Y-2955449D01*
X52089767Y-2979234D01*
X52090097Y-2979267D01*
X52089500Y-2985328D01*
X52089500Y-25088258D01*
X52089402Y-25091735D01*
X52072407Y-25394367D01*
X52071628Y-25401281D01*
X52021147Y-25698383D01*
X52019599Y-25705167D01*
X51936170Y-25994756D01*
X51933872Y-26001323D01*
X51818548Y-26279742D01*
X51815529Y-26286011D01*
X51669753Y-26549771D01*
X51666051Y-26555663D01*
X51491662Y-26801441D01*
X51487324Y-26806882D01*
X51286511Y-27031591D01*
X51281591Y-27036511D01*
X51056882Y-27237324D01*
X51051441Y-27241662D01*
X50805663Y-27416051D01*
X50799771Y-27419753D01*
X50536011Y-27565529D01*
X50529742Y-27568548D01*
X50251323Y-27683872D01*
X50244756Y-27686170D01*
X50003639Y-27755635D01*
X49933770Y-27755278D01*
X49875185Y-27717205D01*
X49846485Y-27653502D01*
X49856781Y-27584395D01*
X49867737Y-27565357D01*
X49964035Y-27427830D01*
X50063903Y-27213663D01*
X50125063Y-26985408D01*
X50145659Y-26750000D01*
X50125063Y-26514592D01*
X50063903Y-26286337D01*
X49964035Y-26072171D01*
X49958425Y-26064158D01*
X49828494Y-25878597D01*
X49661402Y-25711506D01*
X49661395Y-25711501D01*
X49467834Y-25575967D01*
X49467830Y-25575965D01*
X49396727Y-25542809D01*
X49253663Y-25476097D01*
X49253659Y-25476096D01*
X49253655Y-25476094D01*
X49025413Y-25414938D01*
X49025403Y-25414936D01*
X48790001Y-25394341D01*
X48789999Y-25394341D01*
X48554596Y-25414936D01*
X48554586Y-25414938D01*
X48326344Y-25476094D01*
X48326335Y-25476098D01*
X48112171Y-25575964D01*
X48112169Y-25575965D01*
X47918597Y-25711505D01*
X47751505Y-25878597D01*
X47621575Y-26064158D01*
X47566998Y-26107783D01*
X47497500Y-26114977D01*
X47435145Y-26083454D01*
X47418425Y-26064158D01*
X47288494Y-25878597D01*
X47121402Y-25711506D01*
X47121395Y-25711501D01*
X46927834Y-25575967D01*
X46927830Y-25575965D01*
X46856727Y-25542809D01*
X46713663Y-25476097D01*
X46713659Y-25476096D01*
X46713655Y-25476094D01*
X46485413Y-25414938D01*
X46485403Y-25414936D01*
X46250001Y-25394341D01*
X46249999Y-25394341D01*
X46014596Y-25414936D01*
X46014586Y-25414938D01*
X45786344Y-25476094D01*
X45786335Y-25476098D01*
X45572171Y-25575964D01*
X45572169Y-25575965D01*
X45378597Y-25711505D01*
X45211505Y-25878597D01*
X45081575Y-26064158D01*
X45026998Y-26107783D01*
X44957500Y-26114977D01*
X44895145Y-26083454D01*
X44878425Y-26064158D01*
X44748494Y-25878597D01*
X44581402Y-25711506D01*
X44581395Y-25711501D01*
X44387834Y-25575967D01*
X44387830Y-25575965D01*
X44316727Y-25542809D01*
X44173663Y-25476097D01*
X44173659Y-25476096D01*
X44173655Y-25476094D01*
X43945413Y-25414938D01*
X43945403Y-25414936D01*
X43710001Y-25394341D01*
X43709999Y-25394341D01*
X43474596Y-25414936D01*
X43474586Y-25414938D01*
X43246344Y-25476094D01*
X43246335Y-25476098D01*
X43032171Y-25575964D01*
X43032169Y-25575965D01*
X42838597Y-25711505D01*
X42671505Y-25878597D01*
X42541575Y-26064158D01*
X42486998Y-26107783D01*
X42417500Y-26114977D01*
X42355145Y-26083454D01*
X42338425Y-26064158D01*
X42208494Y-25878597D01*
X42041402Y-25711506D01*
X42041395Y-25711501D01*
X41847834Y-25575967D01*
X41847830Y-25575965D01*
X41776727Y-25542809D01*
X41633663Y-25476097D01*
X41633659Y-25476096D01*
X41633655Y-25476094D01*
X41405413Y-25414938D01*
X41405403Y-25414936D01*
X41170001Y-25394341D01*
X41169999Y-25394341D01*
X40934596Y-25414936D01*
X40934586Y-25414938D01*
X40706344Y-25476094D01*
X40706335Y-25476098D01*
X40492171Y-25575964D01*
X40492169Y-25575965D01*
X40298597Y-25711505D01*
X40131505Y-25878597D01*
X40001575Y-26064158D01*
X39946998Y-26107783D01*
X39877500Y-26114977D01*
X39815145Y-26083454D01*
X39798425Y-26064158D01*
X39668494Y-25878597D01*
X39501402Y-25711506D01*
X39501395Y-25711501D01*
X39307834Y-25575967D01*
X39307830Y-25575965D01*
X39236727Y-25542809D01*
X39093663Y-25476097D01*
X39093659Y-25476096D01*
X39093655Y-25476094D01*
X38865413Y-25414938D01*
X38865403Y-25414936D01*
X38630001Y-25394341D01*
X38629999Y-25394341D01*
X38394596Y-25414936D01*
X38394586Y-25414938D01*
X38166344Y-25476094D01*
X38166335Y-25476098D01*
X37952171Y-25575964D01*
X37952169Y-25575965D01*
X37758597Y-25711505D01*
X37591505Y-25878597D01*
X37461575Y-26064158D01*
X37406998Y-26107783D01*
X37337500Y-26114977D01*
X37275145Y-26083454D01*
X37258425Y-26064158D01*
X37128494Y-25878597D01*
X36961402Y-25711506D01*
X36961395Y-25711501D01*
X36767834Y-25575967D01*
X36767830Y-25575965D01*
X36696727Y-25542809D01*
X36553663Y-25476097D01*
X36553659Y-25476096D01*
X36553655Y-25476094D01*
X36325413Y-25414938D01*
X36325403Y-25414936D01*
X36090001Y-25394341D01*
X36089999Y-25394341D01*
X35854596Y-25414936D01*
X35854586Y-25414938D01*
X35626344Y-25476094D01*
X35626335Y-25476098D01*
X35412171Y-25575964D01*
X35412169Y-25575965D01*
X35218597Y-25711505D01*
X35051505Y-25878597D01*
X34921575Y-26064158D01*
X34866998Y-26107783D01*
X34797500Y-26114977D01*
X34735145Y-26083454D01*
X34718425Y-26064158D01*
X34588494Y-25878597D01*
X34421402Y-25711506D01*
X34421395Y-25711501D01*
X34227834Y-25575967D01*
X34227830Y-25575965D01*
X34156727Y-25542809D01*
X34013663Y-25476097D01*
X34013659Y-25476096D01*
X34013655Y-25476094D01*
X33785413Y-25414938D01*
X33785403Y-25414936D01*
X33550001Y-25394341D01*
X33549999Y-25394341D01*
X33314596Y-25414936D01*
X33314586Y-25414938D01*
X33086344Y-25476094D01*
X33086335Y-25476098D01*
X32872171Y-25575964D01*
X32872169Y-25575965D01*
X32678600Y-25711503D01*
X32556673Y-25833430D01*
X32495350Y-25866914D01*
X32425658Y-25861930D01*
X32369725Y-25820058D01*
X32352810Y-25789081D01*
X32303797Y-25657671D01*
X32303793Y-25657664D01*
X32217547Y-25542455D01*
X32217544Y-25542452D01*
X32102335Y-25456206D01*
X32102328Y-25456202D01*
X31967482Y-25405908D01*
X31967483Y-25405908D01*
X31907883Y-25399501D01*
X31907881Y-25399500D01*
X31907873Y-25399500D01*
X31907864Y-25399500D01*
X30112129Y-25399500D01*
X30112123Y-25399501D01*
X30052516Y-25405908D01*
X29917671Y-25456202D01*
X29917664Y-25456206D01*
X29802455Y-25542452D01*
X29802452Y-25542455D01*
X29716206Y-25657664D01*
X29716202Y-25657671D01*
X29665908Y-25792517D01*
X29659501Y-25852116D01*
X29659500Y-25852135D01*
X29659500Y-25872356D01*
X29639815Y-25939395D01*
X29587011Y-25985150D01*
X29517853Y-25995094D01*
X29454297Y-25966069D01*
X29433925Y-25943480D01*
X29388491Y-25878594D01*
X29221402Y-25711506D01*
X29221395Y-25711501D01*
X29027834Y-25575967D01*
X29027830Y-25575965D01*
X28956727Y-25542809D01*
X28813663Y-25476097D01*
X28813659Y-25476096D01*
X28813655Y-25476094D01*
X28585413Y-25414938D01*
X28585403Y-25414936D01*
X28350001Y-25394341D01*
X28349999Y-25394341D01*
X28114596Y-25414936D01*
X28114586Y-25414938D01*
X27886344Y-25476094D01*
X27886335Y-25476098D01*
X27672171Y-25575964D01*
X27672169Y-25575965D01*
X27478597Y-25711505D01*
X27311505Y-25878597D01*
X27181575Y-26064158D01*
X27126998Y-26107783D01*
X27057500Y-26114977D01*
X26995145Y-26083454D01*
X26978425Y-26064158D01*
X26848494Y-25878597D01*
X26681402Y-25711506D01*
X26681395Y-25711501D01*
X26487834Y-25575967D01*
X26487830Y-25575965D01*
X26416727Y-25542809D01*
X26273663Y-25476097D01*
X26273659Y-25476096D01*
X26273655Y-25476094D01*
X26045413Y-25414938D01*
X26045403Y-25414936D01*
X25810001Y-25394341D01*
X25809999Y-25394341D01*
X25574596Y-25414936D01*
X25574586Y-25414938D01*
X25346344Y-25476094D01*
X25346335Y-25476098D01*
X25132171Y-25575964D01*
X25132169Y-25575965D01*
X24938597Y-25711505D01*
X24771505Y-25878597D01*
X24641575Y-26064158D01*
X24586998Y-26107783D01*
X24517500Y-26114977D01*
X24455145Y-26083454D01*
X24438425Y-26064158D01*
X24308494Y-25878597D01*
X24141402Y-25711506D01*
X24141395Y-25711501D01*
X23947834Y-25575967D01*
X23947830Y-25575965D01*
X23876727Y-25542809D01*
X23733663Y-25476097D01*
X23733659Y-25476096D01*
X23733655Y-25476094D01*
X23505413Y-25414938D01*
X23505403Y-25414936D01*
X23270001Y-25394341D01*
X23269999Y-25394341D01*
X23034596Y-25414936D01*
X23034586Y-25414938D01*
X22806344Y-25476094D01*
X22806335Y-25476098D01*
X22592171Y-25575964D01*
X22592169Y-25575965D01*
X22398597Y-25711505D01*
X22231505Y-25878597D01*
X22101575Y-26064158D01*
X22046998Y-26107783D01*
X21977500Y-26114977D01*
X21915145Y-26083454D01*
X21898425Y-26064158D01*
X21768494Y-25878597D01*
X21601402Y-25711506D01*
X21601395Y-25711501D01*
X21407834Y-25575967D01*
X21407830Y-25575965D01*
X21336727Y-25542809D01*
X21193663Y-25476097D01*
X21193659Y-25476096D01*
X21193655Y-25476094D01*
X20965413Y-25414938D01*
X20965403Y-25414936D01*
X20730001Y-25394341D01*
X20729999Y-25394341D01*
X20494596Y-25414936D01*
X20494586Y-25414938D01*
X20266344Y-25476094D01*
X20266335Y-25476098D01*
X20052171Y-25575964D01*
X20052169Y-25575965D01*
X19858597Y-25711505D01*
X19691505Y-25878597D01*
X19561575Y-26064158D01*
X19506998Y-26107783D01*
X19437500Y-26114977D01*
X19375145Y-26083454D01*
X19358425Y-26064158D01*
X19228494Y-25878597D01*
X19061402Y-25711506D01*
X19061395Y-25711501D01*
X18867834Y-25575967D01*
X18867830Y-25575965D01*
X18796727Y-25542809D01*
X18653663Y-25476097D01*
X18653659Y-25476096D01*
X18653655Y-25476094D01*
X18425413Y-25414938D01*
X18425403Y-25414936D01*
X18190001Y-25394341D01*
X18189999Y-25394341D01*
X17954596Y-25414936D01*
X17954586Y-25414938D01*
X17726344Y-25476094D01*
X17726335Y-25476098D01*
X17512171Y-25575964D01*
X17512169Y-25575965D01*
X17318597Y-25711505D01*
X17151505Y-25878597D01*
X17021575Y-26064158D01*
X16966998Y-26107783D01*
X16897500Y-26114977D01*
X16835145Y-26083454D01*
X16818425Y-26064158D01*
X16688494Y-25878597D01*
X16521402Y-25711506D01*
X16521395Y-25711501D01*
X16327834Y-25575967D01*
X16327830Y-25575965D01*
X16256727Y-25542809D01*
X16113663Y-25476097D01*
X16113659Y-25476096D01*
X16113655Y-25476094D01*
X15885413Y-25414938D01*
X15885403Y-25414936D01*
X15650001Y-25394341D01*
X15649999Y-25394341D01*
X15414596Y-25414936D01*
X15414586Y-25414938D01*
X15186344Y-25476094D01*
X15186335Y-25476098D01*
X14972171Y-25575964D01*
X14972169Y-25575965D01*
X14778597Y-25711505D01*
X14611505Y-25878597D01*
X14481575Y-26064158D01*
X14426998Y-26107783D01*
X14357500Y-26114977D01*
X14295145Y-26083454D01*
X14278425Y-26064158D01*
X14148494Y-25878597D01*
X13981402Y-25711506D01*
X13981395Y-25711501D01*
X13787834Y-25575967D01*
X13787830Y-25575965D01*
X13716727Y-25542809D01*
X13573663Y-25476097D01*
X13573659Y-25476096D01*
X13573655Y-25476094D01*
X13345413Y-25414938D01*
X13345403Y-25414936D01*
X13110001Y-25394341D01*
X13109999Y-25394341D01*
X12874596Y-25414936D01*
X12874586Y-25414938D01*
X12646344Y-25476094D01*
X12646335Y-25476098D01*
X12432171Y-25575964D01*
X12432169Y-25575965D01*
X12238600Y-25711503D01*
X12116673Y-25833430D01*
X12055350Y-25866914D01*
X11985658Y-25861930D01*
X11929725Y-25820058D01*
X11912810Y-25789081D01*
X11863797Y-25657671D01*
X11863793Y-25657664D01*
X11777547Y-25542455D01*
X11777544Y-25542452D01*
X11662335Y-25456206D01*
X11662328Y-25456202D01*
X11527482Y-25405908D01*
X11527483Y-25405908D01*
X11467883Y-25399501D01*
X11467881Y-25399500D01*
X11467873Y-25399500D01*
X11467864Y-25399500D01*
X9672129Y-25399500D01*
X9672123Y-25399501D01*
X9612516Y-25405908D01*
X9477671Y-25456202D01*
X9477664Y-25456206D01*
X9362455Y-25542452D01*
X9362452Y-25542455D01*
X9276206Y-25657664D01*
X9276202Y-25657671D01*
X9225908Y-25792517D01*
X9219501Y-25852116D01*
X9219500Y-25852135D01*
X9219500Y-27647870D01*
X9219501Y-27647876D01*
X9225346Y-27702247D01*
X9212939Y-27771006D01*
X9165328Y-27822143D01*
X9102056Y-27839500D01*
X4164758Y-27839500D01*
X4097719Y-27819815D01*
X4051964Y-27767011D01*
X4042020Y-27697853D01*
X4071045Y-27634297D01*
X4077077Y-27627819D01*
X4083495Y-27621401D01*
X4219035Y-27427830D01*
X4318903Y-27213663D01*
X4380063Y-26985408D01*
X4400659Y-26750000D01*
X4380063Y-26514592D01*
X4318903Y-26286337D01*
X4219035Y-26072171D01*
X4213425Y-26064158D01*
X4083494Y-25878597D01*
X3916402Y-25711506D01*
X3916395Y-25711501D01*
X3722834Y-25575967D01*
X3722830Y-25575965D01*
X3651727Y-25542809D01*
X3508663Y-25476097D01*
X3508659Y-25476096D01*
X3508655Y-25476094D01*
X3280413Y-25414938D01*
X3280403Y-25414936D01*
X3045001Y-25394341D01*
X3044999Y-25394341D01*
X2809596Y-25414936D01*
X2809586Y-25414938D01*
X2581344Y-25476094D01*
X2581335Y-25476098D01*
X2367171Y-25575964D01*
X2367169Y-25575965D01*
X2173600Y-25711503D01*
X2051284Y-25833819D01*
X1989961Y-25867303D01*
X1920269Y-25862319D01*
X1864336Y-25820447D01*
X1847421Y-25789470D01*
X1798354Y-25657913D01*
X1798350Y-25657906D01*
X1712190Y-25542812D01*
X1712187Y-25542809D01*
X1597093Y-25456649D01*
X1597086Y-25456645D01*
X1462379Y-25406403D01*
X1462372Y-25406401D01*
X1402844Y-25400000D01*
X755000Y-25400000D01*
X755000Y-26314498D01*
X647315Y-26265320D01*
X540763Y-26250000D01*
X469237Y-26250000D01*
X362685Y-26265320D01*
X255000Y-26314498D01*
X255000Y-25400000D01*
X-392845Y-25400000D01*
X-452373Y-25406401D01*
X-452380Y-25406403D01*
X-587087Y-25456645D01*
X-587094Y-25456649D01*
X-702188Y-25542809D01*
X-702191Y-25542812D01*
X-788351Y-25657906D01*
X-788355Y-25657913D01*
X-838597Y-25792620D01*
X-838599Y-25792627D01*
X-845000Y-25852155D01*
X-845000Y-26500000D01*
X71314Y-26500000D01*
X45507Y-26540156D01*
X5000Y-26678111D01*
X5000Y-26821889D01*
X45507Y-26959844D01*
X71314Y-27000000D01*
X-845000Y-27000000D01*
X-845000Y-27527836D01*
X-864685Y-27594875D01*
X-917489Y-27640630D01*
X-986647Y-27650574D01*
X-1016452Y-27642397D01*
X-1164060Y-27581257D01*
X-1194747Y-27568546D01*
X-1201012Y-27565529D01*
X-1464772Y-27419753D01*
X-1470664Y-27416051D01*
X-1716442Y-27241662D01*
X-1721883Y-27237324D01*
X-1946592Y-27036511D01*
X-1951512Y-27031591D01*
X-2152325Y-26806882D01*
X-2156663Y-26801441D01*
X-2331052Y-26555663D01*
X-2334754Y-26549771D01*
X-2406917Y-26419202D01*
X-2480534Y-26286002D01*
X-2483544Y-26279754D01*
X-2598874Y-26001320D01*
X-2601171Y-25994756D01*
X-2684600Y-25705167D01*
X-2686148Y-25698383D01*
X-2712642Y-25542452D01*
X-2736631Y-25401269D01*
X-2737407Y-25394376D01*
X-2745938Y-25242467D01*
X-2754402Y-25091735D01*
X-2754500Y-25088258D01*
X-2754500Y-21230003D01*
X-2185215Y-21230003D01*
X-2178211Y-21305596D01*
X-2178017Y-21308365D01*
X-2174255Y-21387328D01*
X-2174254Y-21387330D01*
X-2170532Y-21402675D01*
X-2167567Y-21420458D01*
X-2166397Y-21433083D01*
X-2144393Y-21510421D01*
X-2132563Y-21559183D01*
X-2124705Y-21591573D01*
X-2124703Y-21591579D01*
X-2119579Y-21602799D01*
X-2113109Y-21620369D01*
X-2110581Y-21629253D01*
X-2073365Y-21703992D01*
X-2037395Y-21782756D01*
X-2032247Y-21789984D01*
X-2022252Y-21806643D01*
X-2019673Y-21811821D01*
X-1967489Y-21880924D01*
X-1915486Y-21953952D01*
X-1911557Y-21957698D01*
X-1898178Y-21972707D01*
X-1896764Y-21974579D01*
X-1830478Y-22035006D01*
X-1763378Y-22098986D01*
X-1763377Y-22098986D01*
X-1763377Y-22098987D01*
X-1761715Y-22100055D01*
X-1750648Y-22108559D01*
X-1750620Y-22108523D01*
X-1746048Y-22111975D01*
X-1746041Y-22111981D01*
X-1714742Y-22131360D01*
X-1667159Y-22160823D01*
X-1626012Y-22187266D01*
X-1586572Y-22212613D01*
X-1586568Y-22212614D01*
X-1581316Y-22215323D01*
X-1581353Y-22215394D01*
X-1577936Y-22217120D01*
X-1577771Y-22216791D01*
X-1572642Y-22219345D01*
X-1572637Y-22219348D01*
X-1483272Y-22253968D01*
X-1391457Y-22290725D01*
X-1391239Y-22290767D01*
X-1386011Y-22292012D01*
X-1382463Y-22293021D01*
X-1382456Y-22293024D01*
X-1285233Y-22311198D01*
X-1185086Y-22330500D01*
X-1185085Y-22330500D01*
X-978024Y-22330500D01*
X-929004Y-22321336D01*
X-923522Y-22320564D01*
X-903774Y-22318677D01*
X-870782Y-22315528D01*
X-826198Y-22302435D01*
X-820163Y-22300989D01*
X-777544Y-22293024D01*
X-727970Y-22273818D01*
X-723104Y-22272164D01*
X-669125Y-22256316D01*
X-630731Y-22236521D01*
X-624752Y-22233832D01*
X-587363Y-22219348D01*
X-539414Y-22189657D01*
X-535209Y-22187276D01*
X-482318Y-22160011D01*
X-450926Y-22135322D01*
X-445278Y-22131371D01*
X-413959Y-22111981D01*
X-369845Y-22071764D01*
X-366447Y-22068886D01*
X-317114Y-22030092D01*
X-293116Y-22002395D01*
X-288045Y-21997193D01*
X-263236Y-21974579D01*
X-225307Y-21924350D01*
X-222704Y-21921136D01*
X-179481Y-21871256D01*
X-162790Y-21842344D01*
X-158576Y-21835984D01*
X-140327Y-21811821D01*
X-110815Y-21752550D01*
X-109051Y-21749265D01*
X-74396Y-21689244D01*
X-64544Y-21660775D01*
X-61457Y-21653425D01*
X-49418Y-21629250D01*
X-30423Y-21562485D01*
X-29382Y-21559183D01*
X-5656Y-21490633D01*
X-1835Y-21464048D01*
X-99Y-21455911D01*
X5823Y-21435099D01*
X6397Y-21433083D01*
X13103Y-21360692D01*
X13467Y-21357619D01*
X24254Y-21282602D01*
X23132Y-21259056D01*
X23326Y-21250377D01*
X25215Y-21230000D01*
X18208Y-21154400D01*
X18014Y-21151628D01*
X14254Y-21072669D01*
X10534Y-21057338D01*
X7565Y-21039531D01*
X6397Y-21026917D01*
X-15608Y-20949578D01*
X-35296Y-20868424D01*
X-40421Y-20857202D01*
X-46893Y-20839627D01*
X-49418Y-20830750D01*
X-86636Y-20756007D01*
X-122604Y-20677247D01*
X-127757Y-20670011D01*
X-137751Y-20653353D01*
X-140327Y-20648179D01*
X-140331Y-20648173D01*
X-192512Y-20579075D01*
X-244512Y-20506050D01*
X-248448Y-20502297D01*
X-261825Y-20487289D01*
X-263237Y-20485420D01*
X-263238Y-20485418D01*
X-329522Y-20424993D01*
X-396613Y-20361022D01*
X-396618Y-20361017D01*
X-396622Y-20361014D01*
X-398292Y-20359940D01*
X-409353Y-20351441D01*
X-409379Y-20351477D01*
X-413952Y-20348024D01*
X-413958Y-20348020D01*
X-413959Y-20348019D01*
X-492842Y-20299177D01*
X-573428Y-20247387D01*
X-573431Y-20247386D01*
X-573432Y-20247385D01*
X-578679Y-20244680D01*
X-578644Y-20244610D01*
X-582080Y-20242874D01*
X-582242Y-20243202D01*
X-587359Y-20240653D01*
X-676729Y-20206031D01*
X-768545Y-20169274D01*
X-768764Y-20169232D01*
X-773981Y-20167989D01*
X-777545Y-20166975D01*
X-874768Y-20148801D01*
X-974914Y-20129500D01*
X-974915Y-20129500D01*
X-978024Y-20129500D01*
X-1181976Y-20129500D01*
X-1181982Y-20129500D01*
X-1230996Y-20138662D01*
X-1236494Y-20139436D01*
X-1289215Y-20144471D01*
X-1333774Y-20157554D01*
X-1339849Y-20159010D01*
X-1376501Y-20165862D01*
X-1382456Y-20166976D01*
X-1382458Y-20166976D01*
X-1382465Y-20166978D01*
X-1424094Y-20183105D01*
X-1431996Y-20186167D01*
X-1436920Y-20187840D01*
X-1490865Y-20203680D01*
X-1490884Y-20203687D01*
X-1529250Y-20223466D01*
X-1535264Y-20226172D01*
X-1572639Y-20240652D01*
X-1620573Y-20270332D01*
X-1624802Y-20272726D01*
X-1677679Y-20299986D01*
X-1709055Y-20324659D01*
X-1714743Y-20328639D01*
X-1746041Y-20348018D01*
X-1746044Y-20348020D01*
X-1790131Y-20388211D01*
X-1793574Y-20391127D01*
X-1842884Y-20429904D01*
X-1842885Y-20429906D01*
X-1866880Y-20457597D01*
X-1871969Y-20462816D01*
X-1896761Y-20485417D01*
X-1934678Y-20535625D01*
X-1937298Y-20538863D01*
X-1980518Y-20588741D01*
X-1997208Y-20617647D01*
X-2001425Y-20624013D01*
X-2019674Y-20648180D01*
X-2049163Y-20707399D01*
X-2050968Y-20710762D01*
X-2085603Y-20770752D01*
X-2085606Y-20770758D01*
X-2095452Y-20799208D01*
X-2098543Y-20806569D01*
X-2110584Y-20830753D01*
X-2110584Y-20830754D01*
X-2129578Y-20897509D01*
X-2130621Y-20900817D01*
X-2154344Y-20969365D01*
X-2154345Y-20969369D01*
X-2158166Y-20995939D01*
X-2159903Y-21004088D01*
X-2166397Y-21026915D01*
X-2166397Y-21026917D01*
X-2173103Y-21099281D01*
X-2173470Y-21102383D01*
X-2184254Y-21177396D01*
X-2184255Y-21177402D01*
X-2183134Y-21200950D01*
X-2183328Y-21209624D01*
X-2185215Y-21230002D01*
X-2185215Y-21230003D01*
X-2754500Y-21230003D01*
X-2754500Y-6930003D01*
X-2195215Y-6930003D01*
X-2188211Y-7005596D01*
X-2188017Y-7008365D01*
X-2184255Y-7087328D01*
X-2184254Y-7087330D01*
X-2180532Y-7102675D01*
X-2177567Y-7120458D01*
X-2176397Y-7133083D01*
X-2154393Y-7210421D01*
X-2142563Y-7259183D01*
X-2134705Y-7291573D01*
X-2134703Y-7291579D01*
X-2129579Y-7302799D01*
X-2123109Y-7320369D01*
X-2120581Y-7329253D01*
X-2083365Y-7403992D01*
X-2047395Y-7482756D01*
X-2042247Y-7489984D01*
X-2032252Y-7506643D01*
X-2029673Y-7511821D01*
X-1977489Y-7580924D01*
X-1925486Y-7653952D01*
X-1921557Y-7657698D01*
X-1908178Y-7672707D01*
X-1906764Y-7674579D01*
X-1840478Y-7735006D01*
X-1773378Y-7798986D01*
X-1773377Y-7798986D01*
X-1773377Y-7798987D01*
X-1771715Y-7800055D01*
X-1760648Y-7808559D01*
X-1760620Y-7808523D01*
X-1756048Y-7811975D01*
X-1756041Y-7811981D01*
X-1724742Y-7831360D01*
X-1677159Y-7860823D01*
X-1636012Y-7887266D01*
X-1596572Y-7912613D01*
X-1596568Y-7912614D01*
X-1591316Y-7915323D01*
X-1591353Y-7915394D01*
X-1587936Y-7917120D01*
X-1587771Y-7916791D01*
X-1582642Y-7919345D01*
X-1582637Y-7919348D01*
X-1493272Y-7953968D01*
X-1401457Y-7990725D01*
X-1401239Y-7990767D01*
X-1396011Y-7992012D01*
X-1392463Y-7993021D01*
X-1392456Y-7993024D01*
X-1295233Y-8011198D01*
X-1195086Y-8030500D01*
X-1195085Y-8030500D01*
X-988024Y-8030500D01*
X-939004Y-8021336D01*
X-933522Y-8020564D01*
X-913774Y-8018677D01*
X-880782Y-8015528D01*
X-836198Y-8002435D01*
X-830163Y-8000989D01*
X-787544Y-7993024D01*
X-737970Y-7973818D01*
X-733104Y-7972164D01*
X-679125Y-7956316D01*
X-640731Y-7936521D01*
X-634752Y-7933832D01*
X-597363Y-7919348D01*
X-549414Y-7889657D01*
X-545209Y-7887276D01*
X-492318Y-7860011D01*
X-460926Y-7835322D01*
X-455278Y-7831371D01*
X-423959Y-7811981D01*
X-379845Y-7771764D01*
X-376447Y-7768886D01*
X-327114Y-7730092D01*
X-303116Y-7702395D01*
X-298045Y-7697193D01*
X-273236Y-7674579D01*
X-235307Y-7624350D01*
X-232704Y-7621136D01*
X-189481Y-7571256D01*
X-188756Y-7570000D01*
X6504901Y-7570000D01*
X6523252Y-7756331D01*
X6523253Y-7756333D01*
X6577604Y-7935502D01*
X6665862Y-8100623D01*
X6665864Y-8100626D01*
X6784642Y-8245357D01*
X6929373Y-8364135D01*
X6929376Y-8364137D01*
X7094497Y-8452395D01*
X7094499Y-8452396D01*
X7273666Y-8506746D01*
X7273668Y-8506747D01*
X7290374Y-8508392D01*
X7460000Y-8525099D01*
X7646331Y-8506747D01*
X7730673Y-8481160D01*
X7749738Y-8477540D01*
X7749673Y-8477112D01*
X7754050Y-8476438D01*
X7754064Y-8476437D01*
X8425190Y-8323595D01*
X8452725Y-8320500D01*
X11627770Y-8320500D01*
X11694809Y-8340185D01*
X11715451Y-8356819D01*
X16087954Y-12729321D01*
X16099473Y-12742602D01*
X16194340Y-12869091D01*
X16462937Y-13227220D01*
X16467023Y-13233410D01*
X16478141Y-13252665D01*
X16499517Y-13276405D01*
X16503036Y-13280684D01*
X16515320Y-13297064D01*
X16526359Y-13310761D01*
X16533176Y-13318643D01*
X16565849Y-13350290D01*
X16568774Y-13353323D01*
X16597770Y-13385526D01*
X16742407Y-13490612D01*
X16905733Y-13563329D01*
X17080609Y-13600500D01*
X17080610Y-13600500D01*
X17259389Y-13600500D01*
X17259391Y-13600500D01*
X17295200Y-13592887D01*
X17299285Y-13592162D01*
X17931443Y-13501855D01*
X17931474Y-13501849D01*
X17932202Y-13501746D01*
X17949738Y-13500500D01*
X23956295Y-13500500D01*
X23974265Y-13501809D01*
X23998023Y-13505289D01*
X24050068Y-13500735D01*
X24055470Y-13500500D01*
X24063704Y-13500500D01*
X24063709Y-13500500D01*
X24075327Y-13499141D01*
X24096276Y-13496693D01*
X24109028Y-13495577D01*
X24172797Y-13489999D01*
X24172805Y-13489996D01*
X24179866Y-13488539D01*
X24179878Y-13488598D01*
X24187243Y-13486965D01*
X24187229Y-13486906D01*
X24194246Y-13485241D01*
X24194255Y-13485241D01*
X24266423Y-13458974D01*
X24339334Y-13434814D01*
X24339343Y-13434807D01*
X24345882Y-13431760D01*
X24345908Y-13431816D01*
X24352690Y-13428532D01*
X24352663Y-13428478D01*
X24359106Y-13425240D01*
X24359117Y-13425237D01*
X24423283Y-13383034D01*
X24488656Y-13342712D01*
X24488662Y-13342705D01*
X24494325Y-13338229D01*
X24494362Y-13338277D01*
X24500204Y-13333518D01*
X24500164Y-13333471D01*
X24505691Y-13328832D01*
X24505696Y-13328830D01*
X24558386Y-13272981D01*
X27504548Y-10326819D01*
X27565871Y-10293334D01*
X27592229Y-10290500D01*
X28245636Y-10290500D01*
X28312675Y-10310185D01*
X28358430Y-10362989D01*
X28368374Y-10432147D01*
X28361818Y-10457833D01*
X28320908Y-10567517D01*
X28314501Y-10627116D01*
X28314501Y-10627123D01*
X28314500Y-10627135D01*
X28314500Y-12422870D01*
X28314501Y-12422876D01*
X28320908Y-12482483D01*
X28371202Y-12617328D01*
X28371206Y-12617335D01*
X28457452Y-12732544D01*
X28457455Y-12732547D01*
X28572664Y-12818793D01*
X28572671Y-12818797D01*
X28704081Y-12867810D01*
X28760015Y-12909681D01*
X28784432Y-12975145D01*
X28769580Y-13043418D01*
X28748430Y-13071673D01*
X28626503Y-13193600D01*
X28490965Y-13387169D01*
X28490964Y-13387171D01*
X28391098Y-13601335D01*
X28391094Y-13601344D01*
X28329938Y-13829586D01*
X28329936Y-13829596D01*
X28309341Y-14064999D01*
X28309341Y-14065000D01*
X28328562Y-14284692D01*
X28314795Y-14353192D01*
X28266180Y-14403375D01*
X28205034Y-14419500D01*
X17949731Y-14419500D01*
X17932194Y-14418254D01*
X17931449Y-14418147D01*
X17931444Y-14418146D01*
X17476775Y-14353192D01*
X17299303Y-14327838D01*
X17295181Y-14327106D01*
X17259393Y-14319500D01*
X17259391Y-14319500D01*
X17242558Y-14319500D01*
X17235931Y-14319145D01*
X17228575Y-14318355D01*
X17218177Y-14317602D01*
X17218175Y-14317602D01*
X17128419Y-14319039D01*
X17121441Y-14319500D01*
X17080609Y-14319500D01*
X17049954Y-14326015D01*
X16905733Y-14356670D01*
X16905728Y-14356672D01*
X16742408Y-14429388D01*
X16742403Y-14429390D01*
X16597776Y-14534468D01*
X16597768Y-14534475D01*
X16545545Y-14592473D01*
X16541975Y-14596124D01*
X16518981Y-14617778D01*
X16518979Y-14617779D01*
X16491150Y-14652716D01*
X16488735Y-14655567D01*
X16478141Y-14667335D01*
X16475149Y-14671453D01*
X16468778Y-14680801D01*
X16097352Y-15147087D01*
X16086943Y-15160853D01*
X16081323Y-15167308D01*
X11555451Y-19693181D01*
X11494128Y-19726666D01*
X11467770Y-19729500D01*
X8462729Y-19729500D01*
X8435194Y-19726404D01*
X7764064Y-19573562D01*
X7753374Y-19571249D01*
X7753373Y-19571248D01*
X7748720Y-19570242D01*
X7748740Y-19570148D01*
X7735298Y-19567206D01*
X7656331Y-19543253D01*
X7656321Y-19543252D01*
X7470000Y-19524901D01*
X7469999Y-19524901D01*
X7283668Y-19543252D01*
X7283666Y-19543253D01*
X7104497Y-19597604D01*
X6939376Y-19685862D01*
X6939373Y-19685864D01*
X6794642Y-19804642D01*
X6675864Y-19949373D01*
X6675862Y-19949376D01*
X6587604Y-20114497D01*
X6533253Y-20293666D01*
X6533252Y-20293668D01*
X6514901Y-20480000D01*
X6533252Y-20666331D01*
X6533253Y-20666333D01*
X6587604Y-20845502D01*
X6675862Y-21010623D01*
X6675864Y-21010626D01*
X6794642Y-21155357D01*
X6939373Y-21274135D01*
X6939376Y-21274137D01*
X7003413Y-21308365D01*
X7104499Y-21362396D01*
X7266227Y-21411456D01*
X7283666Y-21416746D01*
X7283668Y-21416747D01*
X7300374Y-21418392D01*
X7470000Y-21435099D01*
X7656331Y-21416747D01*
X7740673Y-21391160D01*
X7759738Y-21387540D01*
X7759673Y-21387112D01*
X7764050Y-21386438D01*
X7764064Y-21386437D01*
X8435190Y-21233595D01*
X8462725Y-21230500D01*
X11766295Y-21230500D01*
X11784265Y-21231809D01*
X11808023Y-21235289D01*
X11860068Y-21230735D01*
X11865470Y-21230500D01*
X11873704Y-21230500D01*
X11873709Y-21230500D01*
X11877958Y-21230003D01*
X49364785Y-21230003D01*
X49371789Y-21305596D01*
X49371983Y-21308365D01*
X49375745Y-21387328D01*
X49375746Y-21387330D01*
X49379468Y-21402675D01*
X49382433Y-21420458D01*
X49383603Y-21433083D01*
X49405607Y-21510421D01*
X49417437Y-21559183D01*
X49425295Y-21591573D01*
X49425297Y-21591579D01*
X49430421Y-21602799D01*
X49436891Y-21620369D01*
X49439419Y-21629253D01*
X49476635Y-21703992D01*
X49512605Y-21782756D01*
X49517753Y-21789984D01*
X49527748Y-21806643D01*
X49530327Y-21811821D01*
X49582511Y-21880924D01*
X49634514Y-21953952D01*
X49638443Y-21957698D01*
X49651822Y-21972707D01*
X49653236Y-21974579D01*
X49719522Y-22035006D01*
X49786622Y-22098986D01*
X49786623Y-22098986D01*
X49786623Y-22098987D01*
X49788285Y-22100055D01*
X49799352Y-22108559D01*
X49799380Y-22108523D01*
X49803952Y-22111975D01*
X49803959Y-22111981D01*
X49835258Y-22131360D01*
X49882841Y-22160823D01*
X49923988Y-22187266D01*
X49963428Y-22212613D01*
X49963432Y-22212614D01*
X49968684Y-22215323D01*
X49968647Y-22215394D01*
X49972064Y-22217120D01*
X49972229Y-22216791D01*
X49977358Y-22219345D01*
X49977363Y-22219348D01*
X50066728Y-22253968D01*
X50158543Y-22290725D01*
X50158761Y-22290767D01*
X50163989Y-22292012D01*
X50167537Y-22293021D01*
X50167544Y-22293024D01*
X50264767Y-22311198D01*
X50364914Y-22330500D01*
X50364915Y-22330500D01*
X50571976Y-22330500D01*
X50620996Y-22321336D01*
X50626478Y-22320564D01*
X50646226Y-22318677D01*
X50679218Y-22315528D01*
X50723802Y-22302435D01*
X50729837Y-22300989D01*
X50772456Y-22293024D01*
X50822030Y-22273818D01*
X50826896Y-22272164D01*
X50880875Y-22256316D01*
X50919269Y-22236521D01*
X50925248Y-22233832D01*
X50962637Y-22219348D01*
X51010586Y-22189657D01*
X51014791Y-22187276D01*
X51067682Y-22160011D01*
X51099074Y-22135322D01*
X51104722Y-22131371D01*
X51136041Y-22111981D01*
X51180155Y-22071764D01*
X51183553Y-22068886D01*
X51232886Y-22030092D01*
X51256884Y-22002395D01*
X51261955Y-21997193D01*
X51286764Y-21974579D01*
X51324693Y-21924350D01*
X51327296Y-21921136D01*
X51370519Y-21871256D01*
X51387210Y-21842344D01*
X51391424Y-21835984D01*
X51409673Y-21811821D01*
X51439185Y-21752550D01*
X51440949Y-21749265D01*
X51475604Y-21689244D01*
X51485456Y-21660775D01*
X51488543Y-21653425D01*
X51500582Y-21629250D01*
X51519577Y-21562485D01*
X51520618Y-21559183D01*
X51544344Y-21490633D01*
X51548165Y-21464048D01*
X51549901Y-21455911D01*
X51555823Y-21435099D01*
X51556397Y-21433083D01*
X51563103Y-21360692D01*
X51563467Y-21357619D01*
X51574254Y-21282602D01*
X51573132Y-21259056D01*
X51573326Y-21250377D01*
X51575215Y-21230000D01*
X51568208Y-21154400D01*
X51568014Y-21151628D01*
X51564254Y-21072669D01*
X51560534Y-21057338D01*
X51557565Y-21039531D01*
X51556397Y-21026917D01*
X51534392Y-20949578D01*
X51514704Y-20868424D01*
X51509579Y-20857202D01*
X51503107Y-20839627D01*
X51500582Y-20830750D01*
X51463364Y-20756007D01*
X51427396Y-20677247D01*
X51422243Y-20670011D01*
X51412249Y-20653353D01*
X51409673Y-20648179D01*
X51409669Y-20648173D01*
X51357488Y-20579075D01*
X51305488Y-20506050D01*
X51301552Y-20502297D01*
X51288175Y-20487289D01*
X51286763Y-20485420D01*
X51286762Y-20485418D01*
X51220478Y-20424993D01*
X51153387Y-20361022D01*
X51153382Y-20361017D01*
X51153378Y-20361014D01*
X51151708Y-20359940D01*
X51140647Y-20351441D01*
X51140621Y-20351477D01*
X51136048Y-20348024D01*
X51136042Y-20348020D01*
X51136041Y-20348019D01*
X51057158Y-20299177D01*
X50976572Y-20247387D01*
X50976569Y-20247386D01*
X50976568Y-20247385D01*
X50971321Y-20244680D01*
X50971356Y-20244610D01*
X50967920Y-20242874D01*
X50967758Y-20243202D01*
X50962641Y-20240653D01*
X50873271Y-20206031D01*
X50781455Y-20169274D01*
X50781236Y-20169232D01*
X50776019Y-20167989D01*
X50772455Y-20166975D01*
X50675232Y-20148801D01*
X50575086Y-20129500D01*
X50575085Y-20129500D01*
X50571976Y-20129500D01*
X50368024Y-20129500D01*
X50368018Y-20129500D01*
X50319004Y-20138662D01*
X50313506Y-20139436D01*
X50260785Y-20144471D01*
X50216226Y-20157554D01*
X50210151Y-20159010D01*
X50173499Y-20165862D01*
X50167544Y-20166976D01*
X50167542Y-20166976D01*
X50167535Y-20166978D01*
X50125906Y-20183105D01*
X50118004Y-20186167D01*
X50113080Y-20187840D01*
X50059135Y-20203680D01*
X50059116Y-20203687D01*
X50020750Y-20223466D01*
X50014736Y-20226172D01*
X49977361Y-20240652D01*
X49929427Y-20270332D01*
X49925198Y-20272726D01*
X49872321Y-20299986D01*
X49840945Y-20324659D01*
X49835257Y-20328639D01*
X49803959Y-20348018D01*
X49803956Y-20348020D01*
X49759869Y-20388211D01*
X49756426Y-20391127D01*
X49707116Y-20429904D01*
X49707115Y-20429906D01*
X49683120Y-20457597D01*
X49678031Y-20462816D01*
X49653239Y-20485417D01*
X49615322Y-20535625D01*
X49612702Y-20538863D01*
X49569482Y-20588741D01*
X49552792Y-20617647D01*
X49548575Y-20624013D01*
X49530326Y-20648180D01*
X49500837Y-20707399D01*
X49499032Y-20710762D01*
X49464397Y-20770752D01*
X49464394Y-20770758D01*
X49454548Y-20799208D01*
X49451457Y-20806569D01*
X49439416Y-20830753D01*
X49439416Y-20830754D01*
X49420422Y-20897509D01*
X49419379Y-20900817D01*
X49395656Y-20969365D01*
X49395655Y-20969369D01*
X49391834Y-20995939D01*
X49390097Y-21004088D01*
X49383603Y-21026915D01*
X49383603Y-21026917D01*
X49376897Y-21099281D01*
X49376530Y-21102383D01*
X49365746Y-21177396D01*
X49365745Y-21177402D01*
X49366866Y-21200950D01*
X49366672Y-21209624D01*
X49364785Y-21230002D01*
X49364785Y-21230003D01*
X11877958Y-21230003D01*
X11885327Y-21229141D01*
X11906276Y-21226693D01*
X11919028Y-21225577D01*
X11982797Y-21219999D01*
X11982805Y-21219996D01*
X11989866Y-21218539D01*
X11989878Y-21218598D01*
X11997243Y-21216965D01*
X11997229Y-21216906D01*
X12004246Y-21215241D01*
X12004255Y-21215241D01*
X12076423Y-21188974D01*
X12149334Y-21164814D01*
X12149343Y-21164807D01*
X12155882Y-21161760D01*
X12155908Y-21161816D01*
X12162690Y-21158532D01*
X12162663Y-21158478D01*
X12169106Y-21155240D01*
X12169117Y-21155237D01*
X12233283Y-21113034D01*
X12298656Y-21072712D01*
X12298662Y-21072705D01*
X12304325Y-21068229D01*
X12304363Y-21068277D01*
X12310200Y-21063522D01*
X12310161Y-21063475D01*
X12315696Y-21058830D01*
X12368385Y-21002983D01*
X15894972Y-17476395D01*
X17134921Y-16236445D01*
X17151258Y-16222707D01*
X17464883Y-16002143D01*
X17518672Y-15980821D01*
X17931443Y-15921855D01*
X17931474Y-15921849D01*
X17932202Y-15921746D01*
X17949738Y-15920500D01*
X27802805Y-15920500D01*
X27869844Y-15940185D01*
X27915599Y-15992989D01*
X27916311Y-15994575D01*
X28412319Y-17123191D01*
X28433893Y-17166520D01*
X28433896Y-17166524D01*
X28437021Y-17171538D01*
X28436819Y-17171663D01*
X28446853Y-17188233D01*
X28490964Y-17282829D01*
X28490965Y-17282831D01*
X28596242Y-17433182D01*
X28626505Y-17476401D01*
X28793599Y-17643495D01*
X28890384Y-17711265D01*
X28987165Y-17779032D01*
X28987167Y-17779033D01*
X28987170Y-17779035D01*
X29201337Y-17878903D01*
X29429592Y-17940063D01*
X29617918Y-17956539D01*
X29664999Y-17960659D01*
X29665000Y-17960659D01*
X29665001Y-17960659D01*
X29704234Y-17957226D01*
X29900408Y-17940063D01*
X30128663Y-17878903D01*
X30342830Y-17779035D01*
X30536401Y-17643495D01*
X30703495Y-17476401D01*
X30839035Y-17282830D01*
X30899353Y-17153474D01*
X30902903Y-17146923D01*
X30917680Y-17123191D01*
X31401468Y-16022382D01*
X31413673Y-15994610D01*
X31458667Y-15941156D01*
X31525418Y-15920513D01*
X31527194Y-15920500D01*
X36840262Y-15920500D01*
X36857798Y-15921746D01*
X36858553Y-15921853D01*
X36858557Y-15921855D01*
X37490695Y-16012159D01*
X37494793Y-16012886D01*
X37530609Y-16020500D01*
X37547454Y-16020500D01*
X37554089Y-16020855D01*
X37561273Y-16021629D01*
X37571627Y-16022383D01*
X37636278Y-16021359D01*
X37661570Y-16020960D01*
X37668555Y-16020500D01*
X37709389Y-16020500D01*
X37709391Y-16020500D01*
X37884267Y-15983329D01*
X38047593Y-15910612D01*
X38192230Y-15805526D01*
X38311859Y-15672665D01*
X38401250Y-15517835D01*
X38456497Y-15347803D01*
X38475185Y-15170000D01*
X38456497Y-14992197D01*
X38401250Y-14822165D01*
X38311859Y-14667335D01*
X38244453Y-14592473D01*
X38192235Y-14534478D01*
X38192232Y-14534476D01*
X38192231Y-14534475D01*
X38192230Y-14534474D01*
X38047593Y-14429388D01*
X37884267Y-14356671D01*
X37884265Y-14356670D01*
X37747240Y-14327545D01*
X37709391Y-14319500D01*
X37530609Y-14319500D01*
X37530605Y-14319500D01*
X37494800Y-14327109D01*
X37490679Y-14327841D01*
X36857800Y-14418254D01*
X36840263Y-14419500D01*
X31163705Y-14419500D01*
X31145735Y-14418191D01*
X31139420Y-14417266D01*
X31121977Y-14414711D01*
X31121976Y-14414711D01*
X31121969Y-14414710D01*
X31121757Y-14414704D01*
X31121618Y-14414658D01*
X31114833Y-14413665D01*
X31115002Y-14412504D01*
X31055321Y-14393069D01*
X31011129Y-14338951D01*
X31001852Y-14279952D01*
X31020659Y-14065000D01*
X31000063Y-13829592D01*
X30938903Y-13601337D01*
X30839035Y-13387171D01*
X30838959Y-13387063D01*
X30703496Y-13193600D01*
X30697725Y-13187829D01*
X30581567Y-13071671D01*
X30548084Y-13010351D01*
X30553068Y-12940659D01*
X30594939Y-12884725D01*
X30625915Y-12867810D01*
X30757331Y-12818796D01*
X30872546Y-12732546D01*
X30958796Y-12617331D01*
X31009091Y-12482483D01*
X31015500Y-12422873D01*
X31015499Y-10627128D01*
X31009091Y-10567517D01*
X30968182Y-10457833D01*
X30963198Y-10388141D01*
X30996683Y-10326818D01*
X31058007Y-10293334D01*
X31084364Y-10290500D01*
X33947770Y-10290500D01*
X34014809Y-10310185D01*
X34035451Y-10326819D01*
X36527960Y-12819328D01*
X36539479Y-12832609D01*
X36902928Y-13317209D01*
X36907024Y-13323412D01*
X36915217Y-13337602D01*
X36918141Y-13342665D01*
X36939517Y-13366405D01*
X36943036Y-13370684D01*
X36955320Y-13387064D01*
X36966359Y-13400761D01*
X36973176Y-13408643D01*
X37005849Y-13440290D01*
X37008774Y-13443323D01*
X37037770Y-13475526D01*
X37182407Y-13580612D01*
X37345733Y-13653329D01*
X37520609Y-13690500D01*
X37520610Y-13690500D01*
X37699389Y-13690500D01*
X37699391Y-13690500D01*
X37874267Y-13653329D01*
X38037593Y-13580612D01*
X38182230Y-13475526D01*
X38301859Y-13342665D01*
X38391250Y-13187835D01*
X38446497Y-13017803D01*
X38465185Y-12840000D01*
X38446497Y-12662197D01*
X38391250Y-12492165D01*
X38301859Y-12337335D01*
X38182230Y-12204474D01*
X38159494Y-12187955D01*
X38155300Y-12184621D01*
X38150020Y-12180037D01*
X37602603Y-11769474D01*
X37589322Y-11757955D01*
X34885729Y-9054361D01*
X34873949Y-9040730D01*
X34866482Y-9030701D01*
X34859612Y-9021472D01*
X34859610Y-9021470D01*
X34819587Y-8987886D01*
X34815612Y-8984244D01*
X34812690Y-8981322D01*
X34809780Y-8978411D01*
X34784040Y-8958059D01*
X34725209Y-8908694D01*
X34719180Y-8904729D01*
X34719212Y-8904680D01*
X34712853Y-8900628D01*
X34712822Y-8900679D01*
X34706680Y-8896891D01*
X34706678Y-8896890D01*
X34706677Y-8896889D01*
X34667474Y-8878608D01*
X34637058Y-8864424D01*
X34602894Y-8847267D01*
X34568433Y-8829960D01*
X34568431Y-8829959D01*
X34568430Y-8829959D01*
X34561645Y-8827489D01*
X34561665Y-8827433D01*
X34554549Y-8824959D01*
X34554531Y-8825015D01*
X34547671Y-8822742D01*
X34519841Y-8816996D01*
X34472434Y-8807207D01*
X34423472Y-8795603D01*
X34397719Y-8789499D01*
X34390547Y-8788661D01*
X34390553Y-8788601D01*
X34383055Y-8787835D01*
X34383050Y-8787895D01*
X34375860Y-8787265D01*
X34299083Y-8789500D01*
X27293708Y-8789500D01*
X27275737Y-8788191D01*
X27251979Y-8784711D01*
X27251973Y-8784710D01*
X27207512Y-8788601D01*
X27199931Y-8789264D01*
X27194530Y-8789500D01*
X27186289Y-8789500D01*
X27164579Y-8792037D01*
X27153724Y-8793306D01*
X27138419Y-8794645D01*
X27077199Y-8800001D01*
X27070132Y-8801460D01*
X27070120Y-8801404D01*
X27062763Y-8803035D01*
X27062777Y-8803092D01*
X27055743Y-8804759D01*
X26983575Y-8831025D01*
X26910675Y-8855181D01*
X26904126Y-8858236D01*
X26904101Y-8858183D01*
X26897308Y-8861471D01*
X26897334Y-8861523D01*
X26890880Y-8864764D01*
X26826708Y-8906971D01*
X26761347Y-8947285D01*
X26755683Y-8951765D01*
X26755647Y-8951719D01*
X26749798Y-8956484D01*
X26749835Y-8956528D01*
X26744310Y-8961164D01*
X26691597Y-9017035D01*
X23745451Y-11963181D01*
X23684128Y-11996666D01*
X23657770Y-11999500D01*
X17949731Y-11999500D01*
X17932194Y-11998254D01*
X17931449Y-11998147D01*
X17931444Y-11998146D01*
X17686695Y-11963181D01*
X17538015Y-11941940D01*
X17481152Y-11918386D01*
X17162608Y-11679478D01*
X17149327Y-11667959D01*
X12565729Y-7084361D01*
X12553949Y-7070730D01*
X12544188Y-7057619D01*
X12539612Y-7051472D01*
X12525197Y-7039376D01*
X12499587Y-7017886D01*
X12495612Y-7014244D01*
X12492690Y-7011322D01*
X12489780Y-7008411D01*
X12464040Y-6988059D01*
X12405209Y-6938694D01*
X12399180Y-6934729D01*
X12399212Y-6934680D01*
X12392853Y-6930628D01*
X12392822Y-6930679D01*
X12391726Y-6930003D01*
X49364785Y-6930003D01*
X49371789Y-7005596D01*
X49371983Y-7008365D01*
X49375745Y-7087328D01*
X49375746Y-7087330D01*
X49379468Y-7102675D01*
X49382433Y-7120458D01*
X49383603Y-7133083D01*
X49405607Y-7210421D01*
X49417437Y-7259183D01*
X49425295Y-7291573D01*
X49425297Y-7291579D01*
X49430421Y-7302799D01*
X49436891Y-7320369D01*
X49439419Y-7329253D01*
X49476635Y-7403992D01*
X49512605Y-7482756D01*
X49517753Y-7489984D01*
X49527748Y-7506643D01*
X49530327Y-7511821D01*
X49582511Y-7580924D01*
X49634514Y-7653952D01*
X49638443Y-7657698D01*
X49651822Y-7672707D01*
X49653236Y-7674579D01*
X49719522Y-7735006D01*
X49786622Y-7798986D01*
X49786623Y-7798986D01*
X49786623Y-7798987D01*
X49788285Y-7800055D01*
X49799352Y-7808559D01*
X49799380Y-7808523D01*
X49803952Y-7811975D01*
X49803959Y-7811981D01*
X49835258Y-7831360D01*
X49882841Y-7860823D01*
X49923988Y-7887266D01*
X49963428Y-7912613D01*
X49963432Y-7912614D01*
X49968684Y-7915323D01*
X49968647Y-7915394D01*
X49972064Y-7917120D01*
X49972229Y-7916791D01*
X49977358Y-7919345D01*
X49977363Y-7919348D01*
X50066728Y-7953968D01*
X50158543Y-7990725D01*
X50158761Y-7990767D01*
X50163989Y-7992012D01*
X50167537Y-7993021D01*
X50167544Y-7993024D01*
X50264767Y-8011198D01*
X50364914Y-8030500D01*
X50364915Y-8030500D01*
X50571976Y-8030500D01*
X50620996Y-8021336D01*
X50626478Y-8020564D01*
X50646226Y-8018677D01*
X50679218Y-8015528D01*
X50723802Y-8002435D01*
X50729837Y-8000989D01*
X50772456Y-7993024D01*
X50822030Y-7973818D01*
X50826896Y-7972164D01*
X50880875Y-7956316D01*
X50919269Y-7936521D01*
X50925248Y-7933832D01*
X50962637Y-7919348D01*
X51010586Y-7889657D01*
X51014791Y-7887276D01*
X51067682Y-7860011D01*
X51099074Y-7835322D01*
X51104722Y-7831371D01*
X51136041Y-7811981D01*
X51180155Y-7771764D01*
X51183553Y-7768886D01*
X51232886Y-7730092D01*
X51256884Y-7702395D01*
X51261955Y-7697193D01*
X51286764Y-7674579D01*
X51324693Y-7624350D01*
X51327296Y-7621136D01*
X51370519Y-7571256D01*
X51387210Y-7542344D01*
X51391424Y-7535984D01*
X51409673Y-7511821D01*
X51439185Y-7452550D01*
X51440949Y-7449265D01*
X51475604Y-7389244D01*
X51485456Y-7360775D01*
X51488543Y-7353425D01*
X51500582Y-7329250D01*
X51519577Y-7262485D01*
X51520618Y-7259183D01*
X51544344Y-7190633D01*
X51548165Y-7164048D01*
X51549901Y-7155911D01*
X51556397Y-7133083D01*
X51563103Y-7060692D01*
X51563467Y-7057619D01*
X51566090Y-7039376D01*
X51574254Y-6982602D01*
X51573132Y-6959056D01*
X51573326Y-6950377D01*
X51575215Y-6930000D01*
X51568208Y-6854400D01*
X51568014Y-6851628D01*
X51567327Y-6837208D01*
X51564254Y-6772670D01*
X51560534Y-6757338D01*
X51557565Y-6739531D01*
X51556397Y-6726917D01*
X51534392Y-6649578D01*
X51514704Y-6568424D01*
X51509579Y-6557202D01*
X51503107Y-6539627D01*
X51500582Y-6530750D01*
X51463364Y-6456007D01*
X51427396Y-6377247D01*
X51422243Y-6370011D01*
X51412249Y-6353353D01*
X51409673Y-6348179D01*
X51409669Y-6348173D01*
X51357488Y-6279075D01*
X51305488Y-6206050D01*
X51301552Y-6202297D01*
X51288175Y-6187289D01*
X51286763Y-6185420D01*
X51286762Y-6185418D01*
X51220478Y-6124993D01*
X51153387Y-6061022D01*
X51153382Y-6061017D01*
X51153378Y-6061014D01*
X51151708Y-6059940D01*
X51140647Y-6051441D01*
X51140621Y-6051477D01*
X51136048Y-6048024D01*
X51136042Y-6048020D01*
X51136041Y-6048019D01*
X51057158Y-5999177D01*
X50976572Y-5947387D01*
X50976569Y-5947386D01*
X50976568Y-5947385D01*
X50971321Y-5944680D01*
X50971356Y-5944610D01*
X50967920Y-5942874D01*
X50967758Y-5943202D01*
X50962641Y-5940653D01*
X50873271Y-5906031D01*
X50781455Y-5869274D01*
X50781236Y-5869232D01*
X50776019Y-5867989D01*
X50772455Y-5866975D01*
X50675232Y-5848801D01*
X50575086Y-5829500D01*
X50575085Y-5829500D01*
X50571976Y-5829500D01*
X50368024Y-5829500D01*
X50368018Y-5829500D01*
X50319004Y-5838662D01*
X50313506Y-5839436D01*
X50260785Y-5844471D01*
X50216226Y-5857554D01*
X50210151Y-5859010D01*
X50173499Y-5865862D01*
X50167544Y-5866976D01*
X50167542Y-5866976D01*
X50167535Y-5866978D01*
X50125906Y-5883105D01*
X50118004Y-5886167D01*
X50113080Y-5887840D01*
X50059135Y-5903680D01*
X50059116Y-5903687D01*
X50020750Y-5923466D01*
X50014736Y-5926172D01*
X49977361Y-5940652D01*
X49929427Y-5970332D01*
X49925198Y-5972726D01*
X49872321Y-5999986D01*
X49840945Y-6024659D01*
X49835257Y-6028639D01*
X49803959Y-6048018D01*
X49803956Y-6048020D01*
X49759869Y-6088211D01*
X49756426Y-6091127D01*
X49707116Y-6129904D01*
X49707115Y-6129906D01*
X49683120Y-6157597D01*
X49678031Y-6162816D01*
X49653239Y-6185417D01*
X49615322Y-6235625D01*
X49612702Y-6238863D01*
X49569482Y-6288741D01*
X49552792Y-6317647D01*
X49548575Y-6324013D01*
X49530326Y-6348180D01*
X49500837Y-6407399D01*
X49499032Y-6410762D01*
X49464397Y-6470752D01*
X49464394Y-6470758D01*
X49454548Y-6499208D01*
X49451457Y-6506569D01*
X49439416Y-6530753D01*
X49439416Y-6530754D01*
X49420422Y-6597509D01*
X49419379Y-6600817D01*
X49395656Y-6669365D01*
X49395655Y-6669369D01*
X49391834Y-6695939D01*
X49390097Y-6704088D01*
X49383603Y-6726915D01*
X49383603Y-6726917D01*
X49376897Y-6799281D01*
X49376530Y-6802383D01*
X49365746Y-6877396D01*
X49365745Y-6877402D01*
X49366866Y-6900950D01*
X49366672Y-6909624D01*
X49364785Y-6930002D01*
X49364785Y-6930003D01*
X12391726Y-6930003D01*
X12386680Y-6926891D01*
X12386678Y-6926890D01*
X12386677Y-6926889D01*
X12331052Y-6900950D01*
X12317058Y-6894424D01*
X12282894Y-6877267D01*
X12248433Y-6859960D01*
X12248431Y-6859959D01*
X12248430Y-6859959D01*
X12241645Y-6857489D01*
X12241665Y-6857433D01*
X12234549Y-6854959D01*
X12234531Y-6855015D01*
X12227671Y-6852742D01*
X12199841Y-6846996D01*
X12152434Y-6837207D01*
X12103472Y-6825603D01*
X12077719Y-6819499D01*
X12070547Y-6818661D01*
X12070553Y-6818601D01*
X12063055Y-6817835D01*
X12063050Y-6817895D01*
X12055860Y-6817265D01*
X11979083Y-6819500D01*
X8452729Y-6819500D01*
X8425194Y-6816404D01*
X8350007Y-6799281D01*
X7754064Y-6663562D01*
X7743374Y-6661249D01*
X7743373Y-6661248D01*
X7738720Y-6660242D01*
X7738740Y-6660148D01*
X7725298Y-6657206D01*
X7646331Y-6633253D01*
X7646321Y-6633252D01*
X7460000Y-6614901D01*
X7459999Y-6614901D01*
X7273668Y-6633252D01*
X7273666Y-6633253D01*
X7094497Y-6687604D01*
X6929376Y-6775862D01*
X6929373Y-6775864D01*
X6784642Y-6894642D01*
X6665864Y-7039373D01*
X6665862Y-7039376D01*
X6577604Y-7204497D01*
X6523253Y-7383666D01*
X6523252Y-7383668D01*
X6504901Y-7570000D01*
X-188756Y-7570000D01*
X-172790Y-7542344D01*
X-168576Y-7535984D01*
X-150327Y-7511821D01*
X-120815Y-7452550D01*
X-119051Y-7449265D01*
X-84396Y-7389244D01*
X-74544Y-7360775D01*
X-71457Y-7353425D01*
X-59418Y-7329250D01*
X-40423Y-7262485D01*
X-39382Y-7259183D01*
X-15656Y-7190633D01*
X-11835Y-7164048D01*
X-10099Y-7155911D01*
X-3603Y-7133083D01*
X3103Y-7060692D01*
X3467Y-7057619D01*
X6090Y-7039376D01*
X14254Y-6982602D01*
X13132Y-6959056D01*
X13326Y-6950377D01*
X15215Y-6930000D01*
X8208Y-6854400D01*
X8014Y-6851628D01*
X7327Y-6837208D01*
X4254Y-6772670D01*
X534Y-6757338D01*
X-2435Y-6739531D01*
X-3603Y-6726917D01*
X-25608Y-6649578D01*
X-45296Y-6568424D01*
X-50421Y-6557202D01*
X-56893Y-6539627D01*
X-59418Y-6530750D01*
X-96636Y-6456007D01*
X-132604Y-6377247D01*
X-137757Y-6370011D01*
X-147751Y-6353353D01*
X-150327Y-6348179D01*
X-150331Y-6348173D01*
X-202512Y-6279075D01*
X-254512Y-6206050D01*
X-258448Y-6202297D01*
X-271825Y-6187289D01*
X-273237Y-6185420D01*
X-273238Y-6185418D01*
X-339522Y-6124993D01*
X-406613Y-6061022D01*
X-406618Y-6061017D01*
X-406622Y-6061014D01*
X-408292Y-6059940D01*
X-419353Y-6051441D01*
X-419379Y-6051477D01*
X-423952Y-6048024D01*
X-423958Y-6048020D01*
X-423959Y-6048019D01*
X-502842Y-5999177D01*
X-583428Y-5947387D01*
X-583431Y-5947386D01*
X-583432Y-5947385D01*
X-588679Y-5944680D01*
X-588644Y-5944610D01*
X-592080Y-5942874D01*
X-592242Y-5943202D01*
X-597359Y-5940653D01*
X-686729Y-5906031D01*
X-778545Y-5869274D01*
X-778764Y-5869232D01*
X-783981Y-5867989D01*
X-787545Y-5866975D01*
X-884768Y-5848801D01*
X-984914Y-5829500D01*
X-984915Y-5829500D01*
X-988024Y-5829500D01*
X-1191976Y-5829500D01*
X-1191982Y-5829500D01*
X-1240996Y-5838662D01*
X-1246494Y-5839436D01*
X-1299215Y-5844471D01*
X-1343774Y-5857554D01*
X-1349849Y-5859010D01*
X-1386501Y-5865862D01*
X-1392456Y-5866976D01*
X-1392458Y-5866976D01*
X-1392465Y-5866978D01*
X-1434094Y-5883105D01*
X-1441996Y-5886167D01*
X-1446920Y-5887840D01*
X-1500865Y-5903680D01*
X-1500884Y-5903687D01*
X-1539250Y-5923466D01*
X-1545264Y-5926172D01*
X-1582639Y-5940652D01*
X-1630573Y-5970332D01*
X-1634802Y-5972726D01*
X-1687679Y-5999986D01*
X-1719055Y-6024659D01*
X-1724743Y-6028639D01*
X-1756041Y-6048018D01*
X-1756044Y-6048020D01*
X-1800131Y-6088211D01*
X-1803574Y-6091127D01*
X-1852884Y-6129904D01*
X-1852885Y-6129906D01*
X-1876880Y-6157597D01*
X-1881969Y-6162816D01*
X-1906761Y-6185417D01*
X-1944678Y-6235625D01*
X-1947298Y-6238863D01*
X-1990518Y-6288741D01*
X-2007208Y-6317647D01*
X-2011425Y-6324013D01*
X-2029674Y-6348180D01*
X-2059163Y-6407399D01*
X-2060968Y-6410762D01*
X-2095603Y-6470752D01*
X-2095606Y-6470758D01*
X-2105452Y-6499208D01*
X-2108543Y-6506569D01*
X-2120584Y-6530753D01*
X-2120584Y-6530754D01*
X-2139578Y-6597509D01*
X-2140621Y-6600817D01*
X-2164344Y-6669365D01*
X-2164345Y-6669369D01*
X-2168166Y-6695939D01*
X-2169903Y-6704088D01*
X-2176397Y-6726915D01*
X-2176397Y-6726917D01*
X-2183103Y-6799281D01*
X-2183470Y-6802383D01*
X-2194254Y-6877396D01*
X-2194255Y-6877402D01*
X-2193134Y-6900950D01*
X-2193328Y-6909624D01*
X-2195215Y-6930002D01*
X-2195215Y-6930003D01*
X-2754500Y-6930003D01*
X-2754500Y-3011741D01*
X-2754402Y-3008264D01*
X-2746778Y-2872488D01*
X-2737407Y-2705621D01*
X-2736631Y-2698732D01*
X-2686148Y-2401615D01*
X-2684600Y-2394832D01*
X-2682774Y-2388493D01*
X-2601170Y-2105237D01*
X-2598877Y-2098685D01*
X-2483541Y-1820238D01*
X-2480538Y-1814003D01*
X-2334752Y-1550223D01*
X-2331056Y-1544342D01*
X-2156663Y-1298558D01*
X-2152331Y-1293124D01*
X-1951510Y-1068405D01*
X-1946592Y-1063488D01*
X-1897036Y-1019202D01*
X-1721876Y-862669D01*
X-1716442Y-858337D01*
X-1514395Y-714977D01*
X-1470658Y-683944D01*
X-1464777Y-680248D01*
X-1200997Y-534462D01*
X-1194762Y-531459D01*
X-1016452Y-457602D01*
X-946983Y-450133D01*
X-884504Y-481408D01*
X-848852Y-541497D01*
X-845000Y-572163D01*
X-845000Y-1100000D01*
X71314Y-1100000D01*
X45507Y-1140156D01*
X5000Y-1278111D01*
X5000Y-1421889D01*
X45507Y-1559844D01*
X71314Y-1600000D01*
X-845000Y-1600000D01*
X-845000Y-2247844D01*
X-838599Y-2307372D01*
X-838597Y-2307379D01*
X-788355Y-2442086D01*
X-788351Y-2442093D01*
X-702191Y-2557187D01*
X-702188Y-2557190D01*
X-587094Y-2643350D01*
X-587087Y-2643354D01*
X-452380Y-2693596D01*
X-452373Y-2693598D01*
X-392845Y-2699999D01*
X-392828Y-2700000D01*
X255000Y-2700000D01*
X255000Y-1785501D01*
X362685Y-1834680D01*
X469237Y-1850000D01*
X540763Y-1850000D01*
X647315Y-1834680D01*
X755000Y-1785501D01*
X755000Y-2700000D01*
X1402828Y-2700000D01*
X1402844Y-2699999D01*
X1462372Y-2693598D01*
X1462379Y-2693596D01*
X1597086Y-2643354D01*
X1597093Y-2643350D01*
X1712187Y-2557190D01*
X1712190Y-2557187D01*
X1798350Y-2442093D01*
X1798354Y-2442086D01*
X1847422Y-2310529D01*
X1889293Y-2254595D01*
X1954757Y-2230178D01*
X2023030Y-2245030D01*
X2051285Y-2266181D01*
X2173599Y-2388495D01*
X2270384Y-2456265D01*
X2367165Y-2524032D01*
X2367167Y-2524033D01*
X2367170Y-2524035D01*
X2581337Y-2623903D01*
X2809592Y-2685063D01*
X2986034Y-2700500D01*
X3044999Y-2705659D01*
X3045000Y-2705659D01*
X3045001Y-2705659D01*
X3103966Y-2700500D01*
X3280408Y-2685063D01*
X3508663Y-2623903D01*
X3722830Y-2524035D01*
X3916401Y-2388495D01*
X4083495Y-2221401D01*
X4219035Y-2027830D01*
X4318903Y-1813663D01*
X4380063Y-1585408D01*
X4400659Y-1350000D01*
X4380063Y-1114592D01*
X4318903Y-886337D01*
X4219035Y-672171D01*
X4213425Y-664158D01*
X4083494Y-478597D01*
X4077078Y-472181D01*
X4043593Y-410858D01*
X4048577Y-341166D01*
X4090449Y-285233D01*
X4155913Y-260816D01*
X4164759Y-260500D01*
X9102057Y-260500D01*
X9169096Y-280185D01*
G37*
%TD.AperFunction*%
%TD*%
%TA.AperFunction,Conductor*%
%TO.N,/VCCA*%
G36*
X30695961Y-15231798D02*
G01*
X31038201Y-15574038D01*
X31041628Y-15582311D01*
X31040639Y-15587018D01*
X30454900Y-16919807D01*
X30448434Y-16926003D01*
X30439723Y-16925914D01*
X29668785Y-16607562D01*
X29662447Y-16601238D01*
X29344085Y-15830274D01*
X29344094Y-15821321D01*
X29350191Y-15815099D01*
X30682982Y-15229359D01*
X30691933Y-15229168D01*
X30695961Y-15231798D01*
G37*
%TD.AperFunction*%
%TD*%
%TA.AperFunction,Conductor*%
%TO.N,/VCCA*%
G36*
X8360898Y-20227927D02*
G01*
X8368204Y-20233105D01*
X8370000Y-20239335D01*
X8370000Y-20720664D01*
X8366573Y-20728937D01*
X8360898Y-20732072D01*
X7651816Y-20893557D01*
X7642988Y-20892053D01*
X7638418Y-20886649D01*
X7569265Y-20720664D01*
X7470873Y-20484498D01*
X7470855Y-20475547D01*
X7638418Y-20073349D01*
X7644763Y-20067031D01*
X7651816Y-20066442D01*
X8360898Y-20227927D01*
G37*
%TD.AperFunction*%
%TD*%
%TA.AperFunction,Conductor*%
%TO.N,/VCCA*%
G36*
X28647016Y-15229359D02*
G01*
X28652565Y-15231798D01*
X29979807Y-15815099D01*
X29986003Y-15821565D01*
X29985914Y-15830276D01*
X29667562Y-16601214D01*
X29661237Y-16607553D01*
X29661214Y-16607562D01*
X28890276Y-16925914D01*
X28881321Y-16925905D01*
X28875099Y-16919807D01*
X28289360Y-15587018D01*
X28289168Y-15578066D01*
X28291796Y-15574040D01*
X28634039Y-15231797D01*
X28642311Y-15228371D01*
X28647016Y-15229359D01*
G37*
%TD.AperFunction*%
%TD*%
%TA.AperFunction,Conductor*%
%TO.N,/VCCA*%
G36*
X37615358Y-14824124D02*
G01*
X37619920Y-14831829D01*
X37620038Y-14833451D01*
X37621000Y-15170000D01*
X37620038Y-15506548D01*
X37616587Y-15514812D01*
X37608305Y-15518215D01*
X37606683Y-15518097D01*
X36930045Y-15421435D01*
X36922340Y-15416873D01*
X36920000Y-15409853D01*
X36920000Y-14930147D01*
X36923427Y-14921874D01*
X36930045Y-14918565D01*
X37606684Y-14821902D01*
X37615358Y-14824124D01*
G37*
%TD.AperFunction*%
%TD*%
%TA.AperFunction,Conductor*%
%TO.N,/VCCA*%
G36*
X17183311Y-14821901D02*
G01*
X17859955Y-14918565D01*
X17867660Y-14923127D01*
X17870000Y-14930147D01*
X17870000Y-15409853D01*
X17866573Y-15418126D01*
X17859955Y-15421435D01*
X17183316Y-15518097D01*
X17174641Y-15515875D01*
X17170079Y-15508170D01*
X17169961Y-15506556D01*
X17169000Y-15170000D01*
X17169961Y-14833449D01*
X17173412Y-14825187D01*
X17181694Y-14821784D01*
X17183311Y-14821901D01*
G37*
%TD.AperFunction*%
%TD*%
%TA.AperFunction,Conductor*%
%TO.N,/VCCA*%
G36*
X16930816Y-14930868D02*
G01*
X16931775Y-14931722D01*
X17170707Y-15169293D01*
X17407704Y-15407648D01*
X17411107Y-15415930D01*
X17407656Y-15424194D01*
X17406138Y-15425467D01*
X16847834Y-15818107D01*
X16839095Y-15820063D01*
X16832830Y-15816810D01*
X16493622Y-15477602D01*
X16490195Y-15469329D01*
X16492744Y-15462039D01*
X16914375Y-14932729D01*
X16922210Y-14928393D01*
X16930816Y-14930868D01*
G37*
%TD.AperFunction*%
%TD*%
%TA.AperFunction,Conductor*%
%TO.N,/VCCB*%
G36*
X8350898Y-7317927D02*
G01*
X8358204Y-7323105D01*
X8360000Y-7329335D01*
X8360000Y-7810664D01*
X8356573Y-7818937D01*
X8350898Y-7822072D01*
X7641816Y-7983557D01*
X7632988Y-7982053D01*
X7628418Y-7976649D01*
X7559265Y-7810664D01*
X7460873Y-7574498D01*
X7460855Y-7565547D01*
X7628418Y-7163349D01*
X7634763Y-7157031D01*
X7641816Y-7156442D01*
X8350898Y-7317927D01*
G37*
%TD.AperFunction*%
%TD*%
%TA.AperFunction,Conductor*%
%TO.N,/VCCB*%
G36*
X37299920Y-12174337D02*
G01*
X37846726Y-12584442D01*
X37851288Y-12592147D01*
X37849066Y-12600822D01*
X37848003Y-12602051D01*
X37610707Y-12840707D01*
X37372051Y-13078003D01*
X37363769Y-13081406D01*
X37355505Y-13077955D01*
X37354442Y-13076726D01*
X36944337Y-12529920D01*
X36942115Y-12521245D01*
X36945423Y-12514629D01*
X37284628Y-12175423D01*
X37292900Y-12171997D01*
X37299920Y-12174337D01*
G37*
%TD.AperFunction*%
%TD*%
%TA.AperFunction,Conductor*%
%TO.N,/VCCB*%
G36*
X16859920Y-12084337D02*
G01*
X17406726Y-12494442D01*
X17411288Y-12502147D01*
X17409066Y-12510822D01*
X17408003Y-12512051D01*
X17170707Y-12750707D01*
X16932051Y-12988003D01*
X16923769Y-12991406D01*
X16915505Y-12987955D01*
X16914442Y-12986726D01*
X16504337Y-12439920D01*
X16502115Y-12431245D01*
X16505423Y-12424629D01*
X16844628Y-12085423D01*
X16852900Y-12081997D01*
X16859920Y-12084337D01*
G37*
%TD.AperFunction*%
%TD*%
%TA.AperFunction,Conductor*%
%TO.N,/VCCB*%
G36*
X17183311Y-12401901D02*
G01*
X17859955Y-12498565D01*
X17867660Y-12503127D01*
X17870000Y-12510147D01*
X17870000Y-12989853D01*
X17866573Y-12998126D01*
X17859955Y-13001435D01*
X17183316Y-13098097D01*
X17174641Y-13095875D01*
X17170079Y-13088170D01*
X17169961Y-13086556D01*
X17169000Y-12750000D01*
X17169961Y-12413449D01*
X17173412Y-12405187D01*
X17181694Y-12401784D01*
X17183311Y-12401901D01*
G37*
%TD.AperFunction*%
%TD*%
M02*
